<?xml version="1.0" encoding="UTF-8" standalone="no"?>
<svg width="400px" height="300px" viewBox="0 0 400 300" version="1.1" xmlns="http://www.w3.org/2000/svg" xmlns:xlink="http://www.w3.org/1999/xlink">
    <!-- Generator: Sketch 46.2 (44496) - http://www.bohemiancoding.com/sketch -->
    <title>Dribble</title>
    <desc>Created with Sketch.</desc>
    <defs>
        <linearGradient x1="50%" y1="0%" x2="50%" y2="100%" id="linearGradient-1">
            <stop stop-color="#F1EDE7" offset="0%"></stop>
            <stop stop-color="#DBD7D1" offset="54.6123798%"></stop>
            <stop stop-color="#F1EDE7" offset="100%"></stop>
        </linearGradient>
        <linearGradient x1="51.0116398%" y1="76.4303811%" x2="50%" y2="4.418771%" id="linearGradient-2">
            <stop stop-color="#EFF6E3" offset="0%"></stop>
            <stop stop-color="#B6CC8A" offset="52.0668976%"></stop>
            <stop stop-color="#809D52" offset="100%"></stop>
        </linearGradient>
        <linearGradient x1="19.1772563%" y1="87.7224952%" x2="50%" y2="4.418771%" id="linearGradient-3">
            <stop stop-color="#EFF6E3" offset="0%"></stop>
            <stop stop-color="#B6CC8A" offset="69.7704082%"></stop>
            <stop stop-color="#809D52" offset="100%"></stop>
        </linearGradient>
        <linearGradient x1="44.1245597%" y1="76.8928919%" x2="50%" y2="4.418771%" id="linearGradient-4">
            <stop stop-color="#EFF6E3" stop-opacity="0.305027174" offset="0%"></stop>
            <stop stop-color="#B6CC8A" stop-opacity="0.500679348" offset="33.3770891%"></stop>
            <stop stop-color="#809D52" offset="100%"></stop>
        </linearGradient>
        <path d="M135.213527,172.239748 C198.060637,172.239748 249.008285,144.9213 249.008285,111.222287 C249.008285,99.5611563 252.481744,94.166715 238.438569,83.0631765 C211.89896,62.0790647 174.05598,46.1706532 149.872726,45.1070967 C125.689472,44.0435401 87.9935226,43.1709935 70.9575181,52.7907665 C41.9587162,69.165609 17.603912,101.98281 17.603912,123.2109 C17.603912,139.986955 31.1754366,152.210666 52.5597214,160.257005 C74.1312615,168.373803 103.652989,172.239748 135.213527,172.239748 Z" id="path-5"></path>
        <path d="M202.96778,133.438486 C216.948266,133.438486 199.084831,108.727901 199.084831,90.2554543 C199.084831,71.7830075 206.958276,48.2649842 192.977789,48.2649842 C178.997303,48.2649842 155.080932,61.2572857 154.529663,90.2554543 C153.978395,119.253623 188.987293,133.438486 202.96778,133.438486 Z" id="path-6"></path>
        <filter x="-29.7%" y="-16.4%" width="159.5%" height="137.6%" filterUnits="objectBoundingBox" id="filter-7">
            <feOffset dx="0" dy="2" in="SourceAlpha" result="shadowOffsetOuter1"></feOffset>
            <feGaussianBlur stdDeviation="5" in="shadowOffsetOuter1" result="shadowBlurOuter1"></feGaussianBlur>
            <feColorMatrix values="0 0 0 0 0   0 0 0 0 0   0 0 0 0 0  0 0 0 0.5 0" type="matrix" in="shadowBlurOuter1"></feColorMatrix>
        </filter>
        <linearGradient x1="0%" y1="58.8069598%" x2="42.9458643%" y2="0%" id="linearGradient-8">
            <stop stop-color="#D7E4B7" offset="0%"></stop>
            <stop stop-color="#6A813C" offset="100%"></stop>
        </linearGradient>
        <ellipse id="path-9" cx="13.6919315" cy="10.8832808" rx="13.6919315" ry="10.8832808"></ellipse>
        <filter x="-11.0%" y="-13.8%" width="121.9%" height="127.6%" filterUnits="objectBoundingBox" id="filter-10">
            <feMorphology radius="1" operator="erode" in="SourceAlpha" result="shadowSpreadInner1"></feMorphology>
            <feGaussianBlur stdDeviation="1.5" in="shadowSpreadInner1" result="shadowBlurInner1"></feGaussianBlur>
            <feOffset dx="-2" dy="-2" in="shadowBlurInner1" result="shadowOffsetInner1"></feOffset>
            <feComposite in="shadowOffsetInner1" in2="SourceAlpha" operator="arithmetic" k2="-1" k3="1" result="shadowInnerInner1"></feComposite>
            <feColorMatrix values="0 0 0 0 0.839215686   0 0 0 0 0.88627451   0 0 0 0 0.71372549  0 0 0 1 0" type="matrix" in="shadowInnerInner1"></feColorMatrix>
        </filter>
        <ellipse id="path-11" cx="4.400978" cy="4.25867508" rx="4.400978" ry="4.25867508"></ellipse>
        <filter x="-51.1%" y="-52.8%" width="202.2%" height="205.7%" filterUnits="objectBoundingBox" id="filter-13">
            <feMorphology radius="0.5" operator="dilate" in="SourceAlpha" result="shadowSpreadOuter1"></feMorphology>
            <feOffset dx="0" dy="0" in="shadowSpreadOuter1" result="shadowOffsetOuter1"></feOffset>
            <feGaussianBlur stdDeviation="1" in="shadowOffsetOuter1" result="shadowBlurOuter1"></feGaussianBlur>
            <feColorMatrix values="0 0 0 0 0.59765625   0 0 0 0 0.497251322   0 0 0 0 0.0720069192  0 0 0 1 0" type="matrix" in="shadowBlurOuter1"></feColorMatrix>
        </filter>
        <radialGradient cx="34.6258711%" cy="39.3479544%" fx="34.6258711%" fy="39.3479544%" r="51.5844105%" gradientTransform="translate(0.346259,0.393480),scale(0.905950,1.000000),rotate(80.511725),translate(-0.346259,-0.393480)" id="radialGradient-14">
            <stop stop-color="#FFFC7C" offset="0%"></stop>
            <stop stop-color="#F4C40A" offset="100%"></stop>
        </radialGradient>
    </defs>
    <g id="Page-1" stroke="none" stroke-width="1" fill="none" fill-rule="evenodd">
        <g id="Dribble">
            <g id="basstronaut" transform="translate(-5.000000, -6.000000)">
                <rect id="Rectangle-2" fill="#04043B" x="8.80195599" y="6.1955836" width="400" height="304"></rect>
                <g id="pisces" transform="translate(212.345618, 180.435043) rotate(-19.000000) translate(-212.345618, -180.435043) translate(70.845618, 80.935043)">
                    <polygon id="Star" fill="#ECE5DC" points="97.0021039 42.4197629 94.6728525 46.2526148 95.8266207 41.9486054 91.3787936 43.0650672 95.3397196 40.8111307 91.3787936 38.5571942 95.8266207 39.6736559 94.6728525 35.3696466 97.0021039 39.2024985 99.3313554 35.3696466 98.1775872 39.6736559 102.625414 38.5571942 98.6644883 40.8111307 102.625414 43.0650672 98.1775872 41.9486054 99.3313554 46.2526148"></polygon>
                    <polygon id="Star-Copy" fill="#ECE5DC" points="115.277863 9.4445636 113.563062 12.453096 113.801365 9.02504296 110.677897 10.6588669 112.793645 7.89967589 109.253188 7.64006389 112.574646 6.42575848 109.741272 4.35513549 113.2139 5.0712491 111.987183 1.84702328 114.508447 4.26619489 115.277863 0.912035176 116.047278 4.26619489 118.568542 1.84702328 117.341825 5.0712491 120.814454 4.35513549 117.981079 6.42575848 121.302537 7.64006389 117.76208 7.89967589 119.877829 10.6588669 116.75436 9.02504296 116.992664 12.453096"></polygon>
                    <polygon id="Star-Copy-2" fill="#ECE5DC" points="63.2622417 8.41048731 60.9329903 12.2433392 62.0867584 7.93932985 57.6389313 9.05579162 61.5998573 6.80185511 57.6389313 4.5479186 62.0867584 5.66438038 60.9329903 1.36037102 63.2622417 5.19322292 65.5914931 1.36037102 64.437725 5.66438038 68.8855521 4.5479186 64.9246261 6.80185511 68.8855521 9.05579162 64.437725 7.93932985 65.5914931 12.2433392"></polygon>
                    <polygon id="Star-Copy-3" fill="#FFFFFF" points="80.1321728 77.8775536 77.8029214 80.2618903 77.8982094 76.9821359 74.5088624 77.0743428 76.9728714 74.8204063 74.5088624 72.5664697 77.8982094 72.6586766 77.8029214 69.3789222 80.1321728 71.7632589 82.4614242 69.3789222 82.3661363 72.6586766 85.7554832 72.5664697 83.2914742 74.8204063 85.7554832 77.0743428 82.3661363 76.9821359 82.4614242 80.2618903"></polygon>
                    <polygon id="Star-Copy-5" fill="#ECE5DC" points="21.0874139 140.366477 18.7581625 144.199328 19.9119306 139.895319 15.4641035 141.011781 19.4250295 138.757844 15.4641035 136.503908 19.9119306 137.62037 18.7581625 133.31636 21.0874139 137.149212 23.4166653 133.31636 22.2628972 137.62037 26.7107243 136.503908 22.7497983 138.757844 26.7107243 141.011781 22.2628972 139.895319 23.4166653 144.199328"></polygon>
                    <polygon id="Star-Copy-6" fill="#ECE5DC" points="50.6097934 185.25872 48.2805419 189.091572 49.4343101 184.787563 44.986483 185.904025 48.947409 183.650088 44.986483 181.396152 49.4343101 182.512613 48.2805419 178.208604 50.6097934 182.041456 52.9390448 178.208604 51.7852766 182.512613 56.2331037 181.396152 52.2721777 183.650088 56.2331037 185.904025 51.7852766 184.787563 52.9390448 189.091572"></polygon>
                    <polygon id="Star-Copy-7" fill="#ECE5DC" points="91.3787936 174.375752 89.0495421 178.208604 90.2033103 173.904595 85.7554832 175.021056 89.7164092 172.76712 85.7554832 170.513183 90.2033103 171.629645 89.0495421 167.325636 91.3787936 171.158488 93.708045 167.325636 92.5542768 171.629645 97.0021039 170.513183 93.0411779 172.76712 97.0021039 175.021056 92.5542768 173.904595 93.708045 178.208604"></polygon>
                    <polygon id="Star-Copy-9" fill="#ECE5DC" points="199.627518 151.249445 197.298267 155.082297 198.452035 150.778287 194.004208 151.894749 197.965134 149.640813 194.004208 147.386876 198.452035 148.503338 197.298267 144.199328 199.627518 148.03218 201.95677 144.199328 200.803002 148.503338 205.250829 147.386876 201.289903 149.640813 205.250829 151.894749 200.803002 150.778287 201.95677 155.082297"></polygon>
                    <polygon id="Star-Copy-10" fill="#ECE5DC" points="226.338243 160.772042 224.008991 164.604894 225.162759 160.300884 220.714932 161.417346 224.675858 159.16341 220.714932 156.909473 225.162759 158.025935 224.008991 153.721926 226.338243 157.554777 228.667494 153.721926 227.513726 158.025935 231.961553 156.909473 228.000627 159.16341 231.961553 161.417346 227.513726 160.300884 228.667494 164.604894"></polygon>
                    <polygon id="Star-Copy-11" fill="#ECE5DC" points="231.961553 187.979462 229.632301 191.812314 230.78607 187.508305 226.338243 188.624767 230.299169 186.37083 226.338243 184.116894 230.78607 185.233355 229.632301 180.929346 231.961553 184.762198 234.290804 180.929346 233.137036 185.233355 237.584863 184.116894 233.623937 186.37083 237.584863 188.624767 233.137036 187.508305 234.290804 191.812314"></polygon>
                    <polygon id="Star-Copy-13" fill="#ECE5DC" points="264.295588 185.25872 261.966336 189.091572 263.120104 184.787563 258.672277 185.904025 262.633203 183.650088 258.672277 181.396152 263.120104 182.512613 261.966336 178.208604 264.295588 182.041456 266.624839 178.208604 265.471071 182.512613 269.918898 181.396152 265.957972 183.650088 269.918898 185.904025 265.471071 184.787563 266.624839 189.091572"></polygon>
                    <polygon id="Star-Copy-14" fill="#ECE5DC" points="275.542208 166.615684 272.630644 171.406749 274.072854 166.026737 268.51307 167.422314 273.464228 164.604894 268.51307 161.787473 274.072854 163.18305 272.630644 157.803039 275.542208 162.594104 278.453773 157.803039 277.011562 163.18305 282.571346 161.787473 277.620189 164.604894 282.571346 167.422314 277.011562 166.026737 278.453773 171.406749"></polygon>
                    <polygon id="Star-Copy-15" fill="#ECE5DC" points="264.295588 153.970187 261.966336 157.803039 263.120104 153.499029 258.672277 154.615491 262.633203 152.361555 258.672277 150.107618 263.120104 151.22408 261.966336 146.92007 264.295588 150.752922 266.624839 146.92007 265.471071 151.22408 269.918898 150.107618 265.957972 152.361555 269.918898 154.615491 265.471071 153.499029 266.624839 157.803039"></polygon>
                    <polygon id="Star-Copy-12" fill="#ECE5DC" points="246.019829 145.807961 243.690577 149.640813 244.844346 145.336803 240.396518 146.453265 244.357444 144.199328 240.396518 141.945392 244.844346 143.061854 243.690577 138.757844 246.019829 142.590696 248.34908 138.757844 247.195312 143.061854 251.643139 141.945392 247.682213 144.199328 251.643139 146.453265 247.195312 145.336803 248.34908 149.640813"></polygon>
                    <polygon id="Star-Copy-4" fill="#ECE5DC" points="7.73205176 193.343998 4.52933106 198.614169 6.11576228 192.696156 2.99760217e-15 194.231291 5.44627325 191.132129 2.99760217e-15 188.032966 6.11576228 189.568101 4.52933106 183.650088 7.73205176 188.920259 10.9347725 183.650088 9.34834125 189.568101 15.4641035 188.032966 10.0178303 191.132129 15.4641035 194.231291 9.34834125 192.696156 10.9347725 198.614169"></polygon>
                    <polygon id="Star-Copy-8" fill="#ECE5DC" points="110.357466 162.055464 107.154745 167.325636 108.741177 161.407623 102.625414 162.942758 108.071688 159.843595 102.625414 156.744432 108.741177 158.279567 107.154745 152.361555 110.357466 157.631726 113.560187 152.361555 111.973756 158.279567 118.089518 156.744432 112.643245 159.843595 118.089518 162.942758 111.973756 161.407623 113.560187 167.325636"></polygon>
                </g>
                <g id="Group" opacity="0.95207556" transform="translate(258.544668, 111.766668) rotate(83.000000) translate(-258.544668, -111.766668) translate(168.080121, 24.700422)">
                    <path d="M90.3775915,0.00015415788 L90.3775915,163.769682 C67.0983604,163.769682 48.7791345,163.769682 35.4263713,163.769682 C24.78436,163.769682 20.516299,148.079173 10.6789617,131.254647 C-10.9517857,94.2601779 -6.73658132,-0.139216512 90.3775915,0.00015415788 Z M90.3936537,0.00015415788 C187.507826,-0.139216512 191.723031,94.2601779 170.092283,131.254647 C160.254946,148.079173 155.986885,163.769682 145.344874,163.769682 C131.992111,163.769682 113.672885,163.769682 90.3936537,163.769682 L90.3936537,0.00015415788 Z" id="Combined-Shape" fill="#F1EDE7"></path>
                    <g id="neck" transform="translate(15.462072, 149.621157)" fill="url(#linearGradient-1)">
                        <rect id="Rectangle" x="3.56817054" y="0" width="142.726822" height="14.9621157" rx="7.48105787"></rect>
                        <rect id="Rectangle-Copy" x="0" y="8.05652386" width="149.863163" height="14.9621157" rx="7.48105787"></rect>
                    </g>
                </g>
                <g id="bass" transform="translate(0.000000, 24.712934)">
                    <path d="M151.174412,178.529385 C155.954492,179.564296 175.138041,174.058577 179.82415,166.02104 C184.51026,157.983503 179.526903,144.614832 184.788061,139.404278 C183.132985,139.150997 180.328451,138.141305 176.374461,136.3752 C171.492143,146.223627 168.423104,151.822327 167.167346,153.171301 C164.596701,155.932767 155.320819,162.777106 151.174412,168.618803 C147.349345,174.007779 146.394333,177.494475 151.174412,178.529385 Z" id="Path-2-Copy-2" fill="#BFAF98" transform="translate(166.362834, 157.514730) rotate(-16.000000) translate(-166.362834, -157.514730) "></path>
                    <path d="M145.470648,194.741395 C157.475759,176.366632 178.12565,172.890518 181.210794,176.183174 C183.562464,178.693021 189.650358,197.471239 189.285582,206.846507 C189.120395,211.092055 187.996198,215.545598 185.912991,220.207134 C172.579259,220.207134 160.961702,220.207134 151.060319,220.207134 C149.934944,206.508557 148.672419,200.262508 145.470648,194.741395 Z M138.875306,249.050501 C142.077077,243.529388 149.934944,233.905711 151.060319,220.207134 C160.961702,220.207134 172.579259,220.207134 185.912991,220.207134 C188.280777,228.653461 189.547263,234.999398 189.71245,239.244946 C190.077226,248.620214 185.011287,263.268483 180.288698,264.877317 C173.774317,267.096556 150.880417,267.425264 138.875306,249.050501 Z" id="backfin" fill="#C8C2BA"></path>
                    <path d="M95.3672188,168.747544 C106.678391,162.502881 91.1037802,184.10392 116.256612,184.10392 C141.409444,184.10392 129.685637,161.03059 146.329967,171.770628 C162.974297,182.510666 165.501449,209.611971 162.484996,216.276155 C159.468543,222.94034 136.71614,214.6857 126.530314,215.513572 C105.096368,217.255654 87.9896556,222.599658 79.9330441,222.502665 C52.8337008,222.17642 37.0616629,210.58258 31.5439493,206.026158 C27.1222391,202.374795 84.0560465,174.992206 95.3672188,168.747544 Z" id="tail" fill="url(#linearGradient-2)" transform="translate(97.440989, 195.059174) rotate(33.000000) translate(-97.440989, -195.059174) "></path>
                    <path d="M49.8777506,90.851735 C41.3955712,95.6779658 33.5582283,96.4709863 27.5930241,100.564989 C25.9758753,101.674861 24.2921049,104.620064 23.0157694,106.040081 C21.7621051,107.434875 23.2878567,107.434875 27.5930241,106.040081 C25.0036991,108.14141 23.4779476,109.764846 23.0157694,110.91039 C20.678102,116.704478 19.7331722,121.691554 19.4237468,125.694725 C19.3774475,126.293719 20.0649603,126.035855 21.4862851,124.921136 C20.0935932,129.743549 19.4422737,132.607924 19.5323268,133.51426 C20.5724372,143.98241 23.0157694,150.060072 25.6217528,149.689472 C27.5885518,149.40977 32.782084,145.002784 33.4208817,141.833843 C37.9820955,119.206616 45.2300279,99.847599 49.8777506,90.851735 Z" id="Path-4" fill="#C7BCAC"></path>
                    <path d="M58.6797066,79.7209647 C59.3110673,80.7414389 60.4277632,81.6009261 62.1993611,82.3343849 C81.873965,58.2597871 129.634104,49.5073314 134.963325,39.1265817 C124.075949,34.7926257 104.759926,24.7446952 93.6172865,26.7631641 C95.7064468,26.7631641 97.4000458,28.4015024 97.4000458,30.4224951 C97.4000458,32.4434878 95.7064468,34.0818261 93.6172865,34.0818261 C92.5464065,34.0818261 91.5794591,33.6513573 90.8912657,32.9595368 C90.8345848,33.0371342 90.7771514,33.1149179 90.7189921,33.1928755 C91.0921302,33.7599593 91.3082942,34.4331419 91.3082942,35.1551649 C91.3082942,37.1761576 89.6146951,38.8144959 87.5255349,38.8144959 C87.0006744,38.8144959 86.5007805,38.7110894 86.0464359,38.5241877 C85.9243562,38.6498538 85.8019517,38.7752582 85.6793279,38.9003513 C85.9180186,39.379988 86.0517679,39.9177119 86.0517679,40.4856553 C86.0517679,42.506648 84.3581688,44.1449863 82.2690086,44.1449863 C81.7119138,44.1449863 81.1829463,44.0284884 80.7067189,43.8193021 C80.5956624,43.9289354 80.4859277,44.0375146 80.3776289,44.1449863 C80.34587,44.1765027 80.3140517,44.207955 80.2821755,44.2393443 C80.3446345,44.5031047 80.3776289,44.7777345 80.3776289,45.0598191 C80.3776289,47.0808118 78.6840299,48.7191501 76.5948696,48.7191501 C76.1538798,48.7191501 75.7305149,48.646151 75.3369833,48.5119629 C75.2652726,48.5694333 75.1935883,48.6268403 75.1219421,48.6841928 C75.4568792,49.230256 75.6491798,49.8678114 75.6491798,50.5488156 C75.6491798,52.5698083 73.9555807,54.2081465 71.8664205,54.2081465 C71.2416235,54.2081465 70.6522058,54.0616127 70.132888,53.8021329 C70.626839,54.4204432 70.9207306,55.1959265 70.9207306,56.037812 C70.9207306,58.0588047 69.2271316,59.697143 67.1379713,59.697143 C66.5131744,59.697143 65.9237566,59.5506092 65.4044388,59.2911294 C65.8983898,59.9094397 66.1922815,60.6849229 66.1922815,61.5268085 C66.1922815,63.5478012 64.4986825,65.1861395 62.4095222,65.1861395 C62.1217888,65.1861395 61.8415586,65.1550624 61.5722229,65.0961886 C61.5487987,65.168084 61.5253483,65.2397217 61.5018769,65.3111028 C63.1140682,65.7299839 64.3009018,67.1536497 64.3009018,68.8454705 C64.3009018,70.8664632 62.6073028,72.5048015 60.5181425,72.5048015 C60.0053137,72.5048015 59.5163198,72.4060815 59.0703604,72.2272146 C59.0337233,72.336408 58.9977742,72.4447056 58.9625555,72.5521162 C59.161098,72.520984 59.3648218,72.5048015 59.5724527,72.5048015 C61.661613,72.5048015 63.355212,74.1431398 63.355212,76.1641325 C63.355212,78.1851252 61.661613,79.8234635 59.5724527,79.8234635 C59.264919,79.8234635 58.9659568,79.7879621 58.6797066,79.7209647 Z" id="Combined-Shape" fill="#C7BCAC"></path>
                    <g id="mainbody" transform="translate(133.496333, 108.359621) rotate(-27.000000) translate(-133.496333, -108.359621) ">
                        <use fill="url(#linearGradient-3)" xlink:href="#path-5"></use>
                        <use fill="url(#linearGradient-4)" xlink:href="#path-5"></use>
                    </g>
                    <path d="M44.2234847,166.561514 C40.0165935,171.611572 36.8078762,178.075809 35.1173556,192.767721 C33.4268349,207.459633 36.1319908,218.611987 44.2234847,218.611987 C48.5266386,218.611987 61.2571238,204.096255 65.596183,192.767721 C69.9352421,181.439187 70.0239009,167.479481 77.4133863,159.023575 C75.0887722,158.612541 67.9593021,158.612541 56.024976,159.023575 C50.9619093,160.682162 47.0280789,163.194809 44.2234847,166.561514 Z" id="Path-2" fill="#C7BCAC"></path>
                    <path d="M133.416308,181.702237 C136.480063,181.702237 159.160667,172.669436 162.249985,165.68876 C165.339304,158.708084 161.768798,147.787684 167.029956,142.577129 C165.37488,142.323849 162.318525,143.400302 157.860892,145.806488 C153.482216,151.482624 150.664999,154.995179 149.409241,156.344153 C146.838596,159.105619 137.562715,165.949957 133.416308,171.791655 C129.59124,177.180631 130.651937,181.702237 133.416308,181.702237 Z" id="Path-2-Copy" fill="#C7BCAC" transform="translate(148.979710, 162.121592) rotate(20.000000) translate(-148.979710, -162.121592) "></path>
                    <g id="Oval" fill-opacity="1" fill="black">
                        <use filter="url(#filter-7)" xlink:href="#path-6"></use>
                    </g>
                    <path d="M197.982215,149.47764 C179.216391,148.074123 154.523227,116.89621 154.523227,90.7100332 C154.523227,63.8376107 199.257826,33.1371532 223.568502,40.9988812 C247.879178,48.8606091 256.577059,40.3614651 263.111015,44.7275975 C269.644971,49.0937299 280.084296,57.2602843 280.084296,78.5459587 C280.084296,91.1280369 278.762923,100.053696 275.531945,107.745916 C283.923842,108.678172 289.739701,110.651518 290.435285,113.441354 C291.296352,116.894905 265.786232,133.58744 242.51142,140.759362 C219.236608,147.931285 207.47894,149.668885 199.342204,149.865073 C198.794389,149.878281 198.34188,149.743155 197.982215,149.47764 Z" id="Combined-Shape" fill="url(#linearGradient-8)"></path>
                    <path d="M240.540356,108.810878 C240.461037,108.707526 240.384121,108.603694 240.309699,108.49941 C236.231855,102.785349 238.06256,88.7342893 238.06256,79.4608237 C238.06256,62.2318373 246.929245,48.2649842 257.866855,48.2649842 C268.804466,48.2649842 278.430339,65.7076305 278.713677,79.4608237 C278.997014,93.2140169 275.169828,100.586539 273.829833,107.047702 C273.828572,107.053779 273.827309,107.059852 273.826043,107.065922 C264.32163,106.351617 252.19307,106.845963 240.540356,108.810878 Z" id="Combined-Shape" fill="#E1EACD"></path>
                    <g id="eye" transform="translate(195.599022, 48.264984)">
                        <g id="Oval-5">
                            <use fill="#ACBD87" fill-rule="evenodd" xlink:href="#path-9"></use>
                            <use fill="black" fill-opacity="1" filter="url(#filter-10)" xlink:href="#path-9"></use>
                        </g>
                        <g id="eyeball" transform="translate(4.889976, 0.946372)">
                            <ellipse id="Oval-6" fill="#D7B525" cx="8.80195599" cy="8.51735016" rx="8.80195599" ry="8.51735016"></ellipse>
                            <g id="Oval-8" transform="translate(3.911980, 1.892744)">
                                <mask id="mask-12" fill="white">
                                    <use xlink:href="#path-11"></use>
                                </mask>
                                <g id="Mask">
                                    <use fill="black" fill-opacity="1" filter="url(#filter-13)" xlink:href="#path-11"></use>
                                    <use fill="#0E0E0D" fill-rule="evenodd" xlink:href="#path-11"></use>
                                </g>
                                <ellipse fill="#F9F6F1" mask="url(#mask-12)" cx="2.93398533" cy="1.89274448" rx="1.95599022" ry="1.89274448"></ellipse>
                            </g>
                        </g>
                    </g>
                </g>
                <g id="Group-Copy" opacity="0.533990205" transform="translate(194.938537, 99.833533) rotate(83.000000) translate(-194.938537, -99.833533) translate(104.473989, 17.499148)"></g>
                <path d="M263.768435,29.8541204 L263.768435,193.623649 C240.489204,193.623649 222.169978,193.623649 208.817215,193.623649 C198.175204,193.623649 193.907143,177.933139 184.069805,161.108613 C162.439058,124.114144 166.654262,29.7147498 263.768435,29.8541204 Z M263.784497,29.8541204 C360.89867,29.7147498 365.113874,124.114144 343.483127,161.108613 C333.64579,177.933139 329.377729,193.623649 318.735717,193.623649 C305.382954,193.623649 287.063728,193.623649 263.784497,193.623649 L263.784497,29.8541204 Z" id="Combined-Shape" fill="url(#radialGradient-14)" opacity="0.394647854" transform="translate(263.776466, 111.738807) rotate(84.000000) translate(-263.776466, -111.738807) "></path>
                <path d="M264.190617,61.5658542 L264.190617,28.2621543 C167.076444,28.1227837 162.86124,122.522178 184.491987,159.516647 C194.329324,176.341173 198.597385,192.031683 209.239397,192.031683 C222.59216,192.031683 240.911386,192.031683 264.190617,192.031683 L264.190617,177.46049 C263.875859,177.46685 263.55945,177.472879 263.241408,177.478577 C199.195258,178.626011 202.222849,163.144181 202.222849,132.045498 C202.222849,100.946814 215.37708,61.6076843 262.046675,61.5417018 C262.768548,61.5406812 263.483179,61.5487876 264.190617,61.5658542 Z M264.206679,177.460165 L264.206679,192.031683 C287.48591,192.031683 305.805136,192.031683 319.157899,192.031683 C329.79991,192.031683 334.067971,176.341173 343.905309,159.516647 C365.536056,122.522178 361.320852,28.1227837 264.206679,28.2621543 L264.206679,61.5662432 C309.223287,62.6610411 325.110399,100.04289 325.110399,130.656906 C325.110399,161.598533 327.265623,176.1835 264.206707,177.460164 Z" id="Combined-Shape" fill="#F1EDE7" transform="translate(264.198648, 110.146841) rotate(83.000000) translate(-264.198648, -110.146841) "></path>
                <g id="neck" transform="translate(182.052817, 120.677570) rotate(83.000000) translate(-182.052817, -120.677570) translate(106.747194, 108.847917)" fill="url(#linearGradient-1)">
                    <rect id="Rectangle" x="3.56817054" y="0" width="142.726822" height="14.9621157" rx="7.48105787"></rect>
                    <rect id="Rectangle-Copy" x="0" y="8.05652386" width="149.863163" height="14.9621157" rx="7.48105787"></rect>
                </g>
            </g>
        </g>
    </g>
</svg>