<?xml version="1.0" encoding="UTF-8" standalone="no"?>
<svg  viewBox="0 0 206 303" version="1.1" xmlns="http://www.w3.org/2000/svg" xmlns:xlink="http://www.w3.org/1999/xlink">
    <!-- Generator: Sketch 45.2 (43514) - http://www.bohemiancoding.com/sketch -->
    <title>lego_batman</title>
    <desc>Created with Sketch.</desc>
    <defs>
        <linearGradient x1="100%" y1="46.8834758%" x2="0%" y2="46.8834758%" id="linearGradient-1">
            <stop stop-color="#254877" offset="0%"></stop>
            <stop stop-color="#58BBE6" offset="5.60099618%"></stop>
            <stop stop-color="#0C1A21" offset="14.0444076%"></stop>
            <stop stop-color="#101C16" offset="91.4230089%"></stop>
            <stop stop-color="#5A7581" offset="100%"></stop>
        </linearGradient>
        <linearGradient x1="100%" y1="48.1755275%" x2="0%" y2="52.2625005%" id="linearGradient-2">
            <stop stop-color="#1C3C3A" offset="0%"></stop>
            <stop stop-color="#0E2120" offset="63.5169656%"></stop>
            <stop stop-color="#063350" offset="68.0375557%"></stop>
            <stop stop-color="#063350" offset="100%"></stop>
        </linearGradient>
        <linearGradient x1="50%" y1="0%" x2="50%" y2="130.774829%" id="linearGradient-3">
            <stop stop-color="#1C3C3A" offset="0%"></stop>
            <stop stop-color="#122726" offset="62.505329%"></stop>
            <stop stop-color="#09262C" offset="65.2508171%"></stop>
            <stop stop-color="#09262C" offset="100%"></stop>
        </linearGradient>
        <linearGradient x1="50%" y1="0%" x2="50%" y2="100%" id="linearGradient-4">
            <stop stop-color="#303C30" offset="0%"></stop>
            <stop stop-color="#0E1913" offset="32.0980912%"></stop>
            <stop stop-color="#1A2B25" offset="93.7727665%"></stop>
            <stop stop-color="#A0B2BA" offset="100%"></stop>
        </linearGradient>
        <radialGradient cx="73.8017929%" cy="121.358959%" fx="73.8017929%" fy="121.358959%" r="39.3205409%" gradientTransform="translate(0.738018,1.213590),scale(0.478537,1.000000),translate(-0.738018,-1.213590)" id="radialGradient-5">
            <stop stop-color="#FAE2BD" offset="0%"></stop>
            <stop stop-color="#E7B484" offset="100%"></stop>
        </radialGradient>
        <linearGradient x1="0%" y1="50%" x2="100%" y2="50%" id="linearGradient-6">
            <stop stop-color="#315663" offset="0%"></stop>
            <stop stop-color="#384D49" offset="39.9968538%"></stop>
            <stop stop-color="#112A28" offset="49.8298937%"></stop>
            <stop stop-color="#0C2521" offset="54.4728403%"></stop>
            <stop stop-color="#0B1716" offset="100%"></stop>
        </linearGradient>
        <linearGradient x1="0%" y1="50%" x2="100%" y2="50%" id="linearGradient-7">
            <stop stop-color="#233B3F" offset="0%"></stop>
            <stop stop-color="#515957" offset="44.6581801%"></stop>
            <stop stop-color="#212C2B" offset="52.7790043%"></stop>
            <stop stop-color="#0A1D1B" offset="100%"></stop>
        </linearGradient>
        <linearGradient x1="34.8439261%" y1="56.4097355%" x2="41.9838171%" y2="57.8322114%" id="linearGradient-8">
            <stop stop-color="#112A28" offset="0%"></stop>
            <stop stop-color="#384E4A" offset="100%"></stop>
        </linearGradient>
        <linearGradient x1="71.4692353%" y1="49.6150446%" x2="87.3407672%" y2="50%" id="linearGradient-9">
            <stop stop-color="#0E2727" offset="0%"></stop>
            <stop stop-color="#0B1F1B" offset="100%"></stop>
        </linearGradient>
        <path d="M42.1820438,33.3233712 C56.7595875,31.547895 69.1200249,25.8144297 79.2633562,16.1229754 C60.085009,7.69526318 43.6446121,2.5778851 29.9421652,0.77084118 C9.388495,-1.9397247 -1.20620283,12.3073856 1.26746756,22.314254 C3.74113794,32.3211225 20.3157283,35.9865855 42.1820438,33.3233712 Z" id="path-10"></path>
        <path d="M42.0464869,38.3315359 C56.6240306,36.5560597 68.9844681,30.8225945 79.1277993,21.1311402 C56.6062804,11.6440015 38.5466334,4.99828063 24.9488585,1.19397764 C4.55219613,-4.51247684 -1.34175969,17.3155503 1.13191069,27.3224188 C3.60558108,37.3292872 20.1801714,40.9947502 42.0464869,38.3315359 Z" id="path-12"></path>
    </defs>
    <g id="Page-1" stroke="none" stroke-width="1" fill="none" fill-rule="evenodd">
        <g id="lego_batman">
            <path d="M23.9281649,1.31370157 C26.5112268,0.437900524 28.9306463,1.85506324e-15 31.1864233,0 C33.5656572,-1.58972893e-15 35.9448911,0.487144096 38.324125,1.46143229 L38.324125,1.46143228 C40.1934314,2.22690688 41.4185314,4.04196169 41.4292821,6.06189786 L41.7858273,73.0527856 L41.7858273,73.0527856 C41.8151106,78.554782 46.2836114,82.9995634 51.7856857,82.9995634 L151.114894,82.9995634 L151.114894,82.9995634 C156.610684,82.9995634 161.076549,78.5645558 161.114654,73.0688981 L161.580563,5.8732818 L161.580563,5.8732818 C161.594232,3.9020074 162.764892,2.12275767 164.569801,1.33003295 C166.588651,0.443344318 168.700442,4.66639576e-16 170.905173,0 C172.933985,0 174.962797,0.375416414 176.991609,1.12624924 L176.991609,1.12624926 C179.320079,1.98798126 181.116478,3.88197613 181.853935,6.25273857 C190.271745,33.3141632 195.533877,52.5263325 197.640331,63.8892466 C201.424911,84.3045335 201.157723,103.9546 202.838767,122.839447 C205.978295,158.108905 206.125769,214.309694 203.281189,291.441814 L203.281189,291.441814 C203.043283,297.892749 197.744662,302.999563 191.289342,302.999563 L13.4841635,302.999563 L13.4841635,302.999563 C6.99113053,302.999563 1.67584597,297.834994 1.48912626,291.344647 C-0.606782922,218.491174 -0.490236006,162.656108 1.83876701,123.839447 C3.00745107,104.361408 1.98241348,85.015528 4.76365424,65.8018075 C6.51756682,53.6852059 11.1932625,33.9986146 18.7907411,6.74203361 L18.790741,6.74203356 C19.5007822,4.19470223 21.4237624,2.16283269 23.9281649,1.31370157 Z" id="baseshape" fill="url(#linearGradient-1)" fill-rule="nonzero"></path>
            <g id="masktop" transform="translate(12.000000, 2.000000)" fill-rule="nonzero">
                <path d="M15.5522999,3.02018237 L22.3048587,1.82855435 L22.3048587,1.82855435 C24.4803824,1.44463839 26.5552183,2.89702349 26.9391342,5.07254725 C26.9796339,5.30204556 27,5.53464417 27,5.76768859 L27,85.240634 L27,85.240634 C27,86.3996956 26.7481423,87.5449157 26.2618582,88.5970333 L2.97006304,138.990833 L2.97006304,138.990833 C2.73835203,139.49216 2.14410756,139.710727 1.64278087,139.479016 C1.29295641,139.317328 1.06717465,138.969007 1.06240729,138.583654 L0.117043696,62.1684374 L9.05560861,9.55843516 L9.05560861,9.55843516 C9.62194525,6.22512915 12.2226731,3.60776357 15.5522999,3.02018237 Z" id="Rectangle-4" fill="url(#linearGradient-2)"></path>
                <path d="M165.435256,1.25316324 L172.187815,0.0615352175 L172.187815,0.0615352175 C174.363339,-0.322380741 176.438175,1.13000435 176.822091,3.30552812 C176.86259,3.53502643 176.882956,3.76762504 176.882956,4.00066945 L176.882956,83.4053809 L176.882956,83.4053809 C176.882956,84.6082857 176.61169,85.7957053 176.089344,86.8792801 L151.900798,137.056912 L151.900798,137.056912 C151.660976,137.554409 151.06326,137.763296 150.565763,137.523473 C150.219869,137.356732 150,137.00666 150,136.622675 L150,60.4014183 L158.938565,7.79141602 L158.938565,7.79141602 C159.504902,4.45811001 162.105629,1.84074443 165.435256,1.25316324 Z" id="Rectangle-4-Copy" fill="url(#linearGradient-3)" transform="translate(163.441478, 68.811452) scale(-1, 1) translate(-163.441478, -68.811452) "></path>
                <path d="M110.842446,79.0838946 L163.660156,106.577035 L152.295309,124.870104 L152.295309,124.870104 C149.590029,129.224574 144.962039,132.019089 139.848766,132.385688 C117.548721,133.984505 100.643729,134.783914 89.1337891,134.783914 C77.8210494,134.783914 61.227661,134.011663 39.3536238,132.467162 L39.3536238,132.467162 C33.5832522,132.059722 28.4821664,128.569308 26.0122788,123.338357 L18.6679688,107.783914 L67.8502383,79.8655444 L67.8502383,79.8655444 C81.1214143,72.3321468 97.3061985,72.0378881 110.842446,79.0838946 Z" id="Polygon" fill="url(#linearGradient-4)" transform="translate(91.164062, 104.391957) scale(-1, 1) rotate(-180.000000) translate(-91.164062, -104.391957) "></path>
            </g>
            <g id="mouth" transform="translate(37.000000, 203.000000)">
                <path d="M4,20 L65,11.8125 L125,20 L117.190259,63.1405832 L117.190259,63.1405832 C116.501128,66.9473008 113.186801,69.7155059 109.31821,69.7155059 L19.6817904,69.7155059 L19.6817904,69.7155059 C15.8131991,69.7155059 12.4988717,66.9473008 11.8097415,63.1405832 L4,20 Z" id="Rectangle-5-Copy" fill="url(#radialGradient-5)" fill-rule="nonzero"></path>
                <path d="M14.0285748,69.1160103 L11.6205261,34.1465942 L11.6205262,34.1465942 C11.4765903,32.0563739 12.969952,30.2092582 15.0439573,29.9122057 C31.6680771,27.5311915 41.9838028,26.4641578 45.9911345,26.7111044 C52.4337105,27.1081198 67.7498174,33.759594 76.5124077,34.0808596 C85.274998,34.4021251 92.4357653,29.1308673 100.394435,29.2348905 C105.224292,29.2980188 111.661536,30.7095358 119.706165,33.4694417 L119.706165,33.4694417 C121.104267,33.9490945 121.944668,35.375621 121.68654,36.8309988 L116.350661,66.9157356 L119.564449,66.8535056 L126.809998,18.8164561 L84.8471962,15.1062951 L64.8271546,18.8164561 L45.9911345,15.1062951 L0.88999939,18.8164561 L8.61246675,63.9264081 L14.0285748,69.1160103 Z" id="Path-4" fill-opacity="0.960000038" fill="#434037" fill-rule="nonzero"></path>
                <path d="M9.37520302,3.45206699 L65.5365244,0 L120.899163,3.4352872 L120.899163,3.4352872 C125.308959,3.70891791 128.661984,7.50558596 128.388354,11.9153826 C128.366798,12.2627701 128.322595,12.6083806 128.256025,12.9500109 L118.260711,64.2455865 L118.260711,64.2455865 C117.528502,68.0032543 114.236737,70.7155059 110.408396,70.7155059 L18.735104,70.7155059 L18.735104,70.7155059 C14.8428825,70.7155059 11.5154908,67.9142148 10.8521441,64.0789366 L1.98305268,12.8004276 L1.98305268,12.8004276 C1.23005071,8.44678906 4.14894337,4.30703899 8.50258191,3.55403702 C8.79136823,3.50408876 9.0826811,3.47004743 9.37520302,3.45206699 Z" id="Rectangle-5" stroke="#0B0B0B" stroke-width="3"></path>
                <path d="M6.85951108,4.87816237 L66.0488281,1 L122.599106,4.90330519 L122.599106,4.90330505 C123.645977,4.97556391 124.622528,5.45631191 125.31823,6.24190727 C126.667396,7.76540331 127.413208,9.59557485 127.555664,11.7324219 C127.739216,14.485695 127.220661,17.2415543 126,20 C101.092235,18.0880043 87.425568,17.1320064 85,17.1320064 C81.361648,17.1320064 69.248401,20 64.7855275,20 C60.3226539,20 49.9167537,17.1320064 45,17.1320064 C41.7221642,17.1320064 28.0554975,18.0880043 4,20 C2.51692552,16.7343985 1.85025885,13.9785391 2,11.7324219 C2.11100255,10.0673836 2.68923949,8.40343141 3.73471082,6.74056544 L3.73471083,6.74056545 C4.41744523,5.65464776 5.57954617,4.96202737 6.85951108,4.87816237 Z" id="Rectangle-6" fill="#1B1A1A" fill-rule="nonzero"></path>
                <path d="M47.4217772,53.0434358 L55.151602,60.3664869 L55.151602,60.3664869 C55.393437,60.5955955 55.733482,60.6892347 56.0585121,60.6162253 L88.6599666,53.2931743 L88.6599666,53.2931743 C89.1988244,53.1721342 89.5375326,52.6371813 89.4164925,52.0983234 C89.3139591,51.6418552 88.9086464,51.3174859 88.4408042,51.3174859 L48.1095248,51.3174859 L48.1095248,51.3174859 C47.5572401,51.3174859 47.1095248,51.7652012 47.1095248,52.3174859 C47.1095248,52.5920769 47.2224379,52.8545865 47.4217772,53.0434358 Z" id="Path-2" fill="#DAAC79" fill-rule="nonzero"></path>
                <path d="M33,51.7399998 C33.5142126,48.7661316 34.0463633,46.8509491 34.5964523,45.9944521 C35.869848,44.0117553 36.9521038,42.5341854 37.8432197,41.5617422 C39.1592846,40.1255673 41.0130838,38.7493872 43.4046173,37.4332017 L43.4046173,37.4332017 C43.9436389,37.1365501 44.5608369,37.0128027 45.1725555,37.0787323 C52.3135261,37.84837 59.2149311,38.2331888 65.8767703,38.2331888 C72.7033992,38.2331888 79.5190747,37.8290965 86.3237966,37.0209118 L86.3237966,37.0209118 C86.6504143,36.98212 86.9811883,36.9973043 87.3028783,37.0658568 C89.0731764,37.4431093 91.3155132,38.9417378 94.0298886,41.5617422 C97.0728587,44.498917 98.5410961,47.4733233 98.4346009,50.4849611 L93.8061738,45.3749911 L86.6807094,43.7315556 C79.987104,44.5682481 73.0422121,44.9865943 65.8460335,44.9865943 C58.649855,44.9865943 51.4536765,44.5682481 44.257498,43.7315556 C42.1608184,43.8553815 40.0866795,44.6470352 38.0350813,46.1065167 C35.9834831,47.5659981 34.3051226,49.4438258 33,51.7399998 Z" id="Path-3" fill="#5E563F" fill-rule="nonzero"></path>
            </g>
            <g id="mask" transform="translate(10.000000, 101.000000)">
                <path d="M26.8489221,0.811967636 L90.3098335,26.9314636 L90.3098335,26.9314636 C91.031298,27.2284069 91.8400633,27.2326105 92.5645755,26.9431829 L157.686478,0.928335329 L157.686478,0.928335422 C161.77986,-0.706885777 166.424734,1.27712645 168.073527,5.36506099 C177.331361,28.3184724 181.979139,46.3450917 182.01686,59.4449189 C182.055144,72.740517 177.274198,89.1047562 167.674022,108.537636 L167.674022,108.537636 C166.133768,111.655451 162.755771,113.421131 159.316607,112.90606 L91.4348283,102.739661 L25.0919235,110.957308 L25.0919236,110.957308 C21.9626061,111.344925 18.897509,109.858184 17.2646587,107.160653 C6.07690745,88.6780592 0.327641056,72.6879345 0.0168595744,59.1902785 C-0.289498104,45.8847542 5.24869121,27.7102636 16.6314275,4.66680677 L16.6314276,4.66680682 C18.4942756,0.895617173 22.9592985,-0.788939192 26.8489221,0.811967636 Z" id="Rectangle-2" fill="url(#linearGradient-6)" fill-rule="nonzero"></path>
                <polygon id="Rectangle-3" fill="#0B0B0B" fill-rule="nonzero" points="76.1474609 98.0576172 110.452148 98.0576172 156.527344 113.082031 92.8325195 107.40625 29.1376953 110.900391"></polygon>
                <g id="nose" transform="translate(75.000000, 58.000000)" fill-rule="nonzero">
                    <path d="M19,0 C22.304407,0 24.1753447,6.18705197 28.503418,16.9355469 C29.9689333,20.5750612 33.0127574,27.8555026 37.6348901,38.776871 L37.6348901,38.776871 C38.0653973,39.7940914 37.5897723,40.9677065 36.5725518,41.3982137 C36.2437168,41.537383 35.8836194,41.5859786 35.5296573,41.5389535 L23.9458008,40 L14.3095703,40 L2.43114169,41.5517651 L2.4311417,41.5517651 C1.33587858,41.6948473 0.332001395,40.9229521 0.188919246,39.827689 C0.143525288,39.480208 0.190228528,39.1268989 0.324351339,38.8031479 C5.04806661,27.4008546 8.18978674,19.8204758 9.74951172,16.0620117 C13.8728674,6.12597524 15.8229335,6.41979407e-16 19,0 Z" id="Triangle" fill="url(#linearGradient-7)"></path>
                    <path d="M14.3095703,40 L2.43114169,41.5517651 L2.4311417,41.5517651 C1.33587858,41.6948473 0.332001395,40.9229521 0.188919246,39.827689 C0.143525288,39.480208 0.190228528,39.1268989 0.324351339,38.8031479 C5.04806661,27.4008546 8.18978674,19.8204758 9.74951172,16.0620117 C13.8728674,6.12597524 15.8229335,0 19,0 L19,0 L14.3095703,40 Z" id="Triangle-Copy" fill="url(#linearGradient-8)"></path>
                    <path d="M32.9444604,40 L21.0660318,41.5517651 C19.9707687,41.6948473 18.9668915,40.9229521 18.8238093,39.827689 C18.7784154,39.480208 18.8251186,39.1268989 18.9592414,38.8031479 C23.6829567,27.4008546 26.8246768,19.8204758 28.3844018,16.0620117 C32.5077575,6.12597524 34.4578236,0 37.6348901,0 L32.9444604,40 Z" id="Triangle-Copy-2" fill="url(#linearGradient-9)" transform="translate(28.220924, 20.784420) scale(-1, 1) translate(-28.220924, -20.784420) "></path>
                </g>
                <g id="righteye" transform="translate(139.000000, 50.500000) scale(-1, 1) translate(-139.000000, -50.500000) translate(98.000000, 30.000000)">
                    <g id="Oval-2">
                        <g id="Mask" transform="translate(41.010642, 20.504355) rotate(-3.000000) translate(-41.010642, -20.504355) translate(1.010642, 3.004355)" fill-rule="nonzero" fill="#000000">
                            <path d="M42.1820438,33.3233712 C56.7595875,31.547895 69.1200249,25.8144297 79.2633562,16.1229754 C60.085009,7.69526318 43.6446121,2.5778851 29.9421652,0.77084118 C9.388495,-1.9397247 -1.20620283,12.3073856 1.26746756,22.314254 C3.74113794,32.3211225 20.3157283,35.9865855 42.1820438,33.3233712 Z" id="path-11"></path>
                        </g>
                        <g id="Clipped" transform="translate(1.000000, 3.000000)">
                            <mask id="mask-11" fill="white">
                                <use xlink:href="#path-10"></use>
                            </mask>
                            <g id="path-11"></g>
                            <g id="Group" mask="url(#mask-11)">
                                <g transform="translate(38.558060, 25.978291) rotate(-12.000000) translate(-38.558060, -25.978291) translate(8.058060, 15.978291)" id="path-13-link">
                                    <g>
                                        <path d="M25.4022041,19.252014 C36.5246812,19.5895558 48.234023,18.0455487 60.5302295,14.6199926 C45.8895005,4.958971 34.9337216,0.1284601 27.6628929,0.1284601 C20.3920642,0.1284601 11.2781926,3.3535567 0.32127821,9.8037498 C5.9194183,15.7650508 14.279727,18.9144722 25.4022041,19.252014 Z" id="path-13" fill="#F0ECDF"></path>
                                    </g>
                                    <g>
                                        <path d="M25.4022041,19.252014 C36.5246812,19.5895558 48.234023,18.0455487 60.5302295,14.6199926 C45.8895005,4.958971 34.9337216,0.1284601 27.6628929,0.1284601 C20.3920642,0.1284601 11.2781926,3.3535567 0.32127821,9.8037498 C5.9194183,15.7650508 14.279727,18.9144722 25.4022041,19.252014 Z" id="path-13" fill="#FFFFFF" fill-rule="nonzero"></path>
                                    </g>
                                </g>
                            </g>
                        </g>
                    </g>
                </g>
                <g id="lefteye" transform="translate(7.000000, 25.000000)">
                    <g id="Oval-2">
                        <g id="Mask" transform="translate(41.014746, 22.992533) rotate(-3.000000) translate(-41.014746, -22.992533) translate(1.014746, 2.992533)" fill-rule="nonzero" fill="#000000">
                            <path d="M42.0464869,38.3315359 C56.6240306,36.5560597 68.9844681,30.8225945 79.1277993,21.1311402 C56.6062804,11.6440015 38.5466334,4.99828063 24.9488585,1.19397764 C4.55219613,-4.51247684 -1.34175969,17.3155503 1.13191069,27.3224188 C3.60558108,37.3292872 20.1801714,40.9947502 42.0464869,38.3315359 Z" id="path-15"></path>
                        </g>
                        <g id="Clipped" transform="translate(1.000000, 3.000000)">
                            <mask id="mask-13" fill="white">
                                <use xlink:href="#path-12"></use>
                            </mask>
                            <g id="path-15"></g>
                            <g id="Group" mask="url(#mask-13)">
                                <g transform="translate(38.558060, 30.978291) rotate(-12.000000) translate(-38.558060, -30.978291) translate(8.058060, 20.978291)" id="path-17-link">
                                    <g>
                                        <path d="M25.4022041,19.252014 C36.5246812,19.5895558 48.234023,18.0455487 60.5302295,14.6199926 C45.8895005,4.958971 34.9337216,0.1284601 27.6628929,0.1284601 C20.3920642,0.1284601 11.2781926,3.3535567 0.32127821,9.8037498 C5.9194183,15.7650508 14.279727,18.9144722 25.4022041,19.252014 Z" id="path-17" fill="#F0ECDF"></path>
                                    </g>
                                    <g>
                                        <path d="M25.4022041,19.252014 C36.5246812,19.5895558 48.234023,18.0455487 60.5302295,14.6199926 C45.8895005,4.958971 34.9337216,0.1284601 27.6628929,0.1284601 C20.3920642,0.1284601 11.2781926,3.3535567 0.32127821,9.8037498 C5.9194183,15.7650508 14.279727,18.9144722 25.4022041,19.252014 Z" id="path-17" fill="#FFFFFF" fill-rule="nonzero"></path>
                                    </g>
                                </g>
                            </g>
                        </g>
                    </g>
                </g>
            </g>
        </g>
    </g>
</svg>