
<svg  viewBox="0 0 236 212" version="1.1" xmlns="http://www.w3.org/2000/svg" xmlns:xlink="http://www.w3.org/1999/xlink">
    <!-- Generator: Sketch 45.2 (43514) - http://www.bohemiancoding.com/sketch -->
    <title>block</title>
    <desc>Created with Sketch.</desc>
    <defs>
        <linearGradient x1="17.0923913%" y1="50%" x2="36.5981658%" y2="50%" id="linearGradient-1">
            <stop stop-color="#E4CF0C" offset="0%"></stop>
            <stop stop-color="#FFE600" offset="100%"></stop>
        </linearGradient>
        <linearGradient x1="0%" y1="35.6685765%" x2="100%" y2="35.6685758%" id="linearGradient-2">
            <stop stop-color="#C7BA62" offset="0%"></stop>
            <stop stop-color="#948544" offset="100%"></stop>
        </linearGradient>
        <linearGradient x1="50%" y1="0%" x2="50%" y2="100%" id="linearGradient-3">
            <stop stop-color="#F4F9F9" offset="0%"></stop>
            <stop stop-color="#B0BCBC" offset="100%"></stop>
        </linearGradient>
        <linearGradient x1="50%" y1="0%" x2="50%" y2="100%" id="linearGradient-4">
            <stop stop-color="#C7D2D2" offset="0%"></stop>
            <stop stop-color="#CDD7D7" offset="100%"></stop>
        </linearGradient>
    </defs>
    <g id="Page-1" stroke="none" stroke-width="1" fill="none" fill-rule="evenodd">
        <g id="block">
            <ellipse id="Oval-Copy" fill="#FFE600" cx="4" cy="143.5" rx="4" ry="4.5"></ellipse>
            <path d="M0,145 L70.1000061,212 L71.0859352,43 L3.98564588,3.74659125 L3.98564588,3.74659125 C3.03223277,3.18884828 1.80719872,3.5096023 1.24945575,4.46301542 C1.07262174,4.76529779 0.978260739,5.10871434 0.975811799,5.45891272 L0,145 Z" id="Rectangle-Copy" fill="#E4CF0C"></path>
            <path d="M3,141.626008 L61.8481807,197.834106 L61.8481807,197.834106 C62.646941,198.597032 63.9129377,198.567983 64.6758635,197.769222 C65.0284783,197.400045 65.2265678,196.91 65.229546,196.399491 L66.0798943,50.6396633 L66.0798943,50.6396633 C66.0861477,49.5677579 65.5200046,48.57396 64.5947698,48.0327012 L3,12 L3,141.626008 Z" id="Rectangle-Copy-4" fill="#D4A100"></path>
            <path d="M225.631708,202.598946 L70.0859352,211.997396 L70.0859352,42.3809084 L228.9657,37.5663701 L228.9657,37.5663701 C231.725856,37.482729 234.03121,39.6524736 234.114851,42.4126304 C234.116074,42.4529775 234.116808,42.493338 234.117053,42.5337029 L235.0284,192.556404 L235.0284,192.556404 C235.060668,197.868371 230.934103,202.278563 225.631708,202.598946 Z" id="Rectangle-Copy-2" fill="#FFFD00"></path>
            <path d="M227.273058,200.766596 L82.163835,208.703095 L82.163835,208.703095 C80.5094533,208.793579 79.0949605,207.525789 79.004477,205.871407 C79.0014929,205.816846 79,205.762214 79,205.707572 L79,55.4871436 L79,55.4871436 C79,52.7846883 81.1473389,50.5712928 83.8485544,50.4894377 L226.848554,46.1561044 L226.848554,46.1561044 C229.608711,46.0724633 231.914065,48.2422079 231.997706,51.0023647 C231.999235,51.0528321 232,51.1033197 232,51.1538103 L232,195.774058 L232,195.774058 C232,198.429387 229.924424,200.621585 227.273058,200.766596 Z" id="Rectangle-Copy-3" fill="#DFA700"></path>
            <path d="M2,3 L70,43 L232,38 L147.015255,0.44860118 L147.015255,0.44860118 C146.346558,0.153130116 145.621201,0.00789164756 144.890292,0.0231189168 L2,3 Z" id="Path-2" fill="url(#linearGradient-1)"></path>
            <ellipse id="Oval" fill="#E4CF0C" cx="5" cy="7.5" rx="4" ry="4.5"></ellipse>
            <g id="dot" transform="translate(155.374757, 165.516792) rotate(-2.000000) translate(-155.374757, -165.516792) translate(140.374757, 154.516792)">
                <rect fill="url(#linearGradient-2)" x="0" y="0" width="30" height="22"></rect>
                <rect id="dot2" fill="url(#linearGradient-3)" x="2" y="1.1" width="26" height="18.7"></rect>
                <rect id="dot3" fill="url(#linearGradient-4)" x="4" y="2.2" width="23.5" height="15.0370001"></rect>
            </g>
            <g id="dot-copy" transform="translate(30.420647, 133.587624) rotate(42.000000) translate(-30.420647, -133.587624) translate(9.920647, 124.342526)">
                <polygon id="dot" fill="url(#linearGradient-2)" points="0.0993896376 0.509941993 24.2170367 0.509941993 40.2607304 18.1962165 16.1430834 18.1962165"></polygon>
                <polygon id="dot2" fill="url(#linearGradient-3)" points="2.50941746 1.39425572 23.4113782 1.39425572 37.0485179 16.4275891 16.1465571 16.4275891"></polygon>
                <polygon id="dot3" fill="url(#linearGradient-4)" points="4.91944529 2.27856944 23.8116021 2.27856944 34.7774669 14.3671381 15.88531 14.3671381"></polygon>
            </g>
            <g id="Group" transform="translate(155.865826, 107.703158) rotate(-2.000000) translate(-155.865826, -107.703158) translate(106.365826, 67.703158)">
                <path d="M98.8000031,39.8750205 L98.8000031,20.1608778 L98.8216495,20.1608778 L98.8000031,20.1381564 L98.8000031,20 L98.6683829,20 L79.7674503,0.160450518 L79.7674503,0.200012207 L20,0.200012207 L20,0.170460283 L19.9718462,0.200012207 L19.8000031,0.200012207 L19.8000031,0.380389043 L1.10860355,20 L1,20 L1,20.1139968 L0.945800781,20.1708875 L1,20.1708875 L1,40 L31,40 L31,20.2000122 L68.8000031,20.2000122 L68.8000031,39.8999939 L50.0541992,39.8999939 L50.0541992,39.8104444 L49.9688864,39.8999939 L49.8999939,39.8999939 L49.8999939,39.9723075 L31.1056146,59.7000122 L31,59.7000122 L31,79.7000122 L61,79.7000122 L61,59.8999939 L79.8999939,59.8999939 L79.8999939,59.8412944 L98.9216556,39.8750205 L98.8000031,39.8750205 Z" id="Combined-Shape" fill="#D3CFCF"></path>
                <path d="M2.5,20.5 L20.5,1.5" id="Line" stroke="#FFFFFF" stroke-width="2" stroke-linecap="square"></path>
                <path d="M21.5,1.5 L80,1.5" id="Line-Copy" stroke="#FFFFFF" stroke-width="2" stroke-linecap="square"></path>
                <path d="M32.375651,59.6858724 L50.9602865,40.3704427" id="Line-Copy-2" stroke="#FFFFFF" stroke-width="2" stroke-linecap="square"></path>
                <path d="M52,40 L73.5,40" id="Line-Copy-3" stroke="#FFFFFF" stroke-width="2" stroke-linecap="square"></path>
                <path d="M97.8120676,39.6606504 L97.8120676,20.5493158 L97.8330521,20.5493158 L97.8120676,20.5272891 L97.8120676,20.4806539 C97.7962886,20.4796461 97.7805194,20.4786389 97.7647602,20.4776325 L79.3614817,1.16045052 L79.3614817,1.19880251 L21.4215674,1.19880251 L21.4215674,1.17015421 L21.3942745,1.19880251 L21.2276859,1.19880251 L21.2276859,1.37366388 L3.11603547,20.3847355 C3.07825406,20.3876036 3.04042189,20.3904775 3.00253889,20.3933572 L3.00253889,20.5038683 L2.94999695,20.5590195 L3.00253889,20.5590195 L3.00253889,38.7818083 L30.0852155,38.7818083 L30.0852155,19.5872536 L70.729391,19.5872536 L70.729391,39.6848601 L52.5478312,39.6848601 L52.556786,39.5980488 L52.4740818,39.6848601 L52.4072958,39.6848601 L52.3991864,39.7634748 L34.1876007,58.8794444 L34.0852155,58.8794444 L34.0852155,78.2678955 L60.1678921,78.2678955 L60.1678921,59.0733112 L79.4899725,59.0733112 L79.4899725,59.0164066 L97.9300003,39.6606504 L97.8120676,39.6606504 Z" id="Combined-Shape-Copy" fill="#C7D2D2"></path>
                <polygon id="Rectangle-3" fill="#AFA7A7" points="31 60 34 59 34 78 31 80"></polygon>
                <polygon id="Rectangle-3-Copy" fill="#AFA7A7" points="1 20.1579241 3.01227679 20.1579241 3.01227679 38.8362165 1 40.0092076"></polygon>
                <polygon id="Rectangle-3-Copy-2" fill="#AFA7A7" points="68.8000031 20.3299866 70.6808894 19.8728966 70.7100067 39.0507812 68.8000031 39.0507812"></polygon>
            </g>
            <g id="Group-Copy" transform="translate(50.420470, 97.639843) rotate(40.000000) translate(-50.420470, -97.639843) translate(17.420470, 70.973176)">
                <polygon id="Combined-Shape" fill="#D3CFCF" points="31.5745322 13.4405852 31.3945908 13.3333333 7.4244751 0.106967012 -32.39782 0.133341471 -33.6452621 13.3333333 -22.2562207 26.6666667 -2.25622073 26.6666667 -13.603043 13.4666748 11.596959 13.4666748 22.8864706 26.5999959 10.389268 26.5999959 9.10371807 39.8000081 20.494752 53.1333415 40.494752 53.1333415 29.1479122 39.9333293 41.7479082 39.9333293 42.9532607 26.583347"></polygon>
                <path d="M-32.4311283,13.6666667 L-31.3194999,1" id="Line" stroke="#FFFFFF" stroke-width="2" stroke-linecap="square"></path>
                <path d="M-30.6528332,1 L8.34716681,1" id="Line-Copy" stroke="#FFFFFF" stroke-width="2" stroke-linecap="square"></path>
                <path d="M9.94230587,39.7905816 L11.2629273,26.9136285" id="Line-Copy-2" stroke="#FFFFFF" stroke-width="2" stroke-linecap="square"></path>
                <path d="M11.7437793,26.6666667 L26.0771126,26.6666667" id="Line-Copy-3" stroke="#FFFFFF" stroke-width="2" stroke-linecap="square"></path>
                <path d="M31.1385115,13.6995438 L7.72690156,0.773633678 L-30.8777295,0.799201674 L-32.0864929,13.5898237 C-32.1021889,13.5910984 -28.6131268,17.6793368 -21.6193066,25.8545389 L-3.56418884,25.8545389 L-14.5640543,13.0581691 L12.5320627,13.0581691 L24.049442,26.4565734 L11.9284022,26.4565734 L10.6881309,39.252963 L21.7308561,52.178597 L39.1193072,52.178597 L28.1194248,39.3822075 L41.0008117,39.3822075 L42.1693076,26.4404336 L31.1385115,13.6995438 Z" id="Combined-Shape-Copy" fill="#C7D2D2"></path>
                <polygon id="Rectangle-3" fill="#AFA7A7" points="9.20522297 40 10.6321508 39.3333333 21.5205223 52 20.6666667 53.3333333"></polygon>
                <polygon id="Rectangle-3-Copy" fill="#AFA7A7" points="-33.6271625 13.4386161 -32.2856447 13.4386161 -21.5816348 25.890811 -22.2509441 26.6728051"></polygon>
                <polygon id="Rectangle-3-Copy-2" fill="#AFA7A7" points="11.6714437 13.5533244 12.6634224 13.2485978 23.6731462 26.0338542 22.3998104 26.0338542"></polygon>
            </g>
        </g>
    </g>
</svg>

    