<?xml version="1.0" encoding="UTF-8" standalone="no"?>
<svg viewBox="0 0 352 580" version="1.1" xmlns="http://www.w3.org/2000/svg" xmlns:xlink="http://www.w3.org/1999/xlink">
    <!-- Generator: Sketch 45.2 (43514) - http://www.bohemiancoding.com/sketch -->
    <title>gail</title>

    <defs>
        <linearGradient x1="50%" y1="0%" x2="50%" y2="100%" id="linearGradient-1">
            <stop stop-color="#0294DE" offset="0%"></stop>
            <stop stop-color="#0161BE" offset="15.5636161%"></stop>
            <stop stop-color="#0161BE" offset="89.2633929%"></stop>
            <stop stop-color="#015BBA" offset="100%"></stop>
        </linearGradient>
        <polygon id="path-2" points="73 545 172 545 174 580 71 580"></polygon>
        <filter x="-2.4%" y="-12.9%" width="104.9%" height="117.1%" filterUnits="objectBoundingBox" id="filter-3">
            <feOffset dx="0" dy="-2" in="SourceAlpha" result="shadowOffsetOuter1"></feOffset>
            <feGaussianBlur stdDeviation="0.5" in="shadowOffsetOuter1" result="shadowBlurOuter1"></feGaussianBlur>
            <feColorMatrix values="0 0 0 0 0.0247694802   0 0 0 0 0.288831315   0 0 0 0 0.581526361  0 0 0 1 0" type="matrix" in="shadowBlurOuter1"></feColorMatrix>
        </filter>
        <polygon id="path-4" points="193 544 292 544 294 579 191 579"></polygon>
        <filter x="-2.4%" y="-12.9%" width="104.9%" height="117.1%" filterUnits="objectBoundingBox" id="filter-5">
            <feOffset dx="0" dy="-2" in="SourceAlpha" result="shadowOffsetOuter1"></feOffset>
            <feGaussianBlur stdDeviation="0.5" in="shadowOffsetOuter1" result="shadowBlurOuter1"></feGaussianBlur>
            <feColorMatrix values="0 0 0 0 0.0247694802   0 0 0 0 0.288831315   0 0 0 0 0.581526361  0 0 0 1 0" type="matrix" in="shadowBlurOuter1"></feColorMatrix>
        </filter>
        <path d="M14.9051734,23.7398106 C23.3645731,21.5558546 32.0170315,20.4638767 40.8625486,20.4638767 C49.7080658,20.4638767 59.0556074,21.5558546 68.9051734,23.7398106 L68.9051734,83.7398106 C55.1124597,85.830278 43.7078195,85.4587192 34.6912526,82.6251342 C27.8596239,85.7380887 18.162478,85.6935544 5.59981502,82.4915311 L14.9051734,23.7398106 Z" id="path-6"></path>
        <path d="M53.8067372,40.2664202 L53.8067372,40.2664202 L53.8067372,40.2664202 C55.461999,40.2664202 56.8038539,41.608275 56.8038539,43.2635369 C56.8038539,43.2644975 56.8038534,43.2654581 56.8038525,43.2664188 L56.7615453,87.2652628 L56.7615453,87.2652628 C56.7610612,87.7687885 56.6338465,88.2640927 56.3916251,88.7055302 L55.7023344,89.9617308 L55.7023344,89.9617308 C55.2041438,90.8696603 54.0642581,91.2018193 53.1563286,90.7036287 C53.0690264,90.655725 52.9856788,90.6009432 52.9070766,90.5398031 L51.964819,89.8068745 L51.964819,89.8068745 C51.2341163,89.2385025 50.8067372,88.3646212 50.8067372,87.4388928 L50.8067372,43.2664202 L50.8067372,43.2664202 C50.8067372,41.6095659 52.1498829,40.2664202 53.8067372,40.2664202 Z" id="path-7"></path>
        <path d="M39.161517,2.28725928 L50.1801444,2.31431616 C54.9609394,2.72693295 54.7723724,11.5160327 54.4561946,15.9343107 C54.1400168,20.3525887 54.1644244,26.9714398 55.0185392,32.4900043 C55.1026077,33.0331835 55.8953772,33.8479523 57.3968475,34.9343107 C58.0806697,39.3525887 52.7706881,37.9343107 45.5366715,37.9343107 L43.8993783,37.9343107 C36.6653618,37.9343107 31.3553802,39.3525887 32.0392024,34.9343107 C34.2482691,33.5834993 35.4050691,32.5703908 35.5096025,31.8949851 C36.3330201,26.5747603 35.2960331,20.3525887 34.9798553,15.9343107 C34.6636775,11.5160327 34.1166358,1.77254583 39.161517,2.28725928 Z" id="path-8"></path>
        <path d="M26.4211712,37.2661779 L31.0115967,37.3051933 C33.0033042,37.9001762 23.3307928,47.7836389 23.1990713,54.1546841 C23.0673497,60.5257292 32.6714713,72.860142 33.0273006,80.8177726 C33.0798358,81.9926485 32.0908325,88.6683247 29.0770984,88.6683247 L28.3949923,88.6683247 C25.3812582,88.6683247 23.1690884,90.7134457 23.4539728,84.3424005 C24.3742831,82.3945647 24.8562128,80.9336878 24.899762,79.9597699 C25.2428027,72.2881403 15.2168345,60.5257292 15.085113,54.1546841 C14.9533915,47.7836389 24.3194439,36.5239742 26.4211712,37.2661779 Z" id="path-9"></path>
        <path d="M170,394 L195,394 L195,474 L195,474 C195,476.761424 192.761424,479 190,479 L175,479 L175,479 C172.238576,479 170,476.761424 170,474 L170,394 Z" id="path-10"></path>
        <filter x="-24.0%" y="-7.1%" width="148.0%" height="114.1%" filterUnits="objectBoundingBox" id="filter-11">
            <feMorphology radius="1" operator="dilate" in="SourceAlpha" result="shadowSpreadOuter1"></feMorphology>
            <feOffset dx="0" dy="0" in="shadowSpreadOuter1" result="shadowOffsetOuter1"></feOffset>
            <feGaussianBlur stdDeviation="1" in="shadowOffsetOuter1" result="shadowBlurOuter1"></feGaussianBlur>
            <feColorMatrix values="0 0 0 0 0.0117647059   0 0 0 0 0.129411765   0 0 0 0 0.388235294  0 0 0 1 0" type="matrix" in="shadowBlurOuter1"></feColorMatrix>
        </filter>
        <rect id="path-12" x="78" y="382" width="211" height="28"></rect>
        <filter x="-1.9%" y="-7.1%" width="103.8%" height="128.6%" filterUnits="objectBoundingBox" id="filter-13">
            <feOffset dx="0" dy="2" in="SourceAlpha" result="shadowOffsetOuter1"></feOffset>
            <feGaussianBlur stdDeviation="1" in="shadowOffsetOuter1" result="shadowBlurOuter1"></feGaussianBlur>
            <feColorMatrix values="0 0 0 0 0.0117647059   0 0 0 0 0.129411765   0 0 0 0 0.388235294  0 0 0 1 0" type="matrix" in="shadowBlurOuter1"></feColorMatrix>
        </filter>
        <filter x="-13.1%" y="-5.0%" width="126.3%" height="110.0%" filterUnits="objectBoundingBox" id="filter-14">
            <feGaussianBlur stdDeviation="2" in="SourceGraphic"></feGaussianBlur>
        </filter>
        <filter x="-25.0%" y="-375.0%" width="150.0%" height="850.0%" filterUnits="objectBoundingBox" id="filter-15">
            <feGaussianBlur stdDeviation="5" in="SourceGraphic"></feGaussianBlur>
        </filter>
        <linearGradient x1="0%" y1="50%" x2="100%" y2="50%" id="linearGradient-16">
            <stop stop-color="#F4D85B" offset="0%"></stop>
            <stop stop-color="#FAC330" offset="44.9633495%"></stop>
            <stop stop-color="#F4D85B" offset="100%"></stop>
        </linearGradient>
        <filter x="-13.1%" y="-5.0%" width="126.3%" height="110.0%" filterUnits="objectBoundingBox" id="filter-17">
            <feGaussianBlur stdDeviation="2" in="SourceGraphic"></feGaussianBlur>
        </filter>
        <filter x="-25.0%" y="-375.0%" width="150.0%" height="850.0%" filterUnits="objectBoundingBox" id="filter-18">
            <feGaussianBlur stdDeviation="5" in="SourceGraphic"></feGaussianBlur>
        </filter>
        <linearGradient x1="0%" y1="50%" x2="100%" y2="50%" id="linearGradient-19">
            <stop stop-color="#ECBF6C" offset="0%"></stop>
            <stop stop-color="#F0C983" offset="16.5187501%"></stop>
            <stop stop-color="#F2CD8C" offset="23.0231629%"></stop>
            <stop stop-color="#E1B449" offset="29.1310103%"></stop>
            <stop stop-color="#E1B449" offset="47.9400672%"></stop>
            <stop stop-color="#E1B449" offset="73.9465997%"></stop>
            <stop stop-color="#F0CB8A" offset="80.9105835%"></stop>
            <stop stop-color="#ECBF6C" offset="88.0784093%"></stop>
            <stop stop-color="#ECBF6C" offset="100%"></stop>
        </linearGradient>
        <linearGradient x1="50%" y1="-80.7356085%" x2="50%" y2="189.946515%" id="linearGradient-20">
            <stop stop-color="#886118" offset="0%"></stop>
            <stop stop-color="#E1B449" offset="47.9400672%"></stop>
            <stop stop-color="#7B5A1C" offset="100%"></stop>
        </linearGradient>
        <path d="M34.9901403,4 L186.00986,4 L186.00986,4 C190.542774,4 194.368292,7.37115249 194.938395,11.8680726 L215.714558,175.748461 L215.714558,175.748461 C215.853479,176.844259 215.077777,177.845198 213.981978,177.984119 C213.898549,177.994696 213.814536,178 213.730439,178 L7.26956096,178 L7.26956096,178 C6.16499146,178 5.26956096,177.104569 5.26956096,176 C5.26956096,175.915903 5.27486518,175.83189 5.28544203,175.748461 L26.0616051,11.8680726 L26.0616051,11.8680726 C26.6317084,7.37115249 30.4572264,4 34.9901403,4 Z" id="path-21"></path>
        <radialGradient cx="50%" cy="50%" fx="50%" fy="50%" r="50%" gradientTransform="translate(0.500000,0.500000),scale(0.559376,1.000000),translate(-0.500000,-0.500000)" id="radialGradient-22">
            <stop stop-color="#593B15" offset="0%"></stop>
            <stop stop-color="#593B15" offset="68.5808507%"></stop>
            <stop stop-color="#352C22" offset="100%"></stop>
        </radialGradient>
        <path d="M92.7048659,27.482192 C115.421712,28.1863619 137.163248,35.8270352 157.929476,50.4042118 C159.944525,61.2764762 161.20826,69.6756927 161.720682,75.6018613 C173.819095,71.8782707 180.521671,62.2797849 181.828411,46.8064037 C185.069267,8.43074243 141.926441,0 92.7048659,0 C43.4832912,0 -4.52081937,8.43074243 0.340464893,46.8064037 C1.15815835,53.2613907 7.31242937,63.8598766 18.803278,78.6018613 C20.7388381,64.2094858 22.925536,54.8102693 25.3633717,50.4042118 C47.5408555,34.4186954 69.9880202,26.7780222 92.7048659,27.482192 Z" id="path-23"></path>
        <filter x="-3.3%" y="-3.8%" width="106.6%" height="115.3%" filterUnits="objectBoundingBox" id="filter-24">
            <feOffset dx="0" dy="3" in="SourceAlpha" result="shadowOffsetOuter1"></feOffset>
            <feGaussianBlur stdDeviation="1.5" in="shadowOffsetOuter1" result="shadowBlurOuter1"></feGaussianBlur>
            <feColorMatrix values="0 0 0 0 0   0 0 0 0 0   0 0 0 0 0  0 0 0 0.5 0" type="matrix" in="shadowBlurOuter1"></feColorMatrix>
        </filter>
        <linearGradient x1="50%" y1="0%" x2="50%" y2="100%" id="linearGradient-25">
            <stop stop-color="#FAECC6" offset="0%"></stop>
            <stop stop-color="#F3D494" offset="100%"></stop>
        </linearGradient>
        <filter x="-134.5%" y="-21.3%" width="368.9%" height="142.7%" filterUnits="objectBoundingBox" id="filter-26">
            <feGaussianBlur stdDeviation="4.48242188" in="SourceGraphic"></feGaussianBlur>
        </filter>
        <filter x="-134.5%" y="-21.3%" width="368.9%" height="142.7%" filterUnits="objectBoundingBox" id="filter-27">
            <feGaussianBlur stdDeviation="4.48242188" in="SourceGraphic"></feGaussianBlur>
        </filter>
        <rect id="path-28" x="0" y="0" width="216" height="91"></rect>
        <linearGradient x1="50%" y1="0%" x2="50%" y2="50%" id="linearGradient-30">
            <stop stop-color="#F3654A" offset="0%"></stop>
            <stop stop-color="#E23524" offset="100%"></stop>
        </linearGradient>
        <radialGradient cx="50%" cy="6.21838563%" fx="50%" fy="6.21838563%" r="31.6168983%" gradientTransform="translate(0.500000,0.062184),scale(1.000000,0.901355),rotate(90.000000),translate(-0.500000,-0.062184)" id="radialGradient-31">
            <stop stop-color="#F69887" offset="0%"></stop>
            <stop stop-color="#E23524" offset="100%"></stop>
        </radialGradient>
        <filter x="-60.0%" y="-23.7%" width="220.0%" height="147.3%" filterUnits="objectBoundingBox" id="filter-32">
            <feGaussianBlur stdDeviation="2" in="SourceGraphic"></feGaussianBlur>
        </filter>
        <filter x="-60.0%" y="-43.2%" width="220.0%" height="186.3%" filterUnits="objectBoundingBox" id="filter-33">
            <feGaussianBlur stdDeviation="2" in="SourceGraphic"></feGaussianBlur>
        </filter>
        <filter x="-60.0%" y="-23.7%" width="220.0%" height="147.3%" filterUnits="objectBoundingBox" id="filter-34">
            <feGaussianBlur stdDeviation="2" in="SourceGraphic"></feGaussianBlur>
        </filter>
        <filter x="-31.6%" y="-25.3%" width="163.2%" height="150.6%" filterUnits="objectBoundingBox" id="filter-35">
            <feGaussianBlur stdDeviation="2" in="SourceGraphic"></feGaussianBlur>
        </filter>
        <filter x="-31.6%" y="-25.3%" width="163.2%" height="150.6%" filterUnits="objectBoundingBox" id="filter-36">
            <feGaussianBlur stdDeviation="2" in="SourceGraphic"></feGaussianBlur>
        </filter>
        <linearGradient x1="50%" y1="0%" x2="50%" y2="100%" id="linearGradient-37">
            <stop stop-color="#F47865" offset="0%"></stop>
            <stop stop-color="#F9321B" offset="100%"></stop>
        </linearGradient>
        <filter x="-150.0%" y="-26.2%" width="400.0%" height="152.4%" filterUnits="objectBoundingBox" id="filter-38">
            <feGaussianBlur stdDeviation="2" in="SourceGraphic"></feGaussianBlur>
        </filter>
        <filter x="-75.0%" y="-21.6%" width="250.0%" height="143.2%" filterUnits="objectBoundingBox" id="filter-39">
            <feGaussianBlur stdDeviation="2" in="SourceGraphic"></feGaussianBlur>
        </filter>
        <filter x="-75.0%" y="-21.6%" width="250.0%" height="143.2%" filterUnits="objectBoundingBox" id="filter-40">
            <feGaussianBlur stdDeviation="2" in="SourceGraphic"></feGaussianBlur>
        </filter>
        <path d="M0,3 C30.1554041,1 61.7627611,2.96059473e-16 94.8220708,0 C127.881381,0 160.94069,1 194,3 L194,16 C159.499912,14.6666667 126.440602,14 94.8220708,14 C63.2035395,14 31.5961826,14.6666667 0,16 L0,3 Z" id="path-41"></path>
        <linearGradient x1="0%" y1="50%" x2="100%" y2="50%" id="linearGradient-43">
            <stop stop-color="#F38B81" offset="0%"></stop>
            <stop stop-color="#F62D1D" offset="100%"></stop>
        </linearGradient>
        <filter x="-16.3%" y="-46.2%" width="132.6%" height="192.3%" filterUnits="objectBoundingBox" id="filter-44">
            <feGaussianBlur stdDeviation="2" in="SourceGraphic"></feGaussianBlur>
        </filter>
        <filter x="-16.3%" y="-46.2%" width="132.6%" height="192.3%" filterUnits="objectBoundingBox" id="filter-45">
            <feGaussianBlur stdDeviation="2" in="SourceGraphic"></feGaussianBlur>
        </filter>
        <filter x="-8.6%" y="-31.6%" width="117.3%" height="163.2%" filterUnits="objectBoundingBox" id="filter-46">
            <feGaussianBlur stdDeviation="2" in="SourceGraphic"></feGaussianBlur>
        </filter>
        <rect id="path-47" x="48.5" y="0" width="20" height="22"></rect>
        <path d="M66.5,6.66113486e-16 L75.65625,6.66113486e-16 L78.5839844,3 L104.664062,3 L108.464844,6.66113486e-16 L122.863834,6.66113486e-16 L122.863834,4.4408921e-16 C123.416118,3.42634992e-16 123.863834,0.44771525 123.863834,1 L123.863834,6.98632813 L114.863834,7.82910156 L114.863834,14.3505859 L123.863834,14.8720703 L123.863834,21 L123.863834,21 C123.863834,21.5522847 123.416118,22 122.863834,22 L108.464844,22 L104.664062,19 L79.8847656,19 L75.65625,22 L66.5,22 L66.5,22 C65.9477153,22 65.5,21.5522847 65.5,21 L65.5,1 L65.5,1 C65.5,0.44771525 65.9477153,1.01454218e-16 66.5,0 Z" id="path-48"></path>
        <rect id="path-49" x="72" y="53" width="9" height="23"></rect>
        <path d="M3.17647647,70.0977739 C6.69110046,71.3915015 10.0214525,72.0383653 13.1675326,72.0383653 C16.3136127,72.0383653 19.6209741,71.3915015 23.0896167,70.0977739 C27.5649257,71.3915015 32.5681416,72.0383653 38.0992644,72.0383653 C43.6303872,72.0383653 49.969655,71.5527827 57.1170679,70.5816176 L57.1170679,81.5816176 C49.9036067,82.5527827 43.6703719,83.0383653 38.4173636,83.0383653 C33.1643553,83.0383653 28.0726283,82.3915015 23.1421826,81.0977739 C19.1294283,82.3915015 15.5196713,83.0383653 12.3129116,83.0383653 C9.10615198,83.0383653 5.41380978,82.2302202 1.23588502,80.6139301 L3.17647647,70.0977739 Z" id="path-50"></path>
    </defs>
    <g id="Page-1" stroke="none" stroke-width="1" fill="none" fill-rule="evenodd">
        <g id="gail" transform="translate(-11.000000, 0.000000)">
            <polygon id="Rectangle-11-Copy-3" fill="#0B539B" points="196 410 289 410 292 579 193 579"></polygon>
            <polygon id="Rectangle-11-Copy-2" fill="#0B539B" points="76 410 169 410 172 579 73 579"></polygon>
            <g id="Rectangle-14">
                <use fill="black" fill-opacity="1" filter="url(#filter-3)" xlink:href="#path-2"></use>
                <use fill="url(#linearGradient-1)" fill-rule="evenodd" xlink:href="#path-2"></use>
            </g>
            <g id="Rectangle-14-Copy">
                <use fill="black" fill-opacity="1" filter="url(#filter-5)" xlink:href="#path-4"></use>
                <use fill="url(#linearGradient-1)" fill-rule="evenodd" xlink:href="#path-4"></use>
            </g>
            <path d="M215.563557,439.349034 C221.92466,443.975759 233.233989,445.521079 249.491545,443.984992 C265.749101,442.448905 278.06935,439.365128 286.452293,434.733659 L300.486171,444.199629 C278.96861,454.77695 260.739044,459.957763 245.797473,459.742067 C230.483107,460.079063 217.535169,457.536285 206.953659,452.113733 L215.563557,439.349034 Z" id="Rectangle-13" fill="#3D3231" transform="translate(253.719915, 447.252652) rotate(56.000000) translate(-253.719915, -447.252652) "></path>
            <path d="M220.5,407.5 C225.356351,428.365534 233.233942,445.195442 244.132774,457.989723 C252.947233,468.337131 264.524253,476.968108 278.863834,483.882654" id="Line-2" stroke="#000000" stroke-width="5" stroke-linecap="square"></path>
            <path d="M226.811703,385.161933 C231.668054,406.027468 239.545646,422.857375 250.444477,435.651656 C259.258936,445.999064 270.835956,454.630042 285.175537,461.544588" id="Line-2-Copy" stroke="#000000" stroke-width="5" stroke-linecap="square" transform="translate(255.993620, 423.353261) rotate(6.000000) translate(-255.993620, -423.353261) "></path>
            <rect id="Rectangle-15" fill="#A2ACC5" x="77" y="494" width="92" height="22"></rect>
            <g id="beltbase-copy" transform="translate(180.024330, 448.347933) rotate(-8.000000) translate(-180.024330, -448.347933) translate(74.024330, 436.347933)">
                <polygon id="Rectangle-12" fill="#3D3231" points="5.04091883 1.4175193 211.643653 1.4175193 207.522887 23.4175193 0.920153711 23.4175193"></polygon>
                <path d="M8.54865966,0.304134495 L208.456288,1.55601996" id="Line" stroke="#000000" stroke-width="4" stroke-linecap="round"></path>
                <path d="M4.58758738,21.7474421 L206.483871,23.2788149" id="Line-Copy" stroke="#000000" stroke-width="4" stroke-linecap="round"></path>
            </g>
            <g id="tools" transform="translate(67.000000, 416.000000)">
                <g id="Rectangle-18" transform="translate(37.252494, 52.767462) rotate(-9.000000) translate(-37.252494, -52.767462) ">
                    <use fill="#3D3231" fill-rule="evenodd" xlink:href="#path-6"></use>
                    <path stroke="#000000" stroke-width="3" d="M16.2319851,24.9513309 L7.29665743,81.3667696 C18.9101386,84.1625883 27.8385658,84.0992986 34.0692786,81.2601622 L34.5924676,81.0217618 L35.1409646,81.1941348 C43.6382363,83.8645239 54.3949917,84.2902933 67.4051734,82.443909 L67.4051734,24.9483611 C58.090729,22.9579993 49.2432657,21.9638767 40.8625486,21.9638767 C32.4747014,21.9638767 24.2654105,22.9596708 16.2319849,24.9513322 Z"></path>
                </g>
                <g id="Rectangle-20" transform="translate(53.805296, 66.078585) rotate(-12.000000) translate(-53.805296, -66.078585) ">
                    <use fill="#A8B2C9" fill-rule="evenodd" xlink:href="#path-7"></use>
                    <path stroke="#000000" stroke-width="2" d="M53.8067372,39.2664202 C56.0142838,39.2664202 57.8038539,41.0559903 57.8038539,43.2635369 L57.803852,43.2673803 L57.7615449,87.2662243 C57.7608993,87.9375919 57.5912798,88.5979976 57.2683178,89.1865809 L56.5790272,90.4427815 C55.8151596,91.8348951 54.0673915,92.3441891 52.6752779,91.5803215 C52.5414188,91.5068716 52.4136233,91.4228755 52.2931038,91.3291303 L51.3508463,90.5962018 C50.376576,89.8383724 49.8067372,88.6731974 49.8067372,87.4388928 L49.8067372,43.2664202 C49.8067372,41.0572812 51.5975982,39.2664202 53.8067372,39.2664202 Z"></path>
                </g>
                <polygon id="Rectangle-19" fill="#3D3231" points="10 30.8583984 15.4208984 28.8583984 23 84 10 84"></polygon>
                <path d="M11.5,47.5 L63.5,36.5" id="Line-3" stroke="#000000" stroke-width="3" stroke-linecap="round"></path>
                <g id="Rectangle-21" transform="translate(44.718025, 20.209381) rotate(-10.000000) translate(-44.718025, -20.209381) ">
                    <use fill="#AB6331" fill-rule="evenodd" xlink:href="#path-8"></use>
                    <path stroke="#000000" stroke-width="2" d="M39.2112912,1.28739339 L50.2661319,1.31801995 C53.0011353,1.55407029 54.5537589,3.8268845 55.2133028,7.44274827 C55.6615952,9.90045298 55.6862878,12.7547156 55.4536439,16.0056895 C55.0896307,21.0924205 55.2506361,27.4515392 56.0067731,32.3370542 C56.0095661,32.3551001 56.1286695,32.539554 56.3928842,32.8111007 C56.7433138,33.1712547 57.2751255,33.6119417 57.983034,34.1241346 L58.3212339,34.3688322 L58.3850814,34.7813605 C58.7252074,36.9789659 57.8108417,38.3622871 55.8269425,38.8734807 C54.517482,39.2108909 53.4233295,39.2143901 49.4845054,39.0417591 C47.7618426,38.9662581 46.7142322,38.9343107 45.5366715,38.9343107 L43.8993783,38.9343107 C42.7218177,38.9343107 41.6742072,38.9662581 39.9515445,39.0417591 C36.0127204,39.2143901 34.9185679,39.2108909 33.6091074,38.8734807 C31.6252082,38.3622871 30.7108425,36.9789659 31.0509685,34.7813605 L31.1218957,34.3230893 L31.5175201,34.0811709 C33.4455287,32.9022223 34.4823411,31.9941972 34.5213686,31.742035 C34.7674075,30.1523403 34.8548351,28.3891474 34.8087533,26.3974586 C34.7666291,24.5768243 34.63459,22.8441821 34.3620424,20.0975843 C34.3372403,19.847642 34.3079564,19.555083 34.2546063,19.0222935 C34.212029,18.5959841 34.1810878,18.2818958 34.1519969,17.9786665 C34.0776794,17.2040189 34.0234673,16.5794817 33.982406,16.0056895 C33.7146556,12.264137 33.6851074,9.59815755 34.0721475,7.1073674 C34.667631,3.27514298 36.2764872,1.01606459 39.2112912,1.28739339 Z"></path>
                </g>
                <g id="Rectangle-21-Copy" transform="translate(24.056505, 63.106102) rotate(-10.000000) translate(-24.056505, -63.106102) ">
                    <use fill="#AB6331" fill-rule="evenodd" xlink:href="#path-9"></use>
                    <path stroke="#000000" stroke-width="2" d="M26.5379413,36.2671343 L31.1619265,36.3064349 L31.2978281,36.3470328 C32.2127797,36.6203563 32.4341061,37.4421928 32.1895367,38.314336 C32.0537156,38.7986788 31.7666523,39.379697 31.3083265,40.1493149 C30.8161337,40.9758022 28.417114,44.6012387 28.0829325,45.1254514 C27.2003817,46.509862 26.4960071,47.7060417 25.9137343,48.8386012 C24.8191649,50.9676119 24.2283094,52.7508464 24.1988576,54.1753547 C24.1481982,56.6256244 25.1696077,59.0991332 29.0128446,66.8216639 C29.3872579,67.5740031 29.6702418,68.1467498 29.9430495,68.7062075 C32.6045489,74.1642516 33.8875784,77.670732 34.0263024,80.7731017 C34.1769631,84.1424197 32.2980459,89.6683247 29.0770984,89.6683247 L28.3949923,89.6683247 C27.9598393,89.6683247 27.5591233,89.7106212 26.8820435,89.8133339 C24.9523475,90.106068 24.3615035,90.0995278 23.5463537,89.3725261 C22.6262404,88.5519114 22.3333285,87.0180984 22.4549711,84.2977297 L22.4639497,84.0969359 L22.5498136,83.9152049 C23.4178111,82.0780891 23.864602,80.7237286 23.9007603,79.9150991 C24.0194056,77.2617599 22.8491499,73.9592351 20.2910178,68.963728 C19.9506043,68.2989703 19.595579,67.6205576 19.1122792,66.70757 C15.1157196,59.1577854 14.143153,56.9722731 14.0853267,54.1753547 C13.9588883,48.0598442 22.9887811,35.6527884 26.5379413,36.2671343 Z"></path>
                </g>
                <g id="blades" transform="translate(24.000000, 15.000000) rotate(-11.000000) translate(-24.000000, -15.000000) translate(18.000000, 2.000000)" stroke="#000000" stroke-width="2">
                    <path d="M6,25 C9.3137085,25 12,27.4035594 12,16.5 C12,9.23096042 10,3.73096042 6,0 C2,4.39762708 0,9.89762708 0,16.5 C2.88484027e-16,26.4035594 2.6862915,25 6,25 Z" id="Oval-17" fill="#D8D8D8"></path>
                    <path d="M6,1.5 L6,23.5" id="Line-4" stroke-linecap="square"></path>
                </g>
                <ellipse id="Oval-16" stroke="#000000" stroke-width="3" fill="#D8D8D8" cx="26.5" cy="30" rx="8.5" ry="8"></ellipse>
                <ellipse id="Oval-16-Copy" stroke="#000000" fill="#D8D8D8" cx="26.5" cy="30.2352941" rx="4.5" ry="4.23529412"></ellipse>
            </g>
            <g id="Rectangle-11-Copy-4">
                <use fill="black" fill-opacity="1" filter="url(#filter-11)" xlink:href="#path-10"></use>
                <use fill="#0B539B" fill-rule="evenodd" xlink:href="#path-10"></use>
            </g>
            <g id="beltbase-copy-2" transform="translate(182.554951, 447.584124) rotate(-3.000000) translate(-182.554951, -447.584124) translate(169.554951, 435.084124)">
                <polygon id="Rectangle-12" fill="#3D3231" points="2.17165884 2.4175193 24.5399261 2.4175193 24.0937831 24.4175193 1.72551578 24.4175193"></polygon>
                <path d="M1.72551578,1.56594152 L25.6946943,2.45118796" id="Line" stroke="#000000" stroke-width="4" transform="translate(13.710105, 2.008565) scale(-1, 1) translate(-13.710105, -2.008565) "></path>
                <path d="M24.5399261,23.0803607 L0.373188262,23.9978823" id="Line-Copy" stroke="#000000" stroke-width="4"></path>
            </g>
            <g id="Rectangle-11">
                <use fill="black" fill-opacity="1" filter="url(#filter-13)" xlink:href="#path-12"></use>
                <use fill="#0B539B" fill-rule="evenodd" xlink:href="#path-12"></use>
            </g>
            <rect id="Rectangle-11-Copy" fill="#0B539B" x="76" y="383" width="214" height="28"></rect>
            <g id="armright" transform="translate(312.376137, 324.062523) rotate(-11.000000) translate(-312.376137, -324.062523) translate(271.376137, 210.062523)">
                <path d="M16.080893,28.0486597 L48.3910576,28.0486597 C51.3651262,28.0486597 53.7760851,30.4330442 53.7760851,33.3743317 L67.465866,88.7343228 L59.6658482,163.857289 C59.6658482,164.210421 51.5762284,175.409169 38.8692466,175.409169 C26.1622648,175.409169 12.3842963,171.533771 10.8018835,163.764003 C10.7313796,163.417823 10.6958655,163.065567 10.6958655,162.712435 L10.6958655,33.3743317 C10.6958655,30.4330442 13.1068244,28.0486597 16.080893,28.0486597 Z" id="Rectangle-8" fill="#FEDC7B"></path>
                <path d="M38.1338633,63.2256541 C53.6502678,57.1519781 53.1874625,42.527174 53.1874625,33.1354209 C53.1874625,23.7436677 36.1483292,-4.52364912 14.2368238,1.20170303 C11.4382264,9.52317578 10.0389277,20.8636139 10.0389277,35.2230174 C10.0389277,56.7621226 22.6174588,69.2993301 38.1338633,63.2256541 Z" id="Oval-7" fill="#FEDC7B"></path>
                <path d="M20.9912192,160.377077 C25.4679532,157.605835 30.0807774,155.375691 34.8296919,153.686645 C39.5786064,151.997599 44.1662397,150.955416 48.5925916,150.560098 L61.6536835,98.1749197 C44.5978245,59.4507938 33.860756,40.0887308 29.442478,40.0887308 C22.815061,40.0887308 16.0197783,66.862286 16.0197783,93.9242387 C16.0197783,111.965541 17.6769253,134.116486 20.9912192,160.377077 Z" id="Oval-12" fill="#F9D574" filter="url(#filter-14)" transform="translate(38.836731, 100.232904) rotate(-14.000000) translate(-38.836731, -100.232904) "></path>
                <ellipse id="Oval-13" fill-opacity="0.7" fill="#B67301" filter="url(#filter-15)" transform="translate(29.577589, 101.772305) rotate(-21.000000) translate(-29.577589, -101.772305) " cx="29.577589" cy="101.772305" rx="30" ry="2"></ellipse>
                <path d="M37.9843244,168.613976 C47.3731652,168.613976 57.6811049,163.966541 57.6811049,161.481259 C57.6811049,158.995978 47.3446772,151.736048 37.9558365,151.736048 C28.5669958,151.736048 18.6385644,157.175381 18.6385644,159.660662 C18.6385644,162.145944 28.5954837,168.613976 37.9843244,168.613976 Z" id="Oval-11" stroke="#FEC853" stroke-width="4" fill="#F3B608" transform="translate(38.159835, 160.175012) rotate(-16.000000) translate(-38.159835, -160.175012) "></path>
                <g id="hand" transform="translate(46.653027, 187.901205) rotate(7.000000) translate(-46.653027, -187.901205) translate(16.153027, 151.401205)">
                    <path d="M6.78911091,6.27360941 C12.1536682,4.80757673 17.0726138,4.07456039 21.5459477,4.07456039 C25.9299215,4.07456039 30.3029835,4.77858348 34.6651338,6.18662965 L34.6651338,6.18662961 C35.9040056,6.58652156 36.7435914,7.73977019 36.7435914,9.04158318 L36.7435914,20.9111161 L36.7435914,20.9111161 C36.7435914,25.3293941 33.1618694,28.9111161 28.7435914,28.9111161 L12.5799551,28.9111161 L12.5799551,28.9111161 C8.16167707,28.9111161 4.57995507,25.3293941 4.57995507,20.9111161 L4.57995507,9.16749358 L4.57995505,9.16749358 C4.57995505,7.81521486 5.48466492,6.63008998 6.78911091,6.27360941 Z" id="Rectangle-9" fill="url(#linearGradient-16)" transform="translate(20.661773, 16.492838) rotate(-19.000000) translate(-20.661773, -16.492838) "></path>
                    <path d="M27.7320381,68.4211533 L27.6788042,68.4248047 L26.1416193,72.5556641 C16.2377841,75.1191406 0,61.1314355 0,47 C0,32.0883118 11.544029,17.2695312 28.0824468,17.2695312 C44.6208647,17.2695312 59.8909091,32.0883118 59.8909091,47 C59.8909091,55.8414273 52.9946658,63.3221649 45.0480437,66.6759421 L39.7742582,51.0302025 C40.2830924,50.3878739 40.7397567,49.7063164 41.1425071,49 C42.0791086,47.3574517 43.2545455,45.9740128 43.2545455,44 C43.2545455,37.372583 37.2958625,32 29.9454545,32 C22.5950466,32 16.6363636,37.372583 16.6363636,44 C16.6363636,48.631465 19.5464002,52.6501078 23.8078211,54.6505862 C25.9761895,61.1260386 27.2665172,65.6031056 27.6788042,68.0817871 C27.6970726,68.1916178 27.7148173,68.3047399 27.7320381,68.4211533 Z" id="Combined-Shape-Copy" fill="#ECE5C2"></path>
                    <path d="M27.6123055,68.4305089 C27.4950967,68.4698236 27.374565,68.511542 27.2507102,68.5556641 C17.346875,71.1191406 1.10909091,57.1314355 1.10909091,43 C1.10909091,28.0883118 14.5161276,16 31.0545455,16 C47.5929633,16 61,28.0883118 61,43 C61,52.5009739 56.0025923,62.7421875 47.3297301,65.6679542 C47.2783785,65.6781297 47.2271091,65.6882713 47.1759219,65.6983788 L41.1496485,47.8202331 C43.1528729,45.7199011 44.3636364,42.9874374 44.3636364,40 C44.3636364,33.372583 38.4049534,28 31.0545455,28 C23.7041375,28 17.7454545,33.372583 17.7454545,40 C17.7454545,44.5275019 20.5263136,48.4693851 24.6320025,50.5128364 L27.6123055,68.4305089 Z" id="Combined-Shape" fill="#FEE035"></path>
                </g>
            </g>
            <g id="armleft" transform="translate(61.998940, 323.728668) scale(-1, 1) rotate(-11.000000) translate(-61.998940, -323.728668) translate(20.998940, 209.728668)">
                <path d="M16.080893,28.0486597 L48.3910576,28.0486597 C51.3651262,28.0486597 53.7760851,30.4330442 53.7760851,33.3743317 L67.465866,88.7343228 L59.6658482,163.857289 C59.6658482,164.210421 51.5762284,175.409169 38.8692466,175.409169 C26.1622648,175.409169 12.3842963,171.533771 10.8018835,163.764003 C10.7313796,163.417823 10.6958655,163.065567 10.6958655,162.712435 L10.6958655,33.3743317 C10.6958655,30.4330442 13.1068244,28.0486597 16.080893,28.0486597 Z" id="Rectangle-8" fill="#FEDC7B"></path>
                <path d="M38.1338633,63.2256541 C53.6502678,57.1519781 53.1874625,42.527174 53.1874625,33.1354209 C53.1874625,23.7436677 36.1483292,-4.52364912 14.2368238,1.20170303 C11.4382264,9.52317578 10.0389277,20.8636139 10.0389277,35.2230174 C10.0389277,56.7621226 22.6174588,69.2993301 38.1338633,63.2256541 Z" id="Oval-7" fill="#FEDC7B"></path>
                <path d="M20.9912192,160.377077 C25.4679532,157.605835 30.0807774,155.375691 34.8296919,153.686645 C39.5786064,151.997599 44.1662397,150.955416 48.5925916,150.560098 L61.6536835,98.1749197 C44.5978245,59.4507938 33.860756,40.0887308 29.442478,40.0887308 C22.815061,40.0887308 16.0197783,66.862286 16.0197783,93.9242387 C16.0197783,111.965541 17.6769253,134.116486 20.9912192,160.377077 Z" id="Oval-12" fill="#F9D574" filter="url(#filter-17)" transform="translate(38.836731, 100.232904) rotate(-14.000000) translate(-38.836731, -100.232904) "></path>
                <ellipse id="Oval-13" fill-opacity="0.7" fill="#B67301" filter="url(#filter-18)" transform="translate(29.577589, 101.772305) rotate(-21.000000) translate(-29.577589, -101.772305) " cx="29.577589" cy="101.772305" rx="30" ry="2"></ellipse>
                <path d="M37.9843244,168.613976 C47.3731652,168.613976 57.6811049,163.966541 57.6811049,161.481259 C57.6811049,158.995978 47.3446772,151.736048 37.9558365,151.736048 C28.5669958,151.736048 18.6385644,157.175381 18.6385644,159.660662 C18.6385644,162.145944 28.5954837,168.613976 37.9843244,168.613976 Z" id="Oval-11" stroke="#FEC853" stroke-width="4" fill="#F3B608" transform="translate(38.159835, 160.175012) rotate(-16.000000) translate(-38.159835, -160.175012) "></path>
                <g id="hand" transform="translate(46.653027, 187.901205) rotate(7.000000) translate(-46.653027, -187.901205) translate(16.153027, 151.401205)">
                    <path d="M6.78911091,6.27360941 C12.1536682,4.80757673 17.0726138,4.07456039 21.5459477,4.07456039 C25.9299215,4.07456039 30.3029835,4.77858348 34.6651338,6.18662965 L34.6651338,6.18662961 C35.9040056,6.58652156 36.7435914,7.73977019 36.7435914,9.04158318 L36.7435914,20.9111161 L36.7435914,20.9111161 C36.7435914,25.3293941 33.1618694,28.9111161 28.7435914,28.9111161 L12.5799551,28.9111161 L12.5799551,28.9111161 C8.16167707,28.9111161 4.57995507,25.3293941 4.57995507,20.9111161 L4.57995507,9.16749358 L4.57995505,9.16749358 C4.57995505,7.81521486 5.48466492,6.63008998 6.78911091,6.27360941 Z" id="Rectangle-9" fill="url(#linearGradient-16)" transform="translate(20.661773, 16.492838) rotate(-19.000000) translate(-20.661773, -16.492838) "></path>
                    <path d="M27.7320381,68.4211533 L27.6788042,68.4248047 L26.1416193,72.5556641 C16.2377841,75.1191406 0,61.1314355 0,47 C0,32.0883118 11.544029,17.2695312 28.0824468,17.2695312 C44.6208647,17.2695312 59.8909091,32.0883118 59.8909091,47 C59.8909091,55.8414273 52.9946658,63.3221649 45.0480437,66.6759421 L39.7742582,51.0302025 C40.2830924,50.3878739 40.7397567,49.7063164 41.1425071,49 C42.0791086,47.3574517 43.2545455,45.9740128 43.2545455,44 C43.2545455,37.372583 37.2958625,32 29.9454545,32 C22.5950466,32 16.6363636,37.372583 16.6363636,44 C16.6363636,48.631465 19.5464002,52.6501078 23.8078211,54.6505862 C25.9761895,61.1260386 27.2665172,65.6031056 27.6788042,68.0817871 C27.6970726,68.1916178 27.7148173,68.3047399 27.7320381,68.4211533 Z" id="Combined-Shape-Copy" fill="#ECE5C2"></path>
                    <path d="M27.6123055,68.4305089 C27.4950967,68.4698236 27.374565,68.511542 27.2507102,68.5556641 C17.346875,71.1191406 1.10909091,57.1314355 1.10909091,43 C1.10909091,28.0883118 14.5161276,16 31.0545455,16 C47.5929633,16 61,28.0883118 61,43 C61,52.5009739 56.0025923,62.7421875 47.3297301,65.6679542 C47.2783785,65.6781297 47.2271091,65.6882713 47.1759219,65.6983788 L41.1496485,47.8202331 C43.1528729,45.7199011 44.3636364,42.9874374 44.3636364,40 C44.3636364,33.372583 38.4049534,28 31.0545455,28 C23.7041375,28 17.7454545,33.372583 17.7454545,40 C17.7454545,44.5275019 20.5263136,48.4693851 24.6320025,50.5128364 L27.6123055,68.4305089 Z" id="Combined-Shape" fill="#FEE035"></path>
                </g>
            </g>
            <g id="neck" transform="translate(136.000000, 185.000000)">
                <rect id="Rectangle-4" fill="url(#linearGradient-19)" x="0" y="0" width="93" height="22"></rect>
                <rect id="Rectangle-4-Copy" fill-opacity="0.2" fill="url(#linearGradient-20)" x="0" y="0" width="93" height="22"></rect>
            </g>
            <g id="torso" transform="translate(73.000000, 205.000000)">
                <path d="M30.9231747,0 L189.076825,0 L189.076825,1.77635684e-15 C193.606361,-1.51478502e-14 197.430134,3.36626914 198.004241,7.8592747 L219.712053,177.746505 L219.712053,177.746505 C219.852055,178.842167 219.077339,179.843869 217.981678,179.98387 C217.897607,179.994613 217.812938,180 217.728183,180 L2.27181661,180 L2.27181661,180 C1.16724711,180 0.271816611,179.104569 0.271816611,178 C0.271816611,177.915245 0.27720411,177.830577 0.287946521,177.746505 L21.9957593,7.8592747 L21.9957593,7.8592747 C22.5698656,3.36626914 26.3936387,6.16113279e-15 30.9231747,5.32907052e-15 Z" id="hivizshirt" fill="#F9A659"></path>
                <g id="hivizinside">
                    <use fill="#F57E05" fill-rule="evenodd" xlink:href="#path-21"></use>
                    <path stroke="#FEB365" stroke-width="2" d="M34.9901403,5 C30.9608835,5 27.560423,7.99657999 27.0536646,11.9938423 L6.27750149,175.87423 C6.27221307,175.915945 6.26956096,175.957952 6.26956096,176 C6.26956096,176.552285 6.71727621,177 7.26956096,177 L213.730439,177 C213.772488,177 213.814494,176.997348 213.856209,176.992059 C214.404108,176.922599 214.791959,176.42213 214.722499,175.87423 L193.946335,11.9938423 C193.439577,7.99657999 190.039116,5 186.00986,5 L34.9901403,5 Z"></path>
                </g>
                <path d="M69,24 L149,24 C145.123686,39.497466 143.123686,52.1462273 143,61.9462837 C142.81447,76.6463683 148.975946,81.2113139 149,104.859365 C149.016036,120.624733 147.016036,144.338278 143,176 L76,176 C71.9991837,143.068708 69.9985959,119.355163 69.9982366,104.859365 C69.9976976,83.1156688 76.2343639,81.159287 75.9971728,61.9462837 C75.8390454,49.1376148 73.5066545,36.4888536 69,24 Z" id="tshirtedge" fill="#000000"></path>
                <path d="M76,24 L142.99992,24 C139.753511,39.497466 138.078513,52.1462273 137.974926,61.9462837 C137.819545,76.6463683 142.979775,81.2113139 142.99992,104.859365 C143.01335,120.624733 141.338352,144.338278 137.974926,176 L81.862493,176 C78.5118133,143.068708 76.8363231,119.355163 76.8360221,104.859365 C76.8355707,83.1156688 82.0587725,81.159287 81.8601252,61.9462837 C81.7276937,49.1376148 79.7743186,36.4888536 76,24 Z" id="tshirtcolor" fill="#6E7450"></path>
                <g id="collar" transform="translate(64.000000, 7.000000)">
                    <path d="M0,0 C0,20.9868205 20.1471863,38 45,38 L45,38 C69.8528137,38 90,20.9868205 90,0 L0,0 Z" id="Oval" fill="#000000"></path>
                    <path d="M5,0 C5,18.2253967 22.90861,33 45,33 L45,33 C67.09139,33 85,18.2253967 85,0 L5,0 Z" id="Oval-2" fill="#C5AA5E"></path>
                </g>
                <path d="M148,95.2965755 C147.420056,95.3489751 146.832019,95.3824152 146.236075,95.3952969 C127.893648,95.7917813 117.839024,75.6111172 119.107043,82.3952969 C121.063443,92.8624658 131.253124,101.395297 146.236075,101.395297 C146.833272,101.395297 147.421256,101.381671 148,101.354846 L148,95.2965755 Z" id="tataleft" fill="#000000"></path>
                <path d="M102,95.2965755 C101.38006,95.3489751 100.751468,95.3824152 100.114425,95.3952969 C80.5070031,95.7917813 69.7589562,75.6111172 71.114425,82.3952969 C73.2057493,92.8624658 84.0981672,101.395297 100.114425,101.395297 C100.752808,101.395297 101.381342,101.381671 102,101.354846 L102,95.2965755 Z" id="tataright" fill="#000000" transform="translate(86.500000, 91.197648) scale(-1, 1) translate(-86.500000, -91.197648) "></path>
                <polyline id="lapelleft" stroke="#000000" stroke-width="5" stroke-linecap="round" points="51.5 7.5 53.8161932 28.4706169 76.5 56.5"></polyline>
                <polyline id="lapelright" stroke="#000000" stroke-width="5" stroke-linecap="round" transform="translate(155.500000, 32.500000) scale(-1, 1) translate(-155.500000, -32.500000) " points="143 8 145.316193 28.9706169 168 57"></polyline>
                <path d="M69.5,52.5 C65.9624036,64.5774326 63.6290703,80.45519 62.5,100.133272 C61.3709297,119.811354 63.0375964,144.600264 67.5,174.5" id="buttonedge" stroke="#000000" stroke-width="5" stroke-linecap="round"></path>
                <path d="M157.5,52.5 C153.962404,64.5774326 151.62907,80.45519 150.5,100.133272 C149.37093,119.811354 151.037596,144.600264 155.5,174.5" id="buttonholeedge" stroke="#000000" stroke-width="5" stroke-linecap="round" transform="translate(153.829008, 113.500000) scale(-1, 1) translate(-153.829008, -113.500000) "></path>
                <circle id="btn1" fill="#9BA3CC" cx="71.5" cy="74.5" r="3.5"></circle>
                <circle id="btn2" fill="#9BA3CC" cx="67.5" cy="102.5" r="3.5"></circle>
                <circle id="btn3" fill="#9BA3CC" cx="68.5" cy="129.5" r="3.5"></circle>
                <circle id="btn4" fill="#9BA3CC" cx="71.5" cy="161.5" r="3.5"></circle>
                <polygon id="reflectleft" fill="#919CC9" transform="translate(39.373373, 154.963867) rotate(6.000000) translate(-39.373373, -154.963867) " points="16.7651167 145.625636 61.016345 145.708476 64.98163 164.302098 13.7651167 163.625636"></polygon>
                <polygon id="reflectright" fill="#919CC9" transform="translate(180.444083, 154.963867) scale(-1, 1) rotate(6.000000) translate(-180.444083, -154.963867) " points="157.835826 145.625636 202.087055 145.708476 206.05234 164.302098 154.835826 163.625636"></polygon>
                <path d="M19.96875,89.0566406 L8.72070312,170.097656 L20.5214349,159.642678 L20.5214349,159.642678 C22.1027391,158.241706 22.9667337,156.201502 22.8724993,154.090965 L19.96875,89.0566406 Z" id="shadowleft" fill="#663129"></path>
                <path d="M206.248047,85 L195,166.041016 L206.800732,155.586038 L206.800732,155.586038 C208.382036,154.185065 209.246031,152.144862 209.151796,150.034325 L206.248047,85 Z" id="shadowright" fill="#663129" transform="translate(202.130104, 125.520508) scale(-1, 1) translate(-202.130104, -125.520508) "></path>
                <g id="leftpocket" transform="translate(38.000000, 111.000000) scale(-1, 1) translate(-38.000000, -111.000000) translate(18.000000, 88.000000)">
                    <path d="M1,0 L36.6028429,0 L36.6028429,-4.4408921e-16 C37.1344688,-5.41747308e-16 37.5731657,0.415962486 37.6014287,0.946836602 L39.8835152,43.8120281 L39.8835152,43.8120281 C39.9422379,44.9150355 39.0956778,45.8568039 37.9926704,45.9155265 C37.9320013,45.9187565 37.8712166,45.9192203 37.8105053,45.9169165 L0.962080862,44.5186504 L0.962080862,44.5186504 C0.424937087,44.4982677 3.77418912e-15,44.0568999 -1.11022302e-16,43.5193696 L0,1 L0,1 C-6.76353751e-17,0.44771525 0.44771525,1.01453063e-16 1,0 Z" id="Rectangle-2" fill="#000000"></path>
                    <path d="M6.74419405,11.2321429 L13.877551,11.2321429 L13.6605863,18.0767458 L15.5102041,29.8767439 L15.0490274,39.848999 L6.53061224,38.9285714 L5.74462813,12.2616041 L5.74462813,12.2616041 C5.72835712,11.7095591 6.16268776,11.2488479 6.71473277,11.2325769 C6.72455054,11.2322876 6.73437203,11.2321429 6.74419405,11.2321429 Z" id="Rectangle-3" fill="#CF7228"></path>
                    <path d="M18.7755102,9.55357143 C19.2950149,8.99404762 20.3752126,8.71428571 22.0161033,8.71428571 C23.656994,8.71428571 24.7536671,8.99404762 25.3061224,9.55357143 L25.0891577,18.0767458 L25.3061224,41.2185756 L17.9591837,40.3792899 L18.7755102,9.55357143 Z" id="Rectangle-3-Copy" fill="#CF7228"></path>
                    <path d="M28.5267857,11.4718802 C29.5201611,10.9503164 30.6723286,10.7449315 31.9832882,10.8557255 C33.2942478,10.9665195 34.333832,11.3571374 35.1020408,12.0275792 L34.8850761,18.0767458 L35.1020408,41.2185756 L27.7104592,41.2185756 C27.2413593,38.3628251 27.0254526,36.2555951 27.0627392,34.8968855 C27.1000257,33.5381758 27.5880412,25.7298408 28.5267857,11.4718802 Z" id="Rectangle-3-Copy-2" fill="#CF7228"></path>
                </g>
                <g id="pocketflapleft" transform="translate(17.000000, 76.000000)">
                    <path d="M3.48308312,0 L43.5169169,0 L43.5169169,2.22044605e-16 C44.0165908,1.30256e-16 44.4395763,0.3688315 44.5076055,0.863852735 L46.8438628,17.8638527 L46.8438628,17.8638527 C46.9190549,18.4109949 46.5364637,18.9154966 45.9893215,18.9906886 C45.944204,18.996889 45.8987157,19 45.8531742,19 L1.14682581,19 L1.14682581,19 C0.594541058,19 0.146825807,18.5522847 0.146825807,18 C0.146825807,17.9544585 0.149936846,17.9089702 0.156137197,17.8638527 L2.49239451,0.863852735 L2.49239451,0.863852735 C2.56042374,0.3688315 2.98340922,-1.01843442e-15 3.48308312,-1.11022302e-15 Z" id="Rectangle" fill="#000000"></path>
                    <path d="M5.95054223,3 L38.0494578,3 L38.0494578,3 C38.5348983,3 38.9502231,3.3486366 39.034333,3.82673491 L40.7935923,13.8267349 L40.7935923,13.8267349 C40.8892839,14.3706665 40.5259137,14.8891836 39.9819821,14.9848752 C39.924776,14.9949393 39.8668017,15 39.808717,15 L4.19128297,15 L4.19128297,15 C3.63899822,15 3.19128297,14.5522847 3.19128297,14 C3.19128297,13.9419153 3.1963437,13.8839411 3.20640775,13.8267349 L4.96566701,3.82673491 L4.96566701,3.82673491 C5.04977689,3.3486366 5.46510174,3 5.95054223,3 Z" id="Rectangle-Copy" fill="#919CC9"></path>
                </g>
                <g id="rightpocket" transform="translate(160.000000, 86.000000)">
                    <path d="M1,0 L36.6017698,0 L36.6017698,2.22044605e-16 C37.1338321,-3.6562242e-15 37.5727289,0.416623086 37.600415,0.947964642 L39.8832253,44.7588981 L39.8832253,44.7588981 C39.9407019,45.8619712 39.0930786,46.8027826 37.9900055,46.8602593 C37.9134733,46.8642471 37.8367752,46.8638327 37.7602906,46.8590183 L0.937177907,44.5411349 L0.937177907,44.5411349 C0.410328816,44.5079716 -7.12508015e-16,44.0710019 -7.77156117e-16,43.5431101 L0,1 L0,1 C-6.76353751e-17,0.44771525 0.44771525,1.01453063e-16 1,0 Z" id="Rectangle-2" fill="#000000"></path>
                    <path d="M6.74419405,9.23214286 L13.877551,9.23214286 L13.6605863,16.0767458 L15.5102041,27.8767439 L15.0490274,37.848999 L6.53061224,36.9285714 L5.74462813,10.2616041 L5.74462813,10.2616041 C5.72835712,9.70955912 6.16268776,9.24884795 6.71473277,9.23257693 C6.72455054,9.23228757 6.73437203,9.23214286 6.74419405,9.23214286 Z" id="Rectangle-3" fill="#CF7228"></path>
                    <path d="M18.7755102,7.55357143 C19.2950149,6.99404762 20.3752126,6.71428571 22.0161033,6.71428571 C23.656994,6.71428571 24.7536671,6.99404762 25.3061224,7.55357143 L25.0891577,16.0767458 L25.3061224,39.2185756 L17.9591837,38.3792899 L18.7755102,7.55357143 Z" id="Rectangle-3-Copy" fill="#CF7228"></path>
                    <path d="M28.5267857,9.47188023 C29.5201611,8.95031639 30.6723286,8.74493147 31.9832882,8.85572548 C33.2942478,8.96651948 34.333832,9.35713738 35.1020408,10.0275792 L34.8850761,16.0767458 L35.1020408,39.2185756 L27.7104592,39.2185756 C27.2413593,36.3628251 27.0254526,34.2555951 27.0627392,32.8968855 C27.1000257,31.5381758 27.5880412,23.7298408 28.5267857,9.47188023 Z" id="Rectangle-3-Copy-2" fill="#CF7228"></path>
                </g>
                <g id="pocketflapright" transform="translate(179.500000, 85.500000) scale(-1, 1) translate(-179.500000, -85.500000) translate(156.000000, 76.000000)">
                    <path d="M3.48308312,0 L43.5169169,0 L43.5169169,2.22044605e-16 C44.0165908,1.30256e-16 44.4395763,0.3688315 44.5076055,0.863852735 L46.8438628,17.8638527 L46.8438628,17.8638527 C46.9190549,18.4109949 46.5364637,18.9154966 45.9893215,18.9906886 C45.944204,18.996889 45.8987157,19 45.8531742,19 L1.14682581,19 L1.14682581,19 C0.594541058,19 0.146825807,18.5522847 0.146825807,18 C0.146825807,17.9544585 0.149936846,17.9089702 0.156137197,17.8638527 L2.49239451,0.863852735 L2.49239451,0.863852735 C2.56042374,0.3688315 2.98340922,-1.01843442e-15 3.48308312,-1.11022302e-15 Z" id="Rectangle" fill="#000000"></path>
                    <path d="M5.95054223,3 L38.0494578,3 L38.0494578,3 C38.5348983,3 38.9502231,3.3486366 39.034333,3.82673491 L40.7935923,13.8267349 L40.7935923,13.8267349 C40.8892839,14.3706665 40.5259137,14.8891836 39.9819821,14.9848752 C39.924776,14.9949393 39.8668017,15 39.808717,15 L4.19128297,15 L4.19128297,15 C3.63899822,15 3.19128297,14.5522847 3.19128297,14 C3.19128297,13.9419153 3.1963437,13.8839411 3.20640775,13.8267349 L4.96566701,3.82673491 L4.96566701,3.82673491 C5.04977689,3.3486366 5.46510174,3 5.95054223,3 Z" id="Rectangle-Copy" fill="#919CC9"></path>
                </g>
            </g>
            <g id="head" transform="translate(73.000000, 0.000000)">
                <g id="face" transform="translate(19.000000, 62.000000)">
                    <g id="hairfacebase">
                        <path d="M92.7048659,101.806404 C185.677999,101.806404 178.587555,85.1820649 181.828411,46.8064037 C185.069267,8.43074243 141.926441,0 92.7048659,0 C43.4832912,0 -4.52081937,8.43074243 0.340464893,46.8064037 C5.20174915,85.1820649 -0.26826713,101.806404 92.7048659,101.806404 Z" id="Oval-3" fill="url(#radialGradient-22)"></path>
                        <path d="M32.04,27 L149.96,27 C153.848085,27 157.322355,30.581722 157.72,35 L164.38,109 C165.274701,118.941125 157.941125,127 148,127 L34,127 C24.0588745,127 16.7252987,118.941125 17.62,109 L24.28,35 C24.677645,30.581722 28.1519154,27 32.04,27 Z" id="Rectangle-5" fill="#FCD474"></path>
                        <g id="Oval-3-Copy">
                            <use fill="black" fill-opacity="1" filter="url(#filter-24)" xlink:href="#path-23"></use>
                            <use fill="#241A0E" fill-rule="evenodd" xlink:href="#path-23"></use>
                        </g>
                    </g>
                    <g id="eyeleft" transform="translate(35.000000, 44.000000)">
                        <ellipse id="pupilleft" fill="#000000" transform="translate(30.333333, 30.333333) rotate(4.000000) translate(-30.333333, -30.333333) " cx="30.3333333" cy="30.3333333" rx="8" ry="9.77777778"></ellipse>
                        <path d="M27.2859581,22.2421875 C38.552372,21.3532986 42.2622206,23.9139314 42.2622206,22.6866319 C42.2622206,21.4593325 37.5666297,17 29.2954683,17 C26.0161842,17 18.0662272,18.8732816 17.686313,19.167793 C17.4330368,19.364134 16.5908213,18.6979981 15.1596664,17.1693854 C15.6687008,19.3277833 15.8383093,20.4409504 15.6684921,20.5088868 C15.2842729,20.6625959 14.0081742,19.6778628 11.8401959,17.5546875 C13.1460179,19.7388733 13.66734,20.9113471 13.4041623,21.0721089 C12.619814,21.5512271 9,17.9672739 9,18.2426065 C9,18.6152276 12.5288538,22.8431035 13.3378222,22.9554852 C15.1933469,23.2132541 19.4401467,22.8612003 27.2859581,22.2421875 Z" id="lashesleft" fill="#000000"></path>
                        <circle id="shineleft" fill="#F1E6E6" cx="29.8888889" cy="25.4444444" r="3.11111111"></circle>
                        <path d="M28.2218823,11.3002596 C33.7433667,12.4196622 49.2218823,15.277264 49.2218823,9.62974903 C49.2218823,3.98223407 35.1476636,5.79961146 13.3058667,2.94770671 C6.60722592,2.07305864 -0.778117698,8.09333743 1.2218823,9.62974903 C3.2218823,11.1661606 5.71483758,7.41853317 12.4740143,8.15730591 C16.1676779,8.56102046 24.8898159,10.6247305 28.2218823,11.3002596 Z" id="browleft" fill="#51352F" transform="translate(25.055375, 7.941334) rotate(5.000000) translate(-25.055375, -7.941334) "></path>
                    </g>
                    <g id="eyeright" transform="translate(120.277778, 62.500000) scale(-1, 1) translate(-120.277778, -62.500000) translate(94.777778, 40.000000)">
                        <ellipse id="pupilright" fill="#000000" transform="translate(30.333333, 34.333333) rotate(4.000000) translate(-30.333333, -34.333333) " cx="30.3333333" cy="34.3333333" rx="8" ry="9.77777778"></ellipse>
                        <path d="M27.2859581,26.2421875 C38.552372,25.3532986 42.2622206,27.9139314 42.2622206,26.6866319 C42.2622206,25.4593325 37.5666297,21 29.2954683,21 C26.0161842,21 18.0662272,22.8732816 17.686313,23.167793 C17.4330368,23.364134 16.5908213,22.6979981 15.1596664,21.1693854 C15.6687008,23.3277833 15.8383093,24.4409504 15.6684921,24.5088868 C15.2842729,24.6625959 14.0081742,23.6778628 11.8401959,21.5546875 C13.1460179,23.7388733 13.66734,24.9113471 13.4041623,25.0721089 C12.619814,25.5512271 9,21.9672739 9,22.2426065 C9,22.6152276 12.5288538,26.8431035 13.3378222,26.9554852 C15.1933469,27.2132541 19.4401467,26.8612003 27.2859581,26.2421875 Z" id="lashesright" fill="#000000"></path>
                        <circle id="shineright" fill="#F1E6E6" cx="29.8888889" cy="29.4444444" r="3.11111111"></circle>
                        <path d="M28.7976172,13.745007 C34.3191015,14.8644096 49.7976172,17.7220114 49.7976172,12.0744964 C49.7976172,6.42698149 35.7233984,8.24435888 13.8816015,5.39245413 C7.18296077,4.51780606 -0.202382845,10.5380849 1.79761715,12.0744964 C3.79761715,13.610908 6.29057244,9.86328059 13.0497491,10.6020533 C16.7434127,11.0057679 25.4655508,13.0694779 28.7976172,13.745007 Z" id="browright" fill="#51352F" transform="translate(25.631110, 10.386081) rotate(13.000000) translate(-25.631110, -10.386081) "></path>
                    </g>
                    <g id="mouth" transform="translate(63.000000, 95.000000)">
                        <path d="M34.0878906,19.9899998 C49.828006,19.9899998 58,14.8345932 58,10.0651273 C58,7.40908425 41.5566406,0.228780302 38.1135106,0 C36.8983844,2.29907062 35.5565111,4.76992944 34.0878906,7.41257646 C24.780231,1.86011374 19.9366971,-0.534484975 19.557289,0.228780302 C15.9863281,7.41257646 1,7.49938335 1,10.0651273 C1,14.8345932 18.3477753,19.9899998 34.0878906,19.9899998 Z" id="Oval-8" fill="#B26040"></path>
                        <path d="M32.1591636,9.45917064 C39.4225011,9.30201661 51.0066364,7.76688977 56.3396547,7.95196944 C57.4024869,7.97148512 58.2508047,9.06566518 58.2344254,10.3957322 C58.2235329,11.2801958 57.826069,12.0831386 57.1991415,12.4863814 C56.7285075,12.7884964 56.2143734,13.017701 55.6567621,13.1742111 C48.1882101,13.7547095 37.0917287,13.854189 30.429784,13.4582996 C21.1562924,12.9221745 11.4546939,11.49702 1.32498823,9.24415371 C1.0970581,9.19454002 0.948172227,8.94954949 0.992452842,8.69680103 C1.03248329,8.46826882 1.21836916,8.30744077 1.42797485,8.3200345 L6.9909631,8.65861324 C14.9018749,8.87805153 23.266618,9.14279648 32.1591636,9.45917064 Z" id="Rectangle-7" fill="#000000"></path>
                    </g>
                    <ellipse id="reflectionright" fill="url(#linearGradient-25)" filter="url(#filter-26)" cx="142" cy="82.5" rx="5" ry="31.5"></ellipse>
                    <ellipse id="reflectionleft" fill="url(#linearGradient-25)" filter="url(#filter-27)" cx="45" cy="78.5" rx="5" ry="31.5"></ellipse>
                    <g id="frecklesright" transform="translate(133.707353, 87.613080) rotate(23.000000) translate(-133.707353, -87.613080) translate(122.707353, 78.079747)" fill="#C2723A">
                        <circle id="Oval-9" cx="2.2" cy="13.2" r="2.2"></circle>
                        <circle id="Oval-9-Copy" cx="11.3666667" cy="7.7" r="1.83333333"></circle>
                        <circle id="Oval-9-Copy-3" cx="13.5666667" cy="17.2333333" r="1.83333333"></circle>
                        <circle id="Oval-9-Copy-4" cx="20.5333333" cy="9.53333333" r="1.46666667"></circle>
                        <circle id="Oval-9-Copy-2" cx="17.6" cy="1.46666667" r="1.46666667"></circle>
                    </g>
                    <g id="frecklesright-copy" transform="translate(47.000000, 88.666667) scale(-1, 1) translate(-47.000000, -88.666667) translate(37.000000, 80.000000)" fill="#C2723A">
                        <circle id="Oval-9" cx="2" cy="12" r="2"></circle>
                        <circle id="Oval-9-Copy" cx="10.3333333" cy="7" r="1.66666667"></circle>
                        <circle id="Oval-9-Copy-3" cx="12.3333333" cy="15.6666667" r="1.66666667"></circle>
                        <circle id="Oval-9-Copy-4" cx="18.6666667" cy="8.66666667" r="1.33333333"></circle>
                        <circle id="Oval-9-Copy-2" cx="16" cy="1.33333333" r="1.33333333"></circle>
                    </g>
                    <g id="hashright" transform="translate(137.000000, 60.000000)" fill="#806F69">
                        <path d="M8.21428571,7.6643215 C12.7509104,7.6643215 16.4285714,7.52661617 16.4285714,6.57142857 C16.4285714,5.61624097 14.0394259,5.47853564 8.21428571,5.47853564 C2.38914558,5.47853564 0,5.37337588 0,6.57142857 C7.0606939e-16,7.76948127 3.67766098,7.6643215 8.21428571,7.6643215 Z" id="Oval-10"></path>
                        <path d="M10.4047619,13.140512 C14.9413866,13.140512 18.6190476,13.0028066 18.6190476,12.047619 C18.6190476,11.0924314 16.229902,10.9547261 10.4047619,10.9547261 C4.57962177,10.9547261 2.19047619,10.8495664 2.19047619,12.047619 C2.19047619,13.2456717 5.86813717,13.140512 10.4047619,13.140512 Z" id="Oval-10-Copy"></path>
                        <path d="M14.7857143,16.3309882 C19.322339,16.3309882 23,16.1932828 23,15.2380952 C23,14.2829076 20.6108544,14.1452023 14.7857143,14.1452023 C8.96057415,14.1452023 6.57142857,14.0400425 6.57142857,15.2380952 C6.57142857,16.4361479 10.2490896,16.3309882 14.7857143,16.3309882 Z" id="Oval-10-Copy-2"></path>
                        <path d="M12.5952381,8.75955959 C16.5269795,8.75955959 19.7142857,8.62185427 19.7142857,7.66666667 C19.7142857,6.71147907 17.6436929,6.57377374 12.5952381,6.57377374 C7.54678331,6.57377374 5.47619048,6.46861397 5.47619048,7.66666667 C5.47619048,8.86471936 8.66349666,8.75955959 12.5952381,8.75955959 Z" id="Oval-10-Copy-4" transform="translate(12.595238, 7.666667) rotate(-56.000000) translate(-12.595238, -7.666667) "></path>
                        <path d="M8.76190476,8.75955959 C12.9960878,8.75955959 16.4285714,8.62185427 16.4285714,7.66666667 C16.4285714,6.71147907 14.1987022,6.57377374 8.76190476,6.57377374 C3.3251073,6.57377374 1.0952381,6.46861397 1.0952381,7.66666667 C1.0952381,8.86471936 4.52772168,8.75955959 8.76190476,8.75955959 Z" id="Oval-10-Copy-3" transform="translate(8.761905, 7.666667) rotate(-52.000000) translate(-8.761905, -7.666667) "></path>
                    </g>
                    <g id="hashleft" transform="translate(35.500000, 115.500000) scale(-1, -1) translate(-35.500000, -115.500000) translate(24.000000, 107.000000)" fill="#806F69">
                        <path d="M8.21428571,5.6643215 C12.7509104,5.6643215 16.4285714,5.52661617 16.4285714,4.57142857 C16.4285714,3.61624097 14.0394259,3.47853564 8.21428571,3.47853564 C2.38914558,3.47853564 0,3.37337588 0,4.57142857 C7.0606939e-16,5.76948127 3.67766098,5.6643215 8.21428571,5.6643215 Z" id="Oval-10"></path>
                        <path d="M10.4047619,13.140512 C14.9413866,13.140512 18.6190476,13.0028066 18.6190476,12.047619 C18.6190476,11.0924314 16.229902,10.9547261 10.4047619,10.9547261 C4.57962177,10.9547261 2.19047619,10.8495664 2.19047619,12.047619 C2.19047619,13.2456717 5.86813717,13.140512 10.4047619,13.140512 Z" id="Oval-10-Copy"></path>
                        <path d="M14.7857143,16.3309882 C19.322339,16.3309882 23,16.1932828 23,15.2380952 C23,14.2829076 20.6108544,14.1452023 14.7857143,14.1452023 C8.96057415,14.1452023 6.57142857,14.0400425 6.57142857,15.2380952 C6.57142857,16.4361479 10.2490896,16.3309882 14.7857143,16.3309882 Z" id="Oval-10-Copy-2"></path>
                        <path d="M12.5952381,8.75955959 C16.5269795,8.75955959 19.7142857,8.62185427 19.7142857,7.66666667 C19.7142857,6.71147907 17.6436929,6.57377374 12.5952381,6.57377374 C7.54678331,6.57377374 5.47619048,6.46861397 5.47619048,7.66666667 C5.47619048,8.86471936 8.66349666,8.75955959 12.5952381,8.75955959 Z" id="Oval-10-Copy-4" transform="translate(12.595238, 7.666667) rotate(-56.000000) translate(-12.595238, -7.666667) "></path>
                        <path d="M6.76190476,8.75955959 C10.9960878,8.75955959 14.4285714,8.62185427 14.4285714,7.66666667 C14.4285714,6.71147907 12.1987022,6.57377374 6.76190476,6.57377374 C1.3251073,6.57377374 -0.904761905,6.46861397 -0.904761905,7.66666667 C-0.904761905,8.86471936 2.52772168,8.75955959 6.76190476,8.75955959 Z" id="Oval-10-Copy-3" transform="translate(6.761905, 7.666667) rotate(-52.000000) translate(-6.761905, -7.666667) "></path>
                    </g>
                </g>
                <g id="hardhat">
                    <g id="hattop">
                        <mask id="mask-29" fill="white">
                            <use xlink:href="#path-28"></use>
                        </mask>
                        <g id="Mask"></g>
                        <g mask="url(#mask-29)">
                            <g transform="translate(15.000000, -13.000000)">
                                <path d="M94,154.821833 C143.705627,154.821833 186.95632,140.837169 186.95632,100.78218 C186.95632,60.7271901 158.105627,11.7039103 94,11.7039103 C29.8943725,11.7039103 0.661154734,60.7271901 0.661154734,100.78218 C0.661154734,140.837169 44.2943725,154.821833 94,154.821833 Z" id="hatbg" fill="#E14F3D"></path>
                                <path d="M94,140.918949 C140.944204,140.918949 180.090329,136.004365 180.090329,100.92594 C180.090329,65.8475152 155.921488,16.6108105 94,16.6108105 C32.0785122,16.6108105 7.43408302,65.8475152 7.43408302,100.92594 C7.43408302,136.004365 47.0557963,140.918949 94,140.918949 Z" id="hatlightest" fill="#E3655B"></path>
                                <path d="M93.9567854,160.54655 C128.759921,160.54655 165,133.177681 165,99.416471 C165,65.6552607 151.454011,17.4286272 93.9567854,17.4286272 C36.4595601,17.4286272 22,65.6552607 22,99.416471 C22,133.177681 59.1536493,160.54655 93.9567854,160.54655 Z" id="Oval-5" fill="url(#linearGradient-30)"></path>
                                <path d="M93.9097035,163 C125.896308,163 160,135.631131 160,101.869921 C160,68.1087108 146.232629,19.8820773 93.9097035,19.8820773 C41.5867776,19.8820773 31,68.1087108 31,101.869921 C31,135.631131 61.9230995,163 93.9097035,163 Z" id="Oval-5-Copy" fill="url(#radialGradient-31)"></path>
                                <ellipse id="Oval-6-Copy" fill="#F5B2A6" filter="url(#filter-32)" cx="84" cy="88.1697719" rx="5" ry="12.6761589"></ellipse>
                                <ellipse id="Oval-6-Copy-5" fill-opacity="0.9" fill="#F5B2A6" filter="url(#filter-33)" cx="70" cy="51.3680203" rx="5" ry="6.95144196"></ellipse>
                                <ellipse id="Oval-6-Copy-2" fill="#F5B9AE" filter="url(#filter-34)" cx="99" cy="88.1697719" rx="5" ry="12.6761589"></ellipse>
                                <path d="M149.5,100.028114 C154.746705,100.028114 159,94.2159488 159,87.0462796 C159,82.9399378 157.604797,79.2788963 155.42684,76.9000727 C154.34367,75.7170058 153.034724,76.3172531 151.5,78.7008146 C146.716867,76.6520032 143.747994,76.4625951 142.593381,78.1325902 C140.985688,80.4579051 140,83.5947937 140,87.0462796 C140,94.2159488 144.253295,100.028114 149.5,100.028114 Z" id="Oval-6-Copy-3" fill="#F5B9AE" filter="url(#filter-35)"></path>
                                <path d="M37.5,99.2102973 C42.7467051,99.2102973 47,93.3981321 47,86.2284629 C47,82.1221211 45.6047968,78.4610796 43.4268398,76.082256 C42.3436705,74.8991891 41.0347239,75.4994364 39.5,77.8829979 C34.716867,75.8341865 31.747994,75.6447784 30.5933808,77.3147735 C28.985688,79.6400884 28,82.776977 28,86.2284629 C28,93.3981321 32.2532949,99.2102973 37.5,99.2102973 Z" id="Oval-6-Copy-4" fill="#F5B9AE" filter="url(#filter-36)" transform="translate(37.500000, 87.351955) rotate(11.000000) translate(-37.500000, -87.351955) "></path>
                                <rect id="Rectangle-6" fill="url(#linearGradient-37)" x="87" y="10.0682769" width="10" height="90.7776538" rx="5"></rect>
                                <path d="M53.8704236,0.218038504 L55.5097586,0.218038504 L55.5097586,0.218038504 C57.3769199,0.218038504 58.8905532,1.73167183 58.8905532,3.59883315 C58.8905532,4.02207375 58.8110813,4.44155112 58.6562681,4.83546164 C49.7534198,27.4881275 45.3019909,43.4529374 45.3019909,52.729895 C45.3019909,61.9515113 49.7004686,76.7350401 58.497424,97.0804813 L58.4974611,97.0804652 C59.2109147,98.7305278 58.451643,100.646536 56.8015804,101.35999 C56.3937325,101.536335 55.954098,101.627309 55.5097586,101.627309 L53.8774716,101.627309 L53.8774716,101.627309 C51.8421023,101.627309 50.0098703,100.393526 49.2444722,98.5075532 C40.4216442,76.7677355 36.0102301,60.8734169 36.0102301,50.8245972 C36.0102301,40.7770948 40.4204877,24.9452293 49.241003,3.32900082 L49.2410027,3.32900073 C50.0086738,1.44768741 51.8385135,0.218038504 53.8704236,0.218038504 Z" id="Rectangle-6-Copy" fill="url(#linearGradient-37)" transform="translate(47.450392, 50.922674) rotate(36.000000) translate(-47.450392, -50.922674) "></path>
                                <path d="M148.966501,-0.603381835 L150.844705,-0.603381835 L150.844705,-0.603381835 C152.58112,-0.603381835 153.988762,0.804260768 153.988762,2.54067592 C153.988762,3.00739936 153.884853,3.46826848 153.684575,3.8898365 C142.513147,27.404783 136.927428,43.7358432 136.927428,52.8830209 C136.927428,61.9562562 142.423206,76.4813999 153.414761,96.4584518 L153.414742,96.458462 C154.195705,97.8778546 153.678155,99.6615951 152.258763,100.442558 C151.825564,100.680908 151.339145,100.805889 150.844705,100.805889 L148.817012,100.805889 L148.817012,100.805889 C146.97854,100.805889 145.288367,99.7969595 144.415899,98.1786944 C132.885451,76.7918552 127.120227,61.4163117 127.120227,52.0520639 C127.120227,42.6738171 132.902701,26.0613951 144.46765,2.21479792 L144.46765,2.21479801 C145.303576,0.491142188 147.050839,-0.603381835 148.966501,-0.603381835 Z" id="Rectangle-6-Copy-2" fill="url(#linearGradient-37)" transform="translate(140.554494, 50.101254) scale(-1, 1) rotate(34.000000) translate(-140.554494, -50.101254) "></path>
                                <ellipse id="Oval-6" fill="#F9EFEE" filter="url(#filter-38)" cx="92" cy="58.3194623" rx="2" ry="11.4494338"></ellipse>
                                <path d="M54.6569299,50.959112 C55.8258183,50.959112 57.8131339,23.1533441 56.6442454,23.1533441 C55.4753569,23.1533441 49,30.4703815 49,36.5884417 C49,42.7065018 53.4880414,50.959112 54.6569299,50.959112 Z" id="Oval-6-Copy-6" fill="#FFFFFF" filter="url(#filter-39)" transform="translate(53.000000, 37.056228) rotate(42.000000) translate(-53.000000, -37.056228) "></path>
                                <path d="M139.65693,50.959112 C140.825818,50.959112 142.813134,23.1533441 141.644245,23.1533441 C140.475357,23.1533441 134,30.4703815 134,36.5884417 C134,42.7065018 138.488041,50.959112 139.65693,50.959112 Z" id="Oval-6-Copy-7" fill="#FFFFFF" filter="url(#filter-40)" transform="translate(138.000000, 37.056228) scale(-1, 1) rotate(42.000000) translate(-138.000000, -37.056228) "></path>
                            </g>
                        </g>
                    </g>
                    <g id="hatrim" transform="translate(11.000000, 87.000000)">
                        <mask id="mask-42" fill="white">
                            <use xlink:href="#path-41"></use>
                        </mask>
                        <use id="Mask" fill="#FF948A" xlink:href="#path-41"></use>
                        <ellipse id="Oval-4" fill="url(#linearGradient-43)" filter="url(#filter-44)" mask="url(#mask-42)" cx="31.6526316" cy="7.5" rx="18.3789474" ry="6.5"></ellipse>
                        <ellipse id="Oval-4-Copy" fill="url(#linearGradient-43)" filter="url(#filter-45)" mask="url(#mask-42)" transform="translate(160.305263, 7.500000) scale(-1, 1) translate(-160.305263, -7.500000) " cx="160.305263" cy="7.5" rx="18.3789474" ry="6.5"></ellipse>
                        <ellipse id="Oval-4-Copy-2" fill="#F62D1D" filter="url(#filter-46)" mask="url(#mask-42)" transform="translate(94.957895, 7.500000) scale(-1, 1) translate(-94.957895, -7.500000) " cx="94.9578947" cy="7.5" rx="34.7157895" ry="9.5"></ellipse>
                    </g>
                </g>
            </g>
            <g id="beltbase" transform="translate(85.000000, 389.000000)">
                <rect id="Rectangle-12" fill="#3D3231" x="0" y="2" width="193" height="15"></rect>
                <path d="M1.5,2 L192.5,2" id="Line" stroke="#000000" stroke-width="4" stroke-linecap="round"></path>
                <path d="M1.5,17 L192.5,17" id="Line-Copy" stroke="#000000" stroke-width="4" stroke-linecap="round"></path>
            </g>
            <g id="pantsdeets" transform="translate(75.000000, 387.000000)">
                <g id="Rectangle-16">
                    <use fill="#A2ACC5" fill-rule="evenodd" xlink:href="#path-47"></use>
                    <rect stroke="#000000" stroke-width="3" x="50" y="1.5" width="17" height="19"></rect>
                </g>
                <g id="Rectangle-16-Copy">
                    <use fill="#A2ACC5" fill-rule="evenodd" xlink:href="#path-48"></use>
                    <path stroke="#000000" stroke-width="3" d="M67,1.5 L67,20.5 L75.1781949,20.5 L79.4067106,17.5 L105.184722,17.5 L108.985503,20.5 L122.363834,20.5 L122.363834,16.2876722 L113.363834,15.7661878 L113.363834,6.46300161 L122.363834,5.62022817 L122.363834,1.5 L108.985503,1.5 L105.184722,4.5 L77.9519252,4.5 L75.0241909,1.5 L67,1.5 Z"></path>
                </g>
                <rect id="Rectangle-15-Copy" fill="#A2ACC5" x="121" y="106" width="92" height="22"></rect>
                <g id="Rectangle-17" transform="translate(76.500000, 64.500000) rotate(-9.000000) translate(-76.500000, -64.500000) ">
                    <use fill="#A2ACC5" fill-rule="evenodd" xlink:href="#path-49"></use>
                    <rect stroke="#000000" stroke-width="1" x="72.5" y="53.5" width="8" height="22"></rect>
                </g>
                <g id="Rectangle-22" transform="translate(29.176476, 76.568070) rotate(-14.000000) translate(-29.176476, -76.568070) ">
                    <use fill="#3D3231" fill-rule="evenodd" xlink:href="#path-50"></use>
                    <path stroke="#000000" stroke-width="2" d="M3.94786595,71.4281198 L2.3709553,79.9734726 C6.122092,81.35287 9.43777943,82.0383653 12.3129116,82.0383653 C15.4074227,82.0383653 18.9159393,81.4096436 22.8353322,80.1460161 L23.1133953,80.0563675 L23.3959863,80.1305181 C28.2429422,81.4023384 33.2493677,82.0383653 38.4173636,82.0383653 C43.4108534,82.0383653 49.3117509,81.594427 56.1170679,80.7054999 L56.1170679,71.7235038 C49.388805,72.599783 43.3834835,73.0383653 38.0992644,73.0383653 C32.6075892,73.0383653 27.617163,72.4095376 23.1290716,71.1488247 C19.6648545,72.4067631 16.3436368,73.0383653 13.1675326,73.0383653 C10.2357689,73.0383653 7.16212217,72.5002038 3.94786595,71.4281198 Z"></path>
                </g>
                <path d="M25.5,69.5 L31.5,109.5" id="Line-5" stroke="#000000" stroke-width="2" stroke-linecap="square"></path>
                <circle id="Oval-18" fill="#000000" transform="translate(9.000000, 82.000000) rotate(4.000000) translate(-9.000000, -82.000000) " cx="9" cy="82" r="3"></circle>
                <circle id="Oval-18-Copy" fill="#000000" transform="translate(33.201962, 76.201962) rotate(4.000000) translate(-33.201962, -76.201962) " cx="33.2019616" cy="76.2019616" r="3"></circle>
            </g>
        </g>
    </g>
</svg>