<?xml version="1.0" encoding="UTF-8" standalone="no"?>
<svg width="303px" height="366px" viewBox="0 0 303 366" version="1.1" xmlns="http://www.w3.org/2000/svg" xmlns:xlink="http://www.w3.org/1999/xlink">
    <!-- Generator: Sketch 45.2 (43514) - http://www.bohemiancoding.com/sketch -->
    <title>shyguy</title>
    <desc>Created with Sketch.</desc>
    <defs>
        <linearGradient x1="94.503012%" y1="50%" x2="0%" y2="50%" id="linearGradient-1">
            <stop stop-color="#A78105" offset="0%"></stop>
            <stop stop-color="#614804" offset="44.029101%"></stop>
            <stop stop-color="#6E4A02" offset="100%"></stop>
        </linearGradient>
        <radialGradient cx="81.3467801%" cy="27.1066091%" fx="81.3467801%" fy="27.1066091%" r="99.8015646%" gradientTransform="translate(0.813468,0.271066),scale(0.615154,1.000000),rotate(159.510076),translate(-0.813468,-0.271066)" id="radialGradient-2">
            <stop stop-color="#4A3581" offset="0%"></stop>
            <stop stop-color="#321A80" offset="20.0793208%"></stop>
            <stop stop-color="#1E0A60" offset="100%"></stop>
        </radialGradient>
        <radialGradient cx="79.2906117%" cy="30.9101743%" fx="79.2906117%" fy="30.9101743%" r="88.4175374%" gradientTransform="translate(0.792906,0.309102),scale(0.564418,1.000000),rotate(161.175611),translate(-0.792906,-0.309102)" id="radialGradient-3">
            <stop stop-color="#6C51AF" offset="0%"></stop>
            <stop stop-color="#321A80" offset="25.6560278%"></stop>
            <stop stop-color="#1E0A60" offset="100%"></stop>
        </radialGradient>
        <path d="M158.248047,302.224392 C204.639966,302.224392 273.496094,273.590702 273.496094,261.71658 C273.496094,258.069182 264.377285,249.90537 257.664062,246.673611 C235.820312,236.157986 180.89162,246.673611 148.75,246.673611 C118.723828,246.673611 80.975597,244.451963 59.6953125,252.474392 C48.0965064,256.847012 43,270.609759 43,274.798611 C43,286.672733 111.856128,302.224392 158.248047,302.224392 Z" id="path-4"></path>
        <filter x="-2.8%" y="-10.8%" width="105.6%" height="121.6%" filterUnits="objectBoundingBox" id="filter-5">
            <feGaussianBlur stdDeviation="4" in="SourceAlpha" result="shadowBlurInner1"></feGaussianBlur>
            <feOffset dx="0" dy="-5" in="shadowBlurInner1" result="shadowOffsetInner1"></feOffset>
            <feComposite in="shadowOffsetInner1" in2="SourceAlpha" operator="arithmetic" k2="-1" k3="1" result="shadowInnerInner1"></feComposite>
            <feColorMatrix values="0 0 0 0 0   0 0 0 0 0   0 0 0 0 0  0 0 0 0.5 0" type="matrix" in="shadowInnerInner1"></feColorMatrix>
        </filter>
        <path d="M158.181988,255.386719 C204.573907,255.386719 256.933594,259.198341 256.933594,247.324219 C256.933594,243.676821 254.154628,229.90537 247.441406,226.673611 C225.597656,216.157986 184.89162,226.673611 152.75,226.673611 C122.723828,226.673611 109.721691,218.651182 88.4414062,226.673611 C76.8426002,231.046231 56.1328125,251.197867 56.1328125,255.386719 C56.1328125,267.260841 111.790069,255.386719 158.181988,255.386719 Z" id="path-6"></path>
        <filter x="-2.0%" y="-10.3%" width="104.0%" height="120.7%" filterUnits="objectBoundingBox" id="filter-7">
            <feGaussianBlur stdDeviation="4" in="SourceAlpha" result="shadowBlurInner1"></feGaussianBlur>
            <feOffset dx="0" dy="0" in="shadowBlurInner1" result="shadowOffsetInner1"></feOffset>
            <feComposite in="shadowOffsetInner1" in2="SourceAlpha" operator="arithmetic" k2="-1" k3="1" result="shadowInnerInner1"></feComposite>
            <feColorMatrix values="0 0 0 0 0   0 0 0 0 0   0 0 0 0 0  0 0 0 0.147446784 0" type="matrix" in="shadowInnerInner1"></feColorMatrix>
        </filter>
        <linearGradient x1="0%" y1="50%" x2="100%" y2="50%" id="linearGradient-8">
            <stop stop-color="#EFB010" offset="0%"></stop>
            <stop stop-color="#C47708" offset="100%"></stop>
        </linearGradient>
        <path d="M149.482053,234.533195 L163.987765,233.02243 L163.987765,233.02243 C164.13092,233.00752 164.275267,233.008107 164.418296,233.024181 L177.558382,234.500854 L177.558382,234.500854 C180.087813,234.78511 182,236.924223 182,239.469577 L182,244.528023 L182,244.528023 C182,247.074396 180.086327,249.214024 177.555731,249.497044 L164.654971,250.939855 L164.654971,250.939855 C164.297492,250.979835 163.936743,250.981122 163.578989,250.943695 L149.47975,249.468662 L149.47975,249.468662 C146.933632,249.202293 145,247.055815 145,244.495802 L145,239.506296 L145,239.506296 C145,236.945397 146.934931,234.798477 149.482053,234.533195 Z" id="path-9"></path>
        <filter x="-4.1%" y="-8.3%" width="108.1%" height="116.7%" filterUnits="objectBoundingBox" id="filter-10">
            <feMorphology radius="2" operator="erode" in="SourceAlpha" result="shadowSpreadInner1"></feMorphology>
            <feGaussianBlur stdDeviation="0.5" in="shadowSpreadInner1" result="shadowBlurInner1"></feGaussianBlur>
            <feOffset dx="0" dy="0" in="shadowBlurInner1" result="shadowOffsetInner1"></feOffset>
            <feComposite in="shadowOffsetInner1" in2="SourceAlpha" operator="arithmetic" k2="-1" k3="1" result="shadowInnerInner1"></feComposite>
            <feColorMatrix values="0 0 0 0 0.490196078   0 0 0 0 0.396078431   0 0 0 0 0.0235294118  0 0 0 0.5 0" type="matrix" in="shadowInnerInner1"></feColorMatrix>
        </filter>
        <path d="M228.384013,224.843651 C233.382038,224.843651 277.215447,199.132964 283.6935,196.132322 C306.922341,185.372696 314.746034,150.426547 314.746034,130.129577 C314.746034,104.172194 289.040851,81.1920774 266.121034,81.1920774 C243.201217,81.1920774 278.964784,149.320984 266.121034,149.848327 C252.058534,115.531921 205.464196,224.843651 228.384013,224.843651 Z" id="path-11"></path>
        <filter x="-4.9%" y="-3.1%" width="109.7%" height="106.3%" filterUnits="objectBoundingBox" id="filter-12">
            <feGaussianBlur stdDeviation="2.5" in="SourceAlpha" result="shadowBlurInner1"></feGaussianBlur>
            <feOffset dx="1" dy="-4" in="shadowBlurInner1" result="shadowOffsetInner1"></feOffset>
            <feComposite in="shadowOffsetInner1" in2="SourceAlpha" operator="arithmetic" k2="-1" k3="1" result="shadowInnerInner1"></feComposite>
            <feColorMatrix values="0 0 0 0 0   0 0 0 0 0   0 0 0 0 0  0 0 0 0.5 0" type="matrix" in="shadowInnerInner1"></feColorMatrix>
        </filter>
        <path d="M144.132812,72.7310637 C167.05263,72.7310637 227.984375,60.5507789 227.984375,34.5933957 C221.15625,12.0273437 164.816493,0.769815629 157.332031,0.621688739 C129.867188,0.078125 78.5273438,5.76171875 72,34.5933957 C78.5234375,58.4371457 121.212995,72.7310637 144.132812,72.7310637 Z" id="path-13"></path>
        <filter x="-5.8%" y="-12.5%" width="111.5%" height="125.0%" filterUnits="objectBoundingBox" id="filter-14">
            <feMorphology radius="1" operator="erode" in="SourceAlpha" result="shadowSpreadInner1"></feMorphology>
            <feGaussianBlur stdDeviation="5" in="shadowSpreadInner1" result="shadowBlurInner1"></feGaussianBlur>
            <feOffset dx="0" dy="-7" in="shadowBlurInner1" result="shadowOffsetInner1"></feOffset>
            <feComposite in="shadowOffsetInner1" in2="SourceAlpha" operator="arithmetic" k2="-1" k3="1" result="shadowInnerInner1"></feComposite>
            <feColorMatrix values="0 0 0 0 0   0 0 0 0 0   0 0 0 0 0  0 0 0 0.241140172 0" type="matrix" in="shadowInnerInner1"></feColorMatrix>
        </filter>
        <path d="M179.996094,230.722656 C193.595523,230.722656 238.978775,237.007332 250.070312,230.722656 C254.415471,225.337284 259.593303,218.989538 262.453125,213.027344 C274.746475,187.398006 267,157.086627 267,120.5 C267,58.9202504 225.810197,9 175,9 C124.189803,9 83,58.9202504 83,120.5 C83,147.824538 55.0694072,205.789199 68.53125,225.179687 C85.4075935,249.488436 151.731704,230.722656 179.996094,230.722656 Z" id="path-15"></path>
        <filter x="-2.2%" y="-2.0%" width="104.4%" height="103.9%" filterUnits="objectBoundingBox" id="filter-16">
            <feMorphology radius="2" operator="erode" in="SourceAlpha" result="shadowSpreadInner1"></feMorphology>
            <feGaussianBlur stdDeviation="2.5" in="shadowSpreadInner1" result="shadowBlurInner1"></feGaussianBlur>
            <feOffset dx="0" dy="-2" in="shadowBlurInner1" result="shadowOffsetInner1"></feOffset>
            <feComposite in="shadowOffsetInner1" in2="SourceAlpha" operator="arithmetic" k2="-1" k3="1" result="shadowInnerInner1"></feComposite>
            <feColorMatrix values="0 0 0 0 0   0 0 0 0 0   0 0 0 0 0  0 0 0 0.20850317 0" type="matrix" in="shadowInnerInner1"></feColorMatrix>
        </filter>
        <path d="M232.976562,37.5507812 C226.148438,14.9847293 165.174253,1.18241765 157.689792,1.03429076 C139.608013,0.676429651 115.713032,0.935817646 96.5351562,10.8046875 L232.976562,37.5507812 Z" id="path-17"></path>
        <filter x="-2.9%" y="-10.9%" width="105.9%" height="121.9%" filterUnits="objectBoundingBox" id="filter-18">
            <feGaussianBlur stdDeviation="2" in="SourceAlpha" result="shadowBlurInner1"></feGaussianBlur>
            <feOffset dx="0" dy="4" in="shadowBlurInner1" result="shadowOffsetInner1"></feOffset>
            <feComposite in="shadowOffsetInner1" in2="SourceAlpha" operator="arithmetic" k2="-1" k3="1" result="shadowInnerInner1"></feComposite>
            <feColorMatrix values="0 0 0 0 0.844334609   0 0 0 0 0.067396185   0 0 0 0 0.0773996841  0 0 0 0.456550045 0" type="matrix" in="shadowInnerInner1"></feColorMatrix>
        </filter>
        <filter x="-24.3%" y="-28.7%" width="148.6%" height="157.5%" filterUnits="objectBoundingBox" id="filter-19">
            <feGaussianBlur stdDeviation="10" in="SourceGraphic"></feGaussianBlur>
        </filter>
        <linearGradient x1="50%" y1="0%" x2="50%" y2="100%" id="linearGradient-20">
            <stop stop-color="#DC6D2B" offset="0%"></stop>
            <stop stop-color="#6C3806" offset="100%"></stop>
        </linearGradient>
        <rect id="path-21" x="4" y="43" width="43" height="31" rx="5"></rect>
        <filter x="-12.8%" y="-24.2%" width="144.2%" height="161.3%" filterUnits="objectBoundingBox" id="filter-22">
            <feMorphology radius="0.5" operator="dilate" in="SourceAlpha" result="shadowSpreadOuter1"></feMorphology>
            <feOffset dx="4" dy="2" in="shadowSpreadOuter1" result="shadowOffsetOuter1"></feOffset>
            <feGaussianBlur stdDeviation="2" in="shadowOffsetOuter1" result="shadowBlurOuter1"></feGaussianBlur>
            <feComposite in="shadowBlurOuter1" in2="SourceAlpha" operator="out" result="shadowBlurOuter1"></feComposite>
            <feColorMatrix values="0 0 0 0 0   0 0 0 0 0   0 0 0 0 0  0 0 0 0.5 0" type="matrix" in="shadowBlurOuter1"></feColorMatrix>
        </filter>
        <filter x="-10.5%" y="-21.0%" width="139.5%" height="154.8%" filterUnits="objectBoundingBox" id="filter-23">
            <feMorphology radius="3" operator="erode" in="SourceAlpha" result="shadowSpreadInner1"></feMorphology>
            <feGaussianBlur stdDeviation="1.5" in="shadowSpreadInner1" result="shadowBlurInner1"></feGaussianBlur>
            <feOffset dx="0" dy="1" in="shadowBlurInner1" result="shadowOffsetInner1"></feOffset>
            <feComposite in="shadowOffsetInner1" in2="SourceAlpha" operator="arithmetic" k2="-1" k3="1" result="shadowInnerInner1"></feComposite>
            <feColorMatrix values="0 0 0 0 0.329373937   0 0 0 0 0.18485824   0 0 0 0 0.0268824964  0 0 0 0.5 0" type="matrix" in="shadowInnerInner1"></feColorMatrix>
        </filter>
        <radialGradient cx="37.7152681%" cy="22.0468429%" fx="37.7152681%" fy="22.0468429%" r="79.3972681%" gradientTransform="translate(0.377153,0.220468),scale(1.000000,0.845982),rotate(66.250188),translate(-0.377153,-0.220468)" id="radialGradient-24">
            <stop stop-color="#FFFFFF" offset="0%"></stop>
            <stop stop-color="#CAB5B5" offset="100%"></stop>
        </radialGradient>
        <path d="M96.1052906,187.712023 C130.346945,187.712023 177.689365,169.067676 182.799175,101.450528 C180.921311,26.0681062 134.901761,6.08692163 100.660106,6.08692163 C66.4184518,6.08692163 29.1476196,45.6414944 29.1476196,100.317685 C29.1476196,154.993875 61.8636361,187.712023 96.1052906,187.712023 Z" id="path-25"></path>
        <filter x="-2.6%" y="-2.2%" width="105.2%" height="104.4%" filterUnits="objectBoundingBox" id="filter-26">
            <feGaussianBlur stdDeviation="3.5" in="SourceAlpha" result="shadowBlurInner1"></feGaussianBlur>
            <feOffset dx="1" dy="0" in="shadowBlurInner1" result="shadowOffsetInner1"></feOffset>
            <feComposite in="shadowOffsetInner1" in2="SourceAlpha" operator="arithmetic" k2="-1" k3="1" result="shadowInnerInner1"></feComposite>
            <feColorMatrix values="0 0 0 0 0   0 0 0 0 0   0 0 0 0 0  0 0 0 0.5 0" type="matrix" in="shadowInnerInner1"></feColorMatrix>
        </filter>
        <linearGradient x1="50%" y1="0%" x2="50%" y2="100%" id="linearGradient-27">
            <stop stop-color="#888181" offset="0%"></stop>
            <stop stop-color="#D8D8D8" offset="100%"></stop>
        </linearGradient>
        <radialGradient cx="40.877533%" cy="31.8213782%" fx="40.877533%" fy="31.8213782%" r="68.7862186%" gradientTransform="translate(0.408775,0.318214),scale(1.000000,0.964226),rotate(82.648550),translate(-0.408775,-0.318214)" id="radialGradient-28">
            <stop stop-color="#FCA7A7" offset="0%"></stop>
            <stop stop-color="#FA5355" offset="55.5817864%"></stop>
            <stop stop-color="#F91013" offset="100%"></stop>
        </radialGradient>
        <path d="M304.181839,121.940557 C304.181839,95.9831737 280.88212,75.3060666 257.962303,75.3060666 C241.54057,75.3060666 257.166622,110.831485 261.532821,130.856752 L304.181839,121.940557 Z" id="path-29"></path>
        <filter x="-16.8%" y="-12.6%" width="126.1%" height="125.2%" filterUnits="objectBoundingBox" id="filter-30">
            <feOffset dx="-2" dy="0" in="SourceAlpha" result="shadowOffsetOuter1"></feOffset>
            <feGaussianBlur stdDeviation="2" in="shadowOffsetOuter1" result="shadowBlurOuter1"></feGaussianBlur>
            <feColorMatrix values="0 0 0 0 0.796423257   0 0 0 0 0.134921214   0 0 0 0 0.143438408  0 0 0 0.136548913 0" type="matrix" in="shadowBlurOuter1"></feColorMatrix>
        </filter>
        <path d="M46.3079431,168.395347 C69.2277602,168.395347 82.1803312,111.875277 82.1803312,85.9178939 C82.1803312,59.9605106 92.2828616,5.1729411 69.3630445,5.1729411 C46.4432274,5.1729411 30.8450343,58.4811155 27.8630445,85.7080973 C24.8810546,112.935079 23.388126,168.395347 46.3079431,168.395347 Z" id="path-31"></path>
        <filter x="-6.9%" y="-2.5%" width="113.7%" height="104.9%" filterUnits="objectBoundingBox" id="filter-32">
            <feMorphology radius="1" operator="erode" in="SourceAlpha" result="shadowSpreadInner1"></feMorphology>
            <feGaussianBlur stdDeviation="1.5" in="shadowSpreadInner1" result="shadowBlurInner1"></feGaussianBlur>
            <feOffset dx="3" dy="-4" in="shadowBlurInner1" result="shadowOffsetInner1"></feOffset>
            <feComposite in="shadowOffsetInner1" in2="SourceAlpha" operator="arithmetic" k2="-1" k3="1" result="shadowInnerInner1"></feComposite>
            <feColorMatrix values="0 0 0 0 0   0 0 0 0 0   0 0 0 0 0  0 0 0 0.195822011 0" type="matrix" in="shadowInnerInner1"></feColorMatrix>
        </filter>
        <filter x="-29.2%" y="-4.7%" width="158.3%" height="109.3%" filterUnits="objectBoundingBox" id="filter-33">
            <feGaussianBlur stdDeviation="1.55560662" in="SourceGraphic"></feGaussianBlur>
        </filter>
        <filter x="-21.9%" y="-6.1%" width="143.8%" height="112.2%" filterUnits="objectBoundingBox" id="filter-34">
            <feGaussianBlur stdDeviation="1.55560662" in="SourceGraphic"></feGaussianBlur>
        </filter>
    </defs>
    <g id="Page-1" stroke="none" stroke-width="1" fill="none" fill-rule="evenodd">
        <g id="shyguy" transform="translate(-9.000000, 0.000000)">
            <g id="rightshoe" transform="translate(227.475432, 300.890126) rotate(3.000000) translate(-227.475432, -300.890126) translate(163.475432, 254.390126)">
                <path d="M14.0387097,78 C36.0453118,77.9368025 56.7377849,77.9368025 76.116129,78 C95.4944731,76.0631975 107.645011,72.7806455 112.567742,68.1523438 C112.745155,74.9530939 112.745155,78.8305214 112.567742,79.7846264 C112.567742,79.7846264 112.567742,79.7846264 112.567742,79.7846264 L112.567742,79.7846264 C111.172021,87.2906181 104.622699,92.7343739 96.9880451,92.7343739 C82.1618825,92.734375 72.0615664,92.734375 66.6870968,92.734375 C60.0734767,92.734375 42.5240143,92.734375 14.0387097,92.734375 L14.0387097,78 Z" id="Rectangle-2" fill="url(#linearGradient-1)"></path>
                <path d="M83.6802667,1.60166896 C82.9612277,1.51020202 82.2176491,1.51569811 81.4654908,1.62990924 L81.4654908,1.62990924 L6.79901017,12.9676074 L6.79901017,12.9676074 C2.88932546,13.5612717 -7.32745051e-14,16.9224449 -6.92779167e-14,20.8769451 L-7.12046114e-14,20.8769451 L3.19744231e-14,57 C4.42540041e-14,69.1502645 9.8497355,79 22,79 L22,79 L87.1726318,79 C87.3678178,79 87.5629385,78.9928567 87.757602,78.9785845 C87.9287854,78.9660337 88.0983143,78.9481842 88.2660402,78.9252083 C88.8436265,78.9748186 89.4260989,79 90.0129032,79 C105.063553,79 129.254839,61.4023438 127.822581,30.8671875 C126.390323,0.33203125 105.063553,0.33203125 90.0129032,0.33203125 C87.8327561,0.33203125 85.7124031,0.777565703 83.6802667,1.60166896 Z" id="Combined-Shape" fill="url(#radialGradient-2)"></path>
            </g>
            <g id="leftshoe" transform="translate(85.104480, 316.509006) rotate(-15.000000) translate(-85.104480, -316.509006) translate(21.104480, 272.509006)">
                <path d="M2.14739492,67.6252435 C25.9534063,67.5557262 48.3378366,67.5557262 69.3006858,67.6252435 C90.263535,65.4947608 105.654073,56.2254252 115.4723,39.8172367 C119.78833,46.8617423 121.850385,50.9087529 121.658465,51.9582683 C121.513311,52.7520416 118.070509,59.0231943 111.330057,70.7717263 L111.330057,70.7717263 C106.694932,78.850697 98.0922897,83.833056 88.778099,83.833056 C74.4243193,83.833056 64.5318436,83.833056 59.1006718,83.833056 C51.9462773,83.833056 32.9618516,83.833056 2.14739492,83.833056 L2.14739492,67.6252435 Z" id="Rectangle-2-Copy" fill="url(#linearGradient-1)" transform="translate(61.909058, 61.825146) scale(-1, 1) rotate(4.000000) translate(-61.909058, -61.825146) "></path>
                <path d="M65.1340346,4.37443657 C64.5511767,4.25817816 63.9494468,4.20587837 63.3381136,4.22348394 L63.3381136,4.22348394 L10.0220471,5.75891481 L10.0220471,5.75891481 C5.69524484,5.88352088 2.25234081,9.42700332 2.25234081,13.7555994 L2.25234081,13.7555994 L2.25234081,52.7890643 C2.25234081,60.2001808 8.02801566,66.3273479 15.426218,66.7646688 L84.5766499,70.8522737 C85.8070735,70.9250062 87.037663,70.7124448 88.1723932,70.2311761 C88.2463497,70.1998092 88.3195892,70.1674602 88.392103,70.1341508 C91.5458615,71.0774665 94.6380783,71.5576589 97.4483141,71.5576589 C111.701509,71.5576589 138.662088,60.6665589 123.302271,24.4810964 C107.942453,-11.7043662 83.0530811,4.06619225 68.7998862,4.06619225 C67.373085,4.06619225 66.1606762,4.16823417 65.1340346,4.37443657 Z" id="Combined-Shape-Copy" fill="url(#radialGradient-3)" transform="translate(65.070962, 36.101702) scale(-1, 1) translate(-65.070962, -36.101702) "></path>
            </g>
            <g id="Oval-2">
                <use fill="#F91013" fill-rule="evenodd" xlink:href="#path-4"></use>
                <use fill="black" fill-opacity="1" filter="url(#filter-5)" xlink:href="#path-4"></use>
            </g>
            <g id="Oval-2-Copy">
                <use fill="#F91013" fill-rule="evenodd" xlink:href="#path-6"></use>
                <use fill="black" fill-opacity="1" filter="url(#filter-7)" xlink:href="#path-6"></use>
            </g>
            <path d="M78.5777258,229 L249.037631,229 L249.037631,229 C249.816452,229 250.573024,229.259764 251.187586,229.738172 L254.735426,232.5 L254.735426,232.5 C255.746974,233.287443 255.928647,234.745813 255.141203,235.757361 C254.756587,236.251439 254.188673,236.569171 253.566382,236.638431 C230.154352,239.244139 212.314866,240.808672 200.047926,241.332031 C175.797683,242.366648 151.256771,241.332031 135.770582,241.332031 C110.225846,241.332031 89.6846963,239.924483 74.1471318,237.109386 L74.1471232,237.109434 C72.7274446,236.852216 71.7850838,235.492824 72.0423012,234.073145 C72.1546854,233.452855 72.487573,232.894123 72.9795663,232.5 L76.3895066,229.768389 L76.3895066,229.768389 C77.0103902,229.271016 77.7821906,229 78.5777258,229 Z" id="Rectangle-3" fill="#0B0909"></path>
            <g id="Rectangle-4">
                <use fill="url(#linearGradient-8)" fill-rule="evenodd" xlink:href="#path-9"></use>
                <use fill="black" fill-opacity="1" filter="url(#filter-10)" xlink:href="#path-9"></use>
            </g>
            <g id="Oval-4-Copy-2" transform="translate(268.446835, 153.017864) rotate(-9.000000) translate(-268.446835, -153.017864) ">
                <use fill="#F91013" fill-rule="evenodd" xlink:href="#path-11"></use>
                <use fill="black" fill-opacity="1" filter="url(#filter-12)" xlink:href="#path-11"></use>
            </g>
            <g id="Oval-4-Copy">
                <use fill="#F91013" fill-rule="evenodd" xlink:href="#path-13"></use>
                <use fill="black" fill-opacity="1" filter="url(#filter-14)" xlink:href="#path-13"></use>
            </g>
            <g id="Oval-3">
                <use fill="#F91013" fill-rule="evenodd" xlink:href="#path-15"></use>
                <use fill="black" fill-opacity="1" filter="url(#filter-16)" xlink:href="#path-15"></use>
            </g>
            <g id="Oval-4-Copy-6">
                <use fill="#F91013" fill-rule="evenodd" xlink:href="#path-17"></use>
                <use fill="black" fill-opacity="1" filter="url(#filter-18)" xlink:href="#path-17"></use>
            </g>
            <path d="M207,235 C222.558641,235 241.10521,228.341827 251.390625,219.210938 C261.915976,209.867044 264,197.885296 264,183.5 C264,173.232986 257.121155,147.872227 251.390625,139.839844 C241.245893,125.620152 227.116739,132 207,132 C175.519769,132 150,155.057335 150,183.5 C150,196.361722 134.582798,192.595867 143.210937,201.621094 C153.663235,212.554431 189.755073,235 207,235 Z" id="Oval-8" fill-opacity="0.711390399" fill="#8F1A1A" filter="url(#filter-19)"></path>
            <g id="mask" transform="translate(81.000000, 24.000000)">
                <g id="Rectangle-5" transform="translate(25.500000, 58.500000) rotate(18.000000) translate(-25.500000, -58.500000) ">
                    <use fill="black" fill-opacity="1" filter="url(#filter-22)" xlink:href="#path-21"></use>
                    <use fill="url(#linearGradient-20)" fill-rule="evenodd" xlink:href="#path-21"></use>
                    <use fill="black" fill-opacity="1" filter="url(#filter-23)" xlink:href="#path-21"></use>
                    <rect stroke-opacity="0.455785779" stroke="#3B2711" stroke-width="1" x="4.5" y="43.5" width="42" height="30" rx="5"></rect>
                </g>
                <g id="Oval-5" transform="translate(105.973397, 96.899472) rotate(4.000000) translate(-105.973397, -96.899472) ">
                    <use fill="url(#radialGradient-24)" fill-rule="evenodd" xlink:href="#path-25"></use>
                    <use fill="black" fill-opacity="1" filter="url(#filter-26)" xlink:href="#path-25"></use>
                </g>
                <g id="mouth" transform="translate(100.000000, 161.500000) rotate(9.000000) translate(-100.000000, -161.500000) translate(92.000000, 150.000000)">
                    <ellipse id="Oval-7" fill="url(#linearGradient-27)" cx="8" cy="11.5" rx="8" ry="11.5"></ellipse>
                    <ellipse id="Oval-7-Copy" fill="#161313" cx="7.5" cy="11.34375" rx="6.5" ry="9.34375"></ellipse>
                </g>
                <g id="righteye" transform="translate(120.000000, 56.000000)">
                    <ellipse id="Oval-6" fill="#ABA2A2" transform="translate(28.000000, 36.000000) rotate(9.000000) translate(-28.000000, -36.000000) " cx="28" cy="36" rx="22.8148148" ry="32.16"></ellipse>
                    <ellipse id="Oval-6-Copy" fill="#0D0C0C" transform="translate(26.444444, 35.040000) rotate(9.000000) translate(-26.444444, -35.040000) " cx="26.4444444" cy="35.04" rx="20.2222222" ry="30.24"></ellipse>
                </g>
                <g id="lefteye" transform="translate(91.314987, 82.301545) scale(-1, 1) rotate(-18.000000) translate(-91.314987, -82.301545) translate(59.314987, 45.301545)">
                    <ellipse id="Oval-6" fill="#ABA2A2" transform="translate(32.127267, 36.902210) rotate(9.000000) translate(-32.127267, -36.902210) " cx="32.1272666" cy="36.9022103" rx="26.913101" ry="32.8406819"></ellipse>
                    <ellipse id="Oval-6-Copy" fill="#0D0C0C" transform="translate(31.463216, 37.516593) rotate(9.000000) translate(-31.463216, -37.516593) " cx="31.4632161" cy="37.5165932" rx="24.080143" ry="31.142026"></ellipse>
                </g>
            </g>
            <g id="Oval-4-Copy-3" transform="translate(277.400142, 103.081409) rotate(-16.000000) translate(-277.400142, -103.081409) ">
                <use fill="black" fill-opacity="1" filter="url(#filter-30)" xlink:href="#path-29"></use>
                <use fill="url(#radialGradient-28)" fill-rule="evenodd" xlink:href="#path-29"></use>
            </g>
            <g id="leftarm" transform="translate(0.000000, 88.000000)">
                <g id="Oval-4" transform="translate(55.299086, 86.784144) rotate(20.000000) translate(-55.299086, -86.784144) ">
                    <use fill="#F91013" fill-rule="evenodd" xlink:href="#path-31"></use>
                    <use fill="black" fill-opacity="1" filter="url(#filter-32)" xlink:href="#path-31"></use>
                </g>
                <path d="M52.1679882,125.303277 C58.4692062,125.303277 62.0301845,90.6756351 62.0301845,74.7725591 C62.0301845,58.8694832 64.8076171,25.3032769 58.5063991,25.3032769 C52.2051812,25.3032769 47.9168566,57.9631155 47.0970347,74.644025 C46.2772128,91.3249345 45.8667703,125.303277 52.1679882,125.303277 Z" id="Oval-4-Copy-4" fill-opacity="0.439283288" fill="#F8CDCD" filter="url(#filter-33)" transform="translate(54.639873, 75.303277) rotate(27.000000) translate(-54.639873, -75.303277) "></path>
                <path d="M44.347247,166.193429 C50.6484649,166.193429 61.9837351,145.283027 61.9837351,135.741181 C61.9837351,126.199335 67.0784203,89.5689651 60.7772023,89.5689651 C54.4759844,89.5689651 52.3586686,124.851089 51.5388467,134.859635 C50.7190248,144.86818 38.046029,166.193429 44.347247,166.193429 Z" id="Oval-4-Copy-5" fill-opacity="0.291723279" fill="#722F30" filter="url(#filter-34)" transform="translate(53.262724, 127.881197) rotate(27.000000) translate(-53.262724, -127.881197) "></path>
            </g>
        </g>
    </g>
</svg>