<?xml version="1.0" encoding="UTF-8" standalone="no"?>
<svg width="256px" height="167px" viewBox="0 0 256 167" version="1.1" xmlns="http://www.w3.org/2000/svg" xmlns:xlink="http://www.w3.org/1999/xlink">
    <!-- Generator: Sketch 46.1 (44463) - http://www.bohemiancoding.com/sketch -->
    <title>Group</title>
    <desc>Created with Sketch.</desc>
    <defs>
        <rect id="path-1" x="142.289963" y="64.9620972" width="111" height="7" rx="3.5"></rect>
        <rect id="path-2" x="103.691036" y="65.1851243" width="102" height="7" rx="3.5"></rect>
        <rect id="path-3" x="103.889653" y="79.7217337" width="109" height="7" rx="3.5"></rect>
        <rect id="path-4" x="47.3217108" y="96.6826899" width="66.1790982" height="7" rx="3.5"></rect>
        <rect id="path-5" x="61.3318717" y="83.1083328" width="89.7582588" height="7" rx="3.5"></rect>
        <path d="M57.4786481,121.645339 C90.6629366,115.464992 111.607581,112.29533 120.312583,112.136353 C129.097673,111.975914 134.558127,115.194948 136.693942,121.793457 L136.693949,121.793455 C136.791986,122.096336 136.860872,122.407887 136.899669,122.723866 L137.606282,128.478766 L137.606282,128.478766 C137.761554,129.743355 136.862275,130.89438 135.597686,131.049652 C134.979329,131.125577 134.356552,130.948177 133.87102,130.557807 C129.962545,127.415392 125.93429,125.275566 121.786242,124.138346 C116.19992,122.606811 94.7728216,124.177687 57.5049457,128.850974 L57.5049441,128.850961 C55.8139821,129.063003 54.2712927,127.864101 54.0592508,126.173139 C54.0432808,126.045784 54.0352725,125.917556 54.0352725,125.789203 L54.0352725,125.789203 L54.0352725,125.789203 C54.0352725,123.758885 55.4826473,122.017058 57.478644,121.645317 Z" id="path-6"></path>
        <path d="M68.1185711,35.8300386 L95.8003558,40.3189766 L95.8003558,40.3189766 C98.2212237,40.7115498 100,42.8020124 100,45.254504 L100,46 L100,46 C100,48.7614237 97.7614237,51 95,51 L66.6639111,51 L66.6639111,51 C63.9024873,51 61.6639111,48.7614237 61.6639111,46 C61.6639111,45.7926749 61.6768062,45.5855505 61.7025217,45.3798263 L62.356826,40.1453923 L62.356826,40.1453923 C62.6993384,37.4052926 65.1982893,35.4616641 67.938389,35.8041766 C67.9986017,35.8117032 68.0586723,35.8203252 68.1185711,35.8300386 Z" id="path-7"></path>
        <path d="M142.241418,8.62668432 L163.741836,5.09989721 L188.160368,8.66445357 L188.160368,8.66445357 C189.634217,8.87960237 190.727028,10.1435217 190.727028,11.6329914 L190.727028,12.0391282 L190.727028,12.0391282 C190.727028,13.4696172 189.567388,14.6292576 188.136899,14.6292576 C188.010463,14.6292576 187.884196,14.6199996 187.759111,14.601558 L164.008319,11.0998972 L142.688312,14.5587098 L142.688312,14.5587098 C141.296785,14.7844616 139.985722,13.8394145 139.75997,12.447888 C139.738045,12.3127387 139.727028,12.1760445 139.727028,12.0391282 L139.727028,11.5871205 L139.727028,11.5871205 C139.727028,10.1176947 140.791371,8.86454051 142.241418,8.62668432 Z" id="path-8"></path>
        <path d="M133.333357,2.05979947 L147.597546,4.37291126 L147.597546,4.37291126 C149.281038,4.64590991 150.518014,6.09963502 150.518014,7.80511805 L150.518014,7.80511805 L150.518014,7.80511805 C150.518014,9.43911736 149.193396,10.7637355 147.559396,10.7637355 L132.211425,10.7637355 L132.211425,10.7637355 C129.885519,10.7637355 128,8.87821634 128,6.55231055 C128,6.37768371 128.010861,6.20322592 128.032521,6.02994757 L128.032521,6.02994757 L128.032521,6.02994757 C128.347634,3.50904145 130.646682,1.72089303 133.167589,2.03600629 C133.222984,2.04293079 133.27825,2.05086316 133.333357,2.05979947 Z" id="path-9"></path>
    </defs>
    <g id="Page-1" stroke="none" stroke-width="1" fill="none" fill-rule="evenodd">
        <g id="Artboard" transform="translate(-70.000000, -149.000000)">
            <g id="Group" transform="translate(71.000000, 147.000000)">
                <g id="backtyre" transform="translate(0.000000, 64.000000)">
                    <path d="M57,57.7619048 L57,57.2521008 L73.9691877,40.2829132 L74.3333333,39.9187675 L73.605042,39.1904762 L73.2408964,39.5546218 L57,55.7955182 L57,33.507619 L57,33 L55.7619048,33 L55.7619048,33.507619 L55.7619048,57.0336134 L38.2829132,39.5546218 L37.9187675,39.1904762 L37.1904762,39.9187675 L37.5546218,40.2829132 L55.0336134,57.7619048 L31.507619,57.7619048 L31,57.7619048 L31,59 L31.507619,59 L53.7955182,59 L37.5546218,75.2408964 L37.1904762,75.605042 L37.9187675,76.3333333 L38.2829132,75.9691877 L55.2521008,59 L55.7619048,59 L55.7619048,83.2542857 L55.7619048,83.7619048 L57,83.7619048 L57,83.2542857 L57,59.7282913 L73.2408964,75.9691877 L73.605042,76.3333333 L74.3333333,75.605042 L73.9691877,75.2408964 L57.7282913,59 L81.2542857,59 L81.7619048,59 L81.7619048,57.7619048 L81.2542857,57.7619048 L57,57.7619048 Z" id="Combined-Shape" fill="#40352F"></path>
                    <path d="M56,104 C30.0426168,104 9,82.9573832 9,57 C9,31.0426168 30.0426168,10 56,10 C81.9573832,10 103,31.0426168 103,57 C103,82.9573832 81.9573832,104 56,104 Z M56.5,74 C65.6126984,74 73,66.6126984 73,57.5 C73,48.3873016 65.6126984,41 56.5,41 C47.3873016,41 40,48.3873016 40,57.5 C40,66.6126984 47.3873016,74 56.5,74 Z" id="Combined-Shape" stroke="#40352F" fill="#C79C6F"></path>
                    <path d="M28.2437851,43.1791645 C27.7821844,42.8534873 27.3419861,42.4841217 26.9289322,42.0710678 C23.0236893,38.1658249 23.0236893,31.8341751 26.9289322,27.9289322 C30.8341751,24.0236893 37.1658249,24.0236893 41.0710678,27.9289322 C41.4841217,28.3419861 41.8534873,28.7821844 42.1791645,29.2437851 C43.4484035,28.6105601 44.7671753,28.0618317 46.1281118,27.6049682 C46.0438112,27.0824259 46,26.5463293 46,26 C46,20.4771525 50.4771525,16 56,16 C61.5228475,16 66,20.4771525 66,26 C66,26.5463293 65.9561888,27.0824259 65.8718882,27.6049682 C67.2328247,28.0618317 68.5515965,28.6105601 69.8208355,29.2437851 C70.1465127,28.7821844 70.5158783,28.3419861 70.9289322,27.9289322 C74.8341751,24.0236893 81.1658249,24.0236893 85.0710678,27.9289322 C88.9763107,31.8341751 88.9763107,38.1658249 85.0710678,42.0710678 C84.6580139,42.4841217 84.2178156,42.8534873 83.7562149,43.1791645 C84.3894399,44.4484035 84.9381683,45.7671753 85.3950318,47.1281118 C85.9175741,47.0438112 86.4536707,47 87,47 C92.5228475,47 97,51.4771525 97,57 C97,62.5228475 92.5228475,67 87,67 C86.4536707,67 85.9175741,66.9561888 85.3950318,66.8718882 C84.9381683,68.2328247 84.3894399,69.5515965 83.7562149,70.8208355 C84.2178156,71.1465127 84.6580139,71.5158783 85.0710678,71.9289322 C88.9763107,75.8341751 88.9763107,82.1658249 85.0710678,86.0710678 C81.1658249,89.9763107 74.8341751,89.9763107 70.9289322,86.0710678 C70.5158783,85.6580139 70.1465127,85.2178156 69.8208355,84.7562149 C68.5515965,85.3894399 67.2328247,85.9381683 65.8718882,86.3950318 C65.9561888,86.9175741 66,87.4536707 66,88 C66,93.5228475 61.5228475,98 56,98 C50.4771525,98 46,93.5228475 46,88 C46,87.4536707 46.0438112,86.9175741 46.1281118,86.3950318 C44.7671753,85.9381683 43.4484035,85.3894399 42.1791645,84.7562149 C41.8534873,85.2178156 41.4841217,85.6580139 41.0710678,86.0710678 C37.1658249,89.9763107 30.8341751,89.9763107 26.9289322,86.0710678 C23.0236893,82.1658249 23.0236893,75.8341751 26.9289322,71.9289322 C27.3419861,71.5158783 27.7821844,71.1465127 28.2437851,70.8208355 C27.6105601,69.5515965 27.0618317,68.2328247 26.6049682,66.8718882 C26.0824259,66.9561888 25.5463293,67 25,67 C19.4771525,67 15,62.5228475 15,57 C15,51.4771525 19.4771525,47 25,47 C25.5463293,47 26.0824259,47.0438112 26.6049682,47.1281118 C27.0618317,45.7671753 27.6105601,44.4484035 28.2437851,43.1791645 Z M56.5,74 C65.6126984,74 73,66.6126984 73,57.5 C73,48.3873016 65.6126984,41 56.5,41 C47.3873016,41 40,48.3873016 40,57.5 C40,66.6126984 47.3873016,74 56.5,74 Z" id="Combined-Shape" stroke="#EA5095" fill="#ED5E82"></path>
                    <g id="leftsprinkles" transform="translate(23.000000, 23.000000)">
                        <g id="ls8" transform="translate(33.000000, 60.500000) scale(1, -1) translate(-33.000000, -60.500000) translate(22.000000, 53.000000)">
                            <path d="M1.81818182,8.0067944 C1.76827848,8.00229737 1.71774086,8 1.66666667,8 C0.746192084,8 0,8.74619208 0,9.66666667 C0,10.5871412 0.746192084,11.3333333 1.66666667,11.3333333 C1.71774086,11.3333333 1.76827848,11.331036 1.81818182,11.3265389 L1.81818182,11.3333333 L8.48484848,11.3333333 L8.48484848,11.3265389 C9.33431818,11.2499891 10,10.5360671 10,9.66666667 C10,8.79726628 9.33431818,8.08334421 8.48484848,8.0067944 L8.48484848,8 L1.81818182,8 L1.81818182,8.0067944 Z" id="Combined-Shape-Copy-14" fill="#FFF954" transform="translate(5.000000, 9.666667) rotate(45.000000) translate(-5.000000, -9.666667) "></path>
                            <path d="M13.8181818,8.0067944 C13.7682785,8.00229737 13.7177409,8 13.6666667,8 C12.7461921,8 12,8.74619208 12,9.66666667 C12,10.5871412 12.7461921,11.3333333 13.6666667,11.3333333 C13.7177409,11.3333333 13.7682785,11.331036 13.8181818,11.3265389 L13.8181818,11.3333333 L20.4848485,11.3333333 L20.4848485,11.3265389 C21.3343182,11.2499891 22,10.5360671 22,9.66666667 C22,8.79726628 21.3343182,8.08334421 20.4848485,8.0067944 L20.4848485,8 L13.8181818,8 L13.8181818,8.0067944 Z" id="Combined-Shape-Copy-25" fill="#801A86" transform="translate(17.000000, 9.666667) rotate(-45.000000) translate(-17.000000, -9.666667) "></path>
                            <path d="M7.81818182,4.0067944 C7.76827848,4.00229737 7.71774086,4 7.66666667,4 C6.74619208,4 6,4.74619208 6,5.66666667 C6,6.58714125 6.74619208,7.33333333 7.66666667,7.33333333 C7.71774086,7.33333333 7.76827848,7.33103597 7.81818182,7.32653894 L7.81818182,7.33333333 L14.4848485,7.33333333 L14.4848485,7.32653894 C15.3343182,7.24998912 16,6.53606705 16,5.66666667 C16,4.79726628 15.3343182,4.08334421 14.4848485,4.0067944 L14.4848485,4 L7.81818182,4 L7.81818182,4.0067944 Z" id="Combined-Shape-Copy-23" fill="#4EA700" transform="translate(11.000000, 5.666667) rotate(90.000000) translate(-11.000000, -5.666667) "></path>
                        </g>
                        <g id="ls7" transform="translate(51.374369, 52.374369) scale(1, -1) rotate(45.000000) translate(-51.374369, -52.374369) translate(41.374369, 44.874369)">
                            <path d="M11.8181818,8.0067944 C11.7682785,8.00229737 11.7177409,8 11.6666667,8 C10.7461921,8 10,8.74619208 10,9.66666667 C10,10.5871412 10.7461921,11.3333333 11.6666667,11.3333333 C11.7177409,11.3333333 11.7682785,11.331036 11.8181818,11.3265389 L11.8181818,11.3333333 L18.4848485,11.3333333 L18.4848485,11.3265389 C19.3343182,11.2499891 20,10.5360671 20,9.66666667 C20,8.79726628 19.3343182,8.08334421 18.4848485,8.0067944 L18.4848485,8 L11.8181818,8 L11.8181818,8.0067944 Z" id="Combined-Shape-Copy-10" fill="#FFFB87" transform="translate(15.000000, 9.666667) rotate(-45.000000) translate(-15.000000, -9.666667) "></path>
                            <path d="M6.81818182,3.34012773 C6.76827848,3.3356307 6.71774086,3.33333333 6.66666667,3.33333333 C5.74619208,3.33333333 5,4.07952542 5,5 C5,5.92047458 5.74619208,6.66666667 6.66666667,6.66666667 C6.71774086,6.66666667 6.76827848,6.6643693 6.81818182,6.65987227 L6.81818182,6.66666667 L13.4848485,6.66666667 L13.4848485,6.65987227 C14.3343182,6.58332246 15,5.86940039 15,5 C15,4.13059961 14.3343182,3.41667754 13.4848485,3.34012773 L13.4848485,3.33333333 L6.81818182,3.33333333 L6.81818182,3.34012773 Z" id="Combined-Shape-Copy-4" fill="#645986" transform="translate(10.000000, 5.000000) rotate(90.000000) translate(-10.000000, -5.000000) "></path>
                            <path d="M1.81818182,8.0067944 C1.76827848,8.00229737 1.71774086,8 1.66666667,8 C0.746192084,8 0,8.74619208 0,9.66666667 C0,10.5871412 0.746192084,11.3333333 1.66666667,11.3333333 C1.71774086,11.3333333 1.76827848,11.331036 1.81818182,11.3265389 L1.81818182,11.3333333 L8.48484848,11.3333333 L8.48484848,11.3265389 C9.33431818,11.2499891 10,10.5360671 10,9.66666667 C10,8.79726628 9.33431818,8.08334421 8.48484848,8.0067944 L8.48484848,8 L1.81818182,8 L1.81818182,8.0067944 Z" id="Combined-Shape-Copy-22" fill="#DD1B6E" transform="translate(5.000000, 9.666667) rotate(45.000000) translate(-5.000000, -9.666667) "></path>
                        </g>
                        <g id="ls6" transform="translate(58.500000, 34.000000) rotate(90.000000) translate(-58.500000, -34.000000) translate(47.500000, 26.500000)">
                            <path d="M1.81818182,7.67346106 C1.76827848,7.66896403 1.71774086,7.66666667 1.66666667,7.66666667 C0.746192084,7.66666667 0,8.41285875 0,9.33333333 C0,10.2538079 0.746192084,11 1.66666667,11 C1.71774086,11 1.76827848,10.9977026 1.81818182,10.9932056 L1.81818182,11 L8.48484848,11 L8.48484848,10.9932056 C9.33431818,10.9166558 10,10.2027337 10,9.33333333 C10,8.46393295 9.33431818,7.75001088 8.48484848,7.67346106 L8.48484848,7.66666667 L1.81818182,7.66666667 L1.81818182,7.67346106 Z" id="Combined-Shape-Copy-33" fill="#FFF954" transform="translate(5.000000, 9.333333) rotate(45.000000) translate(-5.000000, -9.333333) "></path>
                            <path d="M13.8181818,7.67346106 C13.7682785,7.66896403 13.7177409,7.66666667 13.6666667,7.66666667 C12.7461921,7.66666667 12,8.41285875 12,9.33333333 C12,10.2538079 12.7461921,11 13.6666667,11 C13.7177409,11 13.7682785,10.9977026 13.8181818,10.9932056 L13.8181818,11 L20.4848485,11 L20.4848485,10.9932056 C21.3343182,10.9166558 22,10.2027337 22,9.33333333 C22,8.46393295 21.3343182,7.75001088 20.4848485,7.67346106 L20.4848485,7.66666667 L13.8181818,7.66666667 L13.8181818,7.67346106 Z" id="Combined-Shape-Copy-32" fill="#801A86" transform="translate(17.000000, 9.333333) rotate(-45.000000) translate(-17.000000, -9.333333) "></path>
                            <path d="M7.77080328,3.95941586 C7.72089994,3.95491882 7.67036232,3.95262146 7.61928813,3.95262146 C6.69881354,3.95262146 5.95262146,4.69881354 5.95262146,5.61928813 C5.95262146,6.53976271 6.69881354,7.28595479 7.61928813,7.28595479 C7.67036232,7.28595479 7.72089994,7.28365743 7.77080328,7.2791604 L7.77080328,7.28595479 L14.4374699,7.28595479 L14.4374699,7.2791604 C15.2869396,7.20261058 15.9526215,6.48868851 15.9526215,5.61928813 C15.9526215,4.74988774 15.2869396,4.03596567 14.4374699,3.95941586 L14.4374699,3.95262146 L7.77080328,3.95262146 L7.77080328,3.95941586 Z" id="Combined-Shape-Copy-31" fill="#4EA700" transform="translate(10.952621, 5.619288) rotate(90.000000) translate(-10.952621, -5.619288) "></path>
                        </g>
                        <g id="ls5" transform="translate(51.625631, 15.374369) rotate(45.000000) translate(-51.625631, -15.374369) translate(41.625631, 7.874369)">
                            <path d="M11.532227,8.05417294 C11.4823237,8.04967591 11.4317861,8.04737854 11.3807119,8.04737854 C10.4602373,8.04737854 9.71404521,8.79357062 9.71404521,9.71404521 C9.71404521,10.6345198 10.4602373,11.3807119 11.3807119,11.3807119 C11.4317861,11.3807119 11.4823237,11.3784145 11.532227,11.3739175 L11.532227,11.3807119 L18.1988937,11.3807119 L18.1988937,11.3739175 C19.0483634,11.2973677 19.7140452,10.5834456 19.7140452,9.71404521 C19.7140452,8.84464482 19.0483634,8.13072275 18.1988937,8.05417294 L18.1988937,8.04737854 L11.532227,8.04737854 L11.532227,8.05417294 Z" id="Combined-Shape" fill="#CC4E06" transform="translate(14.714045, 9.714045) rotate(-45.000000) translate(-14.714045, -9.714045) "></path>
                            <path d="M1.53222703,7.55417294 C1.48232369,7.54967591 1.43178607,7.54737854 1.38071187,7.54737854 C0.460237292,7.54737854 -0.285954792,8.29357062 -0.285954792,9.21404521 C-0.285954792,10.1345198 0.460237292,10.8807119 1.38071187,10.8807119 C1.43178607,10.8807119 1.48232369,10.8784145 1.53222703,10.8739175 L1.53222703,10.8807119 L8.19889369,10.8807119 L8.19889369,10.8739175 C9.04836339,10.7973677 9.71404521,10.0834456 9.71404521,9.21404521 C9.71404521,8.34464482 9.04836339,7.63072275 8.19889369,7.55417294 L8.19889369,7.54737854 L1.53222703,7.54737854 L1.53222703,7.55417294 Z" id="Combined-Shape-Copy-30" fill="#2DF2EE" transform="translate(4.714045, 9.214045) rotate(45.000000) translate(-4.714045, -9.214045) "></path>
                            <path d="M6.48484848,3.34012773 C6.43494515,3.3356307 6.38440753,3.33333333 6.33333333,3.33333333 C5.41285875,3.33333333 4.66666667,4.07952542 4.66666667,5 C4.66666667,5.92047458 5.41285875,6.66666667 6.33333333,6.66666667 C6.38440753,6.66666667 6.43494515,6.6643693 6.48484848,6.65987227 L6.48484848,6.66666667 L13.1515152,6.66666667 L13.1515152,6.65987227 C14.0009849,6.58332246 14.6666667,5.86940039 14.6666667,5 C14.6666667,4.13059961 14.0009849,3.41667754 13.1515152,3.34012773 L13.1515152,3.33333333 L6.48484848,3.33333333 L6.48484848,3.34012773 Z" id="Combined-Shape-Copy-24" fill="#16B809" transform="translate(9.666667, 5.000000) rotate(90.000000) translate(-9.666667, -5.000000) "></path>
                        </g>
                        <g id="ls4" transform="translate(23.000000, 0.000000)">
                            <path d="M1.53222703,8.05417294 C1.48232369,8.04967591 1.43178607,8.04737854 1.38071187,8.04737854 C0.460237292,8.04737854 -0.285954792,8.79357062 -0.285954792,9.71404521 C-0.285954792,10.6345198 0.460237292,11.3807119 1.38071187,11.3807119 C1.43178607,11.3807119 1.48232369,11.3784145 1.53222703,11.3739175 L1.53222703,11.3807119 L8.19889369,11.3807119 L8.19889369,11.3739175 C9.04836339,11.2973677 9.71404521,10.5834456 9.71404521,9.71404521 C9.71404521,8.84464482 9.04836339,8.13072275 8.19889369,8.05417294 L8.19889369,8.04737854 L1.53222703,8.04737854 L1.53222703,8.05417294 Z" id="Combined-Shape-Copy-6" fill="#801A86" transform="translate(4.714045, 9.714045) rotate(45.000000) translate(-4.714045, -9.714045) "></path>
                            <path d="M6.33333333,3.6741405 C6.27843966,3.66919377 6.22284828,3.66666667 6.16666667,3.66666667 C5.15414463,3.66666667 4.33333333,4.48747796 4.33333333,5.5 C4.33333333,6.51252204 5.15414463,7.33333333 6.16666667,7.33333333 C6.22284828,7.33333333 6.27843966,7.33080623 6.33333333,7.3258595 L6.33333333,7.33333333 L13.6666667,7.33333333 L13.6666667,7.3258595 C14.6010833,7.2416547 15.3333333,6.45634043 15.3333333,5.5 C15.3333333,4.54365957 14.6010833,3.7583453 13.6666667,3.6741405 L13.6666667,3.66666667 L6.33333333,3.66666667 L6.33333333,3.6741405 Z" id="Combined-Shape-Copy-12" fill="#DD1B6E" transform="translate(9.833333, 5.500000) rotate(90.000000) translate(-9.833333, -5.500000) "></path>
                            <path d="M11.8181818,8.0067944 C11.7682785,8.00229737 11.7177409,8 11.6666667,8 C10.7461921,8 10,8.74619208 10,9.66666667 C10,10.5871412 10.7461921,11.3333333 11.6666667,11.3333333 C11.7177409,11.3333333 11.7682785,11.331036 11.8181818,11.3265389 L11.8181818,11.3333333 L18.4848485,11.3333333 L18.4848485,11.3265389 C19.3343182,11.2499891 20,10.5360671 20,9.66666667 C20,8.79726628 19.3343182,8.08334421 18.4848485,8.0067944 L18.4848485,8 L11.8181818,8 L11.8181818,8.0067944 Z" id="Combined-Shape-Copy-29" fill="#7D8E53" transform="translate(15.000000, 9.666667) rotate(-45.000000) translate(-15.000000, -9.666667) "></path>
                        </g>
                        <g id="ls3" transform="translate(14.374369, 15.374369) rotate(-45.000000) translate(-14.374369, -15.374369) translate(4.374369, 7.874369)">
                            <path d="M6.81818182,4.0067944 C6.76827848,4.00229737 6.71774086,4 6.66666667,4 C5.74619208,4 5,4.74619208 5,5.66666667 C5,6.58714125 5.74619208,7.33333333 6.66666667,7.33333333 C6.71774086,7.33333333 6.76827848,7.33103597 6.81818182,7.32653894 L6.81818182,7.33333333 L13.4848485,7.33333333 L13.4848485,7.32653894 C14.3343182,7.24998912 15,6.53606705 15,5.66666667 C15,4.79726628 14.3343182,4.08334421 13.4848485,4.0067944 L13.4848485,4 L6.81818182,4 L6.81818182,4.0067944 Z" id="Combined-Shape-Copy-3" fill="#775D7B" transform="translate(10.000000, 5.666667) rotate(90.000000) translate(-10.000000, -5.666667) "></path>
                            <path d="M11.8181818,8.0067944 C11.7682785,8.00229737 11.7177409,8 11.6666667,8 C10.7461921,8 10,8.74619208 10,9.66666667 C10,10.5871412 10.7461921,11.3333333 11.6666667,11.3333333 C11.7177409,11.3333333 11.7682785,11.331036 11.8181818,11.3265389 L11.8181818,11.3333333 L18.4848485,11.3333333 L18.4848485,11.3265389 C19.3343182,11.2499891 20,10.5360671 20,9.66666667 C20,8.79726628 19.3343182,8.08334421 18.4848485,8.0067944 L18.4848485,8 L11.8181818,8 L11.8181818,8.0067944 Z" id="Combined-Shape-Copy-15" fill="#E728E4" transform="translate(15.000000, 9.666667) rotate(-45.000000) translate(-15.000000, -9.666667) "></path>
                            <path d="M1.81818182,8.0067944 C1.76827848,8.00229737 1.71774086,8 1.66666667,8 C0.746192084,8 0,8.74619208 0,9.66666667 C0,10.5871412 0.746192084,11.3333333 1.66666667,11.3333333 C1.71774086,11.3333333 1.76827848,11.331036 1.81818182,11.3265389 L1.81818182,11.3333333 L8.48484848,11.3333333 L8.48484848,11.3265389 C9.33431818,11.2499891 10,10.5360671 10,9.66666667 C10,8.79726628 9.33431818,8.08334421 8.48484848,8.0067944 L8.48484848,8 L1.81818182,8 L1.81818182,8.0067944 Z" id="Combined-Shape-Copy-18" fill="#FFF954" transform="translate(5.000000, 9.666667) rotate(45.000000) translate(-5.000000, -9.666667) "></path>
                        </g>
                        <g id="ls2" transform="translate(7.000000, 35.000000) rotate(-90.000000) translate(-7.000000, -35.000000) translate(-3.000000, 28.000000)">
                            <path d="M11.8181818,7.34012773 C11.7682785,7.3356307 11.7177409,7.33333333 11.6666667,7.33333333 C10.7461921,7.33333333 10,8.07952542 10,9 C10,9.92047458 10.7461921,10.6666667 11.6666667,10.6666667 C11.7177409,10.6666667 11.7682785,10.6643693 11.8181818,10.6598723 L11.8181818,10.6666667 L18.4848485,10.6666667 L18.4848485,10.6598723 C19.3343182,10.5833225 20,9.86940039 20,9 C20,8.13059961 19.3343182,7.41667754 18.4848485,7.34012773 L18.4848485,7.33333333 L11.8181818,7.33333333 L11.8181818,7.34012773 Z" id="Combined-Shape-Copy-36" fill="#0053F0" transform="translate(15.000000, 9.000000) rotate(-45.000000) translate(-15.000000, -9.000000) "></path>
                            <path d="M6.77080328,3.62608252 C6.72089994,3.62158549 6.67036232,3.61928813 6.61928813,3.61928813 C5.69881354,3.61928813 4.95262146,4.36548021 4.95262146,5.28595479 C4.95262146,6.20642938 5.69881354,6.95262146 6.61928813,6.95262146 C6.67036232,6.95262146 6.72089994,6.95032409 6.77080328,6.94582706 L6.77080328,6.95262146 L13.4374699,6.95262146 L13.4374699,6.94582706 C14.2869396,6.86927725 14.9526215,6.15535518 14.9526215,5.28595479 C14.9526215,4.4165544 14.2869396,3.70263234 13.4374699,3.62608252 L13.4374699,3.61928813 L6.77080328,3.61928813 L6.77080328,3.62608252 Z" id="Combined-Shape-Copy-35" fill="#775D7B" transform="translate(9.952621, 5.285955) rotate(90.000000) translate(-9.952621, -5.285955) "></path>
                            <path d="M1.81818182,7.34012773 C1.76827848,7.3356307 1.71774086,7.33333333 1.66666667,7.33333333 C0.746192084,7.33333333 0,8.07952542 0,9 C0,9.92047458 0.746192084,10.6666667 1.66666667,10.6666667 C1.71774086,10.6666667 1.76827848,10.6643693 1.81818182,10.6598723 L1.81818182,10.6666667 L8.48484848,10.6666667 L8.48484848,10.6598723 C9.33431818,10.5833225 10,9.86940039 10,9 C10,8.13059961 9.33431818,7.41667754 8.48484848,7.34012773 L8.48484848,7.33333333 L1.81818182,7.33333333 L1.81818182,7.34012773 Z" id="Combined-Shape-Copy-34" fill="#E728E4" transform="translate(5.000000, 9.000000) rotate(45.000000) translate(-5.000000, -9.000000) "></path>
                        </g>
                        <g id="ls1" transform="translate(13.374369, 53.374369) scale(1, -1) rotate(-45.000000) translate(-13.374369, -53.374369) translate(2.874369, 46.374369)">
                            <path d="M12.532227,6.62608252 C12.4823237,6.62158549 12.4317861,6.61928813 12.3807119,6.61928813 C11.4602373,6.61928813 10.7140452,7.36548021 10.7140452,8.28595479 C10.7140452,9.20642938 11.4602373,9.95262146 12.3807119,9.95262146 C12.4317861,9.95262146 12.4823237,9.95032409 12.532227,9.94582706 L12.532227,9.95262146 L19.1988937,9.95262146 L19.1988937,9.94582706 C20.0483634,9.86927725 20.7140452,9.15535518 20.7140452,8.28595479 C20.7140452,7.4165544 20.0483634,6.70263234 19.1988937,6.62608252 L19.1988937,6.61928813 L12.532227,6.61928813 L12.532227,6.62608252 Z" id="Combined-Shape-Copy-7" fill="#80123A" transform="translate(15.714045, 8.285955) rotate(-45.000000) translate(-15.714045, -8.285955) "></path>
                            <path d="M1.81818182,6.67346106 C1.76827848,6.66896403 1.71774086,6.66666667 1.66666667,6.66666667 C0.746192084,6.66666667 0,7.41285875 0,8.33333333 C0,9.25380792 0.746192084,10 1.66666667,10 C1.71774086,10 1.76827848,9.99770263 1.81818182,9.9932056 L1.81818182,10 L8.48484848,10 L8.48484848,9.9932056 C9.33431818,9.91665579 10,9.20273372 10,8.33333333 C10,7.46393295 9.33431818,6.75001088 8.48484848,6.67346106 L8.48484848,6.66666667 L1.81818182,6.66666667 L1.81818182,6.67346106 Z" id="Combined-Shape-Copy-26" fill="#E2D951" transform="translate(5.000000, 8.333333) rotate(45.000000) translate(-5.000000, -8.333333) "></path>
                            <path d="M7.48484848,3.34012773 C7.43494515,3.3356307 7.38440753,3.33333333 7.33333333,3.33333333 C6.41285875,3.33333333 5.66666667,4.07952542 5.66666667,5 C5.66666667,5.92047458 6.41285875,6.66666667 7.33333333,6.66666667 C7.38440753,6.66666667 7.43494515,6.6643693 7.48484848,6.65987227 L7.48484848,6.66666667 L14.1515152,6.66666667 L14.1515152,6.65987227 C15.0009849,6.58332246 15.6666667,5.86940039 15.6666667,5 C15.6666667,4.13059961 15.0009849,3.41667754 14.1515152,3.34012773 L14.1515152,3.33333333 L7.48484848,3.33333333 L7.48484848,3.34012773 Z" id="Combined-Shape-Copy-17" fill="#00A1D4" transform="translate(10.666667, 5.000000) rotate(90.000000) translate(-10.666667, -5.000000) "></path>
                        </g>
                    </g>
                    <path d="M9.23566779e-15,53 C1.30737396,23.5084199 25.6306932,0 55.4446981,0 C85.258703,0 109.582022,23.5084199 110.889396,53 L105.856182,53 C104.304693,26.7824969 82.5517019,6 55.9446981,6 C29.3376943,6 7.58470272,26.7824969 6.03321403,53 L2.66453526e-15,53 Z" id="Combined-Shape" stroke="#031717" fill="#079391" opacity="0.643831623"></path>
                </g>
                <g id="fronttyre" transform="translate(152.000000, 52.000000)">
                    <path d="M56,69.7619048 L56,69.2521008 L72.9691877,52.2829132 L73.3333333,51.9187675 L72.605042,51.1904762 L72.2408964,51.5546218 L56,67.7955182 L56,45.507619 L56,45 L54.7619048,45 L54.7619048,45.507619 L54.7619048,69.0336134 L37.2829132,51.5546218 L36.9187675,51.1904762 L36.1904762,51.9187675 L36.5546218,52.2829132 L54.0336134,69.7619048 L30.507619,69.7619048 L30,69.7619048 L30,71 L30.507619,71 L52.7955182,71 L36.5546218,87.2408964 L36.1904762,87.605042 L36.9187675,88.3333333 L37.2829132,87.9691877 L54.2521008,71 L54.7619048,71 L54.7619048,95.2542857 L54.7619048,95.7619048 L56,95.7619048 L56,95.2542857 L56,71.7282913 L72.2408964,87.9691877 L72.605042,88.3333333 L73.3333333,87.605042 L72.9691877,87.2408964 L56.7282913,71 L80.2542857,71 L80.7619048,71 L80.7619048,69.7619048 L80.2542857,69.7619048 L56,69.7619048 Z" id="Combined-Shape-Copy" fill="#40352F"></path>
                    <path d="M55,116 C29.0426168,116 8,94.9573832 8,69 C8,43.0426168 29.0426168,22 55,22 C80.9573832,22 102,43.0426168 102,69 C102,94.9573832 80.9573832,116 55,116 Z M55.5,86 C64.6126984,86 72,78.6126984 72,69.5 C72,60.3873016 64.6126984,53 55.5,53 C46.3873016,53 39,60.3873016 39,69.5 C39,78.6126984 46.3873016,86 55.5,86 Z" id="Combined-Shape" stroke="#40352F" fill="#C79C6F"></path>
                    <path d="M27.2437851,55.1791645 C26.7821844,54.8534873 26.3419861,54.4841217 25.9289322,54.0710678 C22.0236893,50.1658249 22.0236893,43.8341751 25.9289322,39.9289322 C29.8341751,36.0236893 36.1658249,36.0236893 40.0710678,39.9289322 C40.4841217,40.3419861 40.8534873,40.7821844 41.1791645,41.2437851 C42.4484035,40.6105601 43.7671753,40.0618317 45.1281118,39.6049682 C45.0438112,39.0824259 45,38.5463293 45,38 C45,32.4771525 49.4771525,28 55,28 C60.5228475,28 65,32.4771525 65,38 C65,38.5463293 64.9561888,39.0824259 64.8718882,39.6049682 C66.2328247,40.0618317 67.5515965,40.6105601 68.8208355,41.2437851 C69.1465127,40.7821844 69.5158783,40.3419861 69.9289322,39.9289322 C73.8341751,36.0236893 80.1658249,36.0236893 84.0710678,39.9289322 C87.9763107,43.8341751 87.9763107,50.1658249 84.0710678,54.0710678 C83.6580139,54.4841217 83.2178156,54.8534873 82.7562149,55.1791645 C83.3894399,56.4484035 83.9381683,57.7671753 84.3950318,59.1281118 C84.9175741,59.0438112 85.4536707,59 86,59 C91.5228475,59 96,63.4771525 96,69 C96,74.5228475 91.5228475,79 86,79 C85.4536707,79 84.9175741,78.9561888 84.3950318,78.8718882 C83.9381683,80.2328247 83.3894399,81.5515965 82.7562149,82.8208355 C83.2178156,83.1465127 83.6580139,83.5158783 84.0710678,83.9289322 C87.9763107,87.8341751 87.9763107,94.1658249 84.0710678,98.0710678 C80.1658249,101.976311 73.8341751,101.976311 69.9289322,98.0710678 C69.5158783,97.6580139 69.1465127,97.2178156 68.8208355,96.7562149 C67.5515965,97.3894399 66.2328247,97.9381683 64.8718882,98.3950318 C64.9561888,98.9175741 65,99.4536707 65,100 C65,105.522847 60.5228475,110 55,110 C49.4771525,110 45,105.522847 45,100 C45,99.4536707 45.0438112,98.9175741 45.1281118,98.3950318 C43.7671753,97.9381683 42.4484035,97.3894399 41.1791645,96.7562149 C40.8534873,97.2178156 40.4841217,97.6580139 40.0710678,98.0710678 C36.1658249,101.976311 29.8341751,101.976311 25.9289322,98.0710678 C22.0236893,94.1658249 22.0236893,87.8341751 25.9289322,83.9289322 C26.3419861,83.5158783 26.7821844,83.1465127 27.2437851,82.8208355 C26.6105601,81.5515965 26.0618317,80.2328247 25.6049682,78.8718882 C25.0824259,78.9561888 24.5463293,79 24,79 C18.4771525,79 14,74.5228475 14,69 C14,63.4771525 18.4771525,59 24,59 C24.5463293,59 25.0824259,59.0438112 25.6049682,59.1281118 C26.0618317,57.7671753 26.6105601,56.4484035 27.2437851,55.1791645 Z M55.5,86 C64.6126984,86 72,78.6126984 72,69.5 C72,60.3873016 64.6126984,53 55.5,53 C46.3873016,53 39,60.3873016 39,69.5 C39,78.6126984 46.3873016,86 55.5,86 Z" id="Combined-Shape" stroke="#EA5095" fill="#ED5E82"></path>
                    <g id="rightsprinkles" transform="translate(21.000000, 35.000000)">
                        <g id="rs8" transform="translate(34.000000, 60.500000) scale(1, -1) translate(-34.000000, -60.500000) translate(24.000000, 53.000000)">
                            <path d="M11.8181818,8.0067944 C11.7682785,8.00229737 11.7177409,8 11.6666667,8 C10.7461921,8 10,8.74619208 10,9.66666667 C10,10.5871412 10.7461921,11.3333333 11.6666667,11.3333333 C11.7177409,11.3333333 11.7682785,11.331036 11.8181818,11.3265389 L11.8181818,11.3333333 L18.4848485,11.3333333 L18.4848485,11.3265389 C19.3343182,11.2499891 20,10.5360671 20,9.66666667 C20,8.79726628 19.3343182,8.08334421 18.4848485,8.0067944 L18.4848485,8 L11.8181818,8 L11.8181818,8.0067944 Z" id="Combined-Shape-Copy-2" fill="#B1F20F" transform="translate(15.000000, 9.666667) rotate(-45.000000) translate(-15.000000, -9.666667) "></path>
                            <path d="M6.81818182,4.0067944 C6.76827848,4.00229737 6.71774086,4 6.66666667,4 C5.74619208,4 5,4.74619208 5,5.66666667 C5,6.58714125 5.74619208,7.33333333 6.66666667,7.33333333 C6.71774086,7.33333333 6.76827848,7.33103597 6.81818182,7.32653894 L6.81818182,7.33333333 L13.4848485,7.33333333 L13.4848485,7.32653894 C14.3343182,7.24998912 15,6.53606705 15,5.66666667 C15,4.79726628 14.3343182,4.08334421 13.4848485,4.0067944 L13.4848485,4 L6.81818182,4 L6.81818182,4.0067944 Z" id="Combined-Shape-Copy-27" fill="#80123A" transform="translate(10.000000, 5.666667) rotate(90.000000) translate(-10.000000, -5.666667) "></path>
                            <path d="M1.81818182,8.0067944 C1.76827848,8.00229737 1.71774086,8 1.66666667,8 C0.746192084,8 0,8.74619208 0,9.66666667 C0,10.5871412 0.746192084,11.3333333 1.66666667,11.3333333 C1.71774086,11.3333333 1.76827848,11.331036 1.81818182,11.3265389 L1.81818182,11.3333333 L8.48484848,11.3333333 L8.48484848,11.3265389 C9.33431818,11.2499891 10,10.5360671 10,9.66666667 C10,8.79726628 9.33431818,8.08334421 8.48484848,8.0067944 L8.48484848,8 L1.81818182,8 L1.81818182,8.0067944 Z" id="Combined-Shape-Copy-20" fill="#C96213" transform="translate(5.000000, 9.666667) rotate(45.000000) translate(-5.000000, -9.666667) "></path>
                        </g>
                        <g id="rs7" transform="translate(52.727922, 53.727922) scale(1, -1) rotate(45.000000) translate(-52.727922, -53.727922) translate(42.227922, 46.227922)">
                            <path d="M1.81818182,8.0067944 C1.76827848,8.00229737 1.71774086,8 1.66666667,8 C0.746192084,8 0,8.74619208 0,9.66666667 C0,10.5871412 0.746192084,11.3333333 1.66666667,11.3333333 C1.71774086,11.3333333 1.76827848,11.331036 1.81818182,11.3265389 L1.81818182,11.3333333 L8.48484848,11.3333333 L8.48484848,11.3265389 C9.33431818,11.2499891 10,10.5360671 10,9.66666667 C10,8.79726628 9.33431818,8.08334421 8.48484848,8.0067944 L8.48484848,8 L1.81818182,8 L1.81818182,8.0067944 Z" id="Combined-Shape-Copy-8" fill="#E2D951" transform="translate(5.000000, 9.666667) rotate(45.000000) translate(-5.000000, -9.666667) "></path>
                            <path d="M6.81818182,4.0067944 C6.76827848,4.00229737 6.71774086,4 6.66666667,4 C5.74619208,4 5,4.74619208 5,5.66666667 C5,6.58714125 5.74619208,7.33333333 6.66666667,7.33333333 C6.71774086,7.33333333 6.76827848,7.33103597 6.81818182,7.32653894 L6.81818182,7.33333333 L13.4848485,7.33333333 L13.4848485,7.32653894 C14.3343182,7.24998912 15,6.53606705 15,5.66666667 C15,4.79726628 14.3343182,4.08334421 13.4848485,4.0067944 L13.4848485,4 L6.81818182,4 L6.81818182,4.0067944 Z" id="Combined-Shape-Copy-5" fill="#8FE388" transform="translate(10.000000, 5.666667) rotate(90.000000) translate(-10.000000, -5.666667) "></path>
                            <path d="M12.532227,8.05417294 C12.4823237,8.04967591 12.4317861,8.04737854 12.3807119,8.04737854 C11.4602373,8.04737854 10.7140452,8.79357062 10.7140452,9.71404521 C10.7140452,10.6345198 11.4602373,11.3807119 12.3807119,11.3807119 C12.4317861,11.3807119 12.4823237,11.3784145 12.532227,11.3739175 L12.532227,11.3807119 L19.1988937,11.3807119 L19.1988937,11.3739175 C20.0483634,11.2973677 20.7140452,10.5834456 20.7140452,9.71404521 C20.7140452,8.84464482 20.0483634,8.13072275 19.1988937,8.05417294 L19.1988937,8.04737854 L12.532227,8.04737854 L12.532227,8.05417294 Z" id="Combined-Shape-Copy-9" fill="#00A1D4" transform="translate(15.714045, 9.714045) rotate(-45.000000) translate(-15.714045, -9.714045) "></path>
                        </g>
                        <g id="rs6" transform="translate(60.500000, 33.000000) rotate(90.000000) translate(-60.500000, -33.000000) translate(50.500000, 25.500000)">
                            <path d="M11.8181818,8.0067944 C11.7682785,8.00229737 11.7177409,8 11.6666667,8 C10.7461921,8 10,8.74619208 10,9.66666667 C10,10.5871412 10.7461921,11.3333333 11.6666667,11.3333333 C11.7177409,11.3333333 11.7682785,11.331036 11.8181818,11.3265389 L11.8181818,11.3333333 L18.4848485,11.3333333 L18.4848485,11.3265389 C19.3343182,11.2499891 20,10.5360671 20,9.66666667 C20,8.79726628 19.3343182,8.08334421 18.4848485,8.0067944 L18.4848485,8 L11.8181818,8 L11.8181818,8.0067944 Z" id="Combined-Shape-Copy-11" fill="#0053F0" transform="translate(15.000000, 9.666667) rotate(-45.000000) translate(-15.000000, -9.666667) "></path>
                            <path d="M6.81818182,4.0067944 C6.76827848,4.00229737 6.71774086,4 6.66666667,4 C5.74619208,4 5,4.74619208 5,5.66666667 C5,6.58714125 5.74619208,7.33333333 6.66666667,7.33333333 C6.71774086,7.33333333 6.76827848,7.33103597 6.81818182,7.32653894 L6.81818182,7.33333333 L13.4848485,7.33333333 L13.4848485,7.32653894 C14.3343182,7.24998912 15,6.53606705 15,5.66666667 C15,4.79726628 14.3343182,4.08334421 13.4848485,4.0067944 L13.4848485,4 L6.81818182,4 L6.81818182,4.0067944 Z" id="Combined-Shape-Copy-28" fill="#775D7B" transform="translate(10.000000, 5.666667) rotate(90.000000) translate(-10.000000, -5.666667) "></path>
                            <path d="M1.81818182,8.0067944 C1.76827848,8.00229737 1.71774086,8 1.66666667,8 C0.746192084,8 0,8.74619208 0,9.66666667 C0,10.5871412 0.746192084,11.3333333 1.66666667,11.3333333 C1.71774086,11.3333333 1.76827848,11.331036 1.81818182,11.3265389 L1.81818182,11.3333333 L8.48484848,11.3333333 L8.48484848,11.3265389 C9.33431818,11.2499891 10,10.5360671 10,9.66666667 C10,8.79726628 9.33431818,8.08334421 8.48484848,8.0067944 L8.48484848,8 L1.81818182,8 L1.81818182,8.0067944 Z" id="Combined-Shape-Copy-21" fill="#E728E4" transform="translate(5.000000, 9.666667) rotate(45.000000) translate(-5.000000, -9.666667) "></path>
                        </g>
                        <g id="rs5" transform="translate(53.374369, 14.727922) rotate(45.000000) translate(-53.374369, -14.727922) translate(42.874369, 7.727922)">
                            <path d="M7.48484848,3.34012773 C7.43494515,3.3356307 7.38440753,3.33333333 7.33333333,3.33333333 C6.41285875,3.33333333 5.66666667,4.07952542 5.66666667,5 C5.66666667,5.92047458 6.41285875,6.66666667 7.33333333,6.66666667 C7.38440753,6.66666667 7.43494515,6.6643693 7.48484848,6.65987227 L7.48484848,6.66666667 L14.1515152,6.66666667 L14.1515152,6.65987227 C15.0009849,6.58332246 15.6666667,5.86940039 15.6666667,5 C15.6666667,4.13059961 15.0009849,3.41667754 14.1515152,3.34012773 L14.1515152,3.33333333 L7.48484848,3.33333333 L7.48484848,3.34012773 Z" id="Combined-Shape-Copy-13" fill="#4EA700" transform="translate(10.666667, 5.000000) rotate(90.000000) translate(-10.666667, -5.000000) "></path>
                            <path d="M1.81818182,7.0067944 C1.76827848,7.00229737 1.71774086,7 1.66666667,7 C0.746192084,7 0,7.74619208 0,8.66666667 C0,9.58714125 0.746192084,10.3333333 1.66666667,10.3333333 C1.71774086,10.3333333 1.76827848,10.331036 1.81818182,10.3265389 L1.81818182,10.3333333 L8.48484848,10.3333333 L8.48484848,10.3265389 C9.33431818,10.2499891 10,9.53606705 10,8.66666667 C10,7.79726628 9.33431818,7.08334421 8.48484848,7.0067944 L8.48484848,7 L1.81818182,7 L1.81818182,7.0067944 Z" id="Combined-Shape-Copy-19" fill="#FFFB87" transform="translate(5.000000, 8.666667) rotate(45.000000) translate(-5.000000, -8.666667) "></path>
                            <path d="M12.8181818,7.0067944 C12.7682785,7.00229737 12.7177409,7 12.6666667,7 C11.7461921,7 11,7.74619208 11,8.66666667 C11,9.58714125 11.7461921,10.3333333 12.6666667,10.3333333 C12.7177409,10.3333333 12.7682785,10.331036 12.8181818,10.3265389 L12.8181818,10.3333333 L19.4848485,10.3333333 L19.4848485,10.3265389 C20.3343182,10.2499891 21,9.53606705 21,8.66666667 C21,7.79726628 20.3343182,7.08334421 19.4848485,7.0067944 L19.4848485,7 L12.8181818,7 L12.8181818,7.0067944 Z" id="Combined-Shape-Copy-16" fill="#645986" transform="translate(16.000000, 8.666667) rotate(-45.000000) translate(-16.000000, -8.666667) "></path>
                        </g>
                        <g id="rs4" transform="translate(25.000000, 0.000000)">
                            <path d="M11.532227,8.05417294 C11.4823237,8.04967591 11.4317861,8.04737854 11.3807119,8.04737854 C10.4602373,8.04737854 9.71404521,8.79357062 9.71404521,9.71404521 C9.71404521,10.6345198 10.4602373,11.3807119 11.3807119,11.3807119 C11.4317861,11.3807119 11.4823237,11.3784145 11.532227,11.3739175 L11.532227,11.3807119 L18.1988937,11.3807119 L18.1988937,11.3739175 C19.0483634,11.2973677 19.7140452,10.5834456 19.7140452,9.71404521 C19.7140452,8.84464482 19.0483634,8.13072275 18.1988937,8.05417294 L18.1988937,8.04737854 L11.532227,8.04737854 L11.532227,8.05417294 Z" id="Combined-Shape" fill="#CC4E06" transform="translate(14.714045, 9.714045) rotate(-45.000000) translate(-14.714045, -9.714045) "></path>
                            <path d="M1.53222703,7.55417294 C1.48232369,7.54967591 1.43178607,7.54737854 1.38071187,7.54737854 C0.460237292,7.54737854 -0.285954792,8.29357062 -0.285954792,9.21404521 C-0.285954792,10.1345198 0.460237292,10.8807119 1.38071187,10.8807119 C1.43178607,10.8807119 1.48232369,10.8784145 1.53222703,10.8739175 L1.53222703,10.8807119 L8.19889369,10.8807119 L8.19889369,10.8739175 C9.04836339,10.7973677 9.71404521,10.0834456 9.71404521,9.21404521 C9.71404521,8.34464482 9.04836339,7.63072275 8.19889369,7.55417294 L8.19889369,7.54737854 L1.53222703,7.54737854 L1.53222703,7.55417294 Z" id="Combined-Shape-Copy-30" fill="#2DF2EE" transform="translate(4.714045, 9.214045) rotate(45.000000) translate(-4.714045, -9.214045) "></path>
                            <path d="M6.48484848,3.34012773 C6.43494515,3.3356307 6.38440753,3.33333333 6.33333333,3.33333333 C5.41285875,3.33333333 4.66666667,4.07952542 4.66666667,5 C4.66666667,5.92047458 5.41285875,6.66666667 6.33333333,6.66666667 C6.38440753,6.66666667 6.43494515,6.6643693 6.48484848,6.65987227 L6.48484848,6.66666667 L13.1515152,6.66666667 L13.1515152,6.65987227 C14.0009849,6.58332246 14.6666667,5.86940039 14.6666667,5 C14.6666667,4.13059961 14.0009849,3.41667754 13.1515152,3.34012773 L13.1515152,3.33333333 L6.48484848,3.33333333 L6.48484848,3.34012773 Z" id="Combined-Shape-Copy-24" fill="#16B809" transform="translate(9.666667, 5.000000) rotate(90.000000) translate(-9.666667, -5.000000) "></path>
                        </g>
                        <g id="rs3" transform="translate(13.727922, 14.727922) scale(-1, 1) rotate(45.000000) translate(-13.727922, -14.727922) translate(3.227922, 7.227922)">
                            <path d="M1.81818182,8.0067944 C1.76827848,8.00229737 1.71774086,8 1.66666667,8 C0.746192084,8 0,8.74619208 0,9.66666667 C0,10.5871412 0.746192084,11.3333333 1.66666667,11.3333333 C1.71774086,11.3333333 1.76827848,11.331036 1.81818182,11.3265389 L1.81818182,11.3333333 L8.48484848,11.3333333 L8.48484848,11.3265389 C9.33431818,11.2499891 10,10.5360671 10,9.66666667 C10,8.79726628 9.33431818,8.08334421 8.48484848,8.0067944 L8.48484848,8 L1.81818182,8 L1.81818182,8.0067944 Z" id="Combined-Shape-Copy-8" fill="#E2D951" transform="translate(5.000000, 9.666667) rotate(45.000000) translate(-5.000000, -9.666667) "></path>
                            <path d="M6.81818182,4.0067944 C6.76827848,4.00229737 6.71774086,4 6.66666667,4 C5.74619208,4 5,4.74619208 5,5.66666667 C5,6.58714125 5.74619208,7.33333333 6.66666667,7.33333333 C6.71774086,7.33333333 6.76827848,7.33103597 6.81818182,7.32653894 L6.81818182,7.33333333 L13.4848485,7.33333333 L13.4848485,7.32653894 C14.3343182,7.24998912 15,6.53606705 15,5.66666667 C15,4.79726628 14.3343182,4.08334421 13.4848485,4.0067944 L13.4848485,4 L6.81818182,4 L6.81818182,4.0067944 Z" id="Combined-Shape-Copy-5" fill="#8FE388" transform="translate(10.000000, 5.666667) rotate(90.000000) translate(-10.000000, -5.666667) "></path>
                            <path d="M12.532227,8.05417294 C12.4823237,8.04967591 12.4317861,8.04737854 12.3807119,8.04737854 C11.4602373,8.04737854 10.7140452,8.79357062 10.7140452,9.71404521 C10.7140452,10.6345198 11.4602373,11.3807119 12.3807119,11.3807119 C12.4317861,11.3807119 12.4823237,11.3784145 12.532227,11.3739175 L12.532227,11.3807119 L19.1988937,11.3807119 L19.1988937,11.3739175 C20.0483634,11.2973677 20.7140452,10.5834456 20.7140452,9.71404521 C20.7140452,8.84464482 20.0483634,8.13072275 19.1988937,8.05417294 L19.1988937,8.04737854 L12.532227,8.04737854 L12.532227,8.05417294 Z" id="Combined-Shape-Copy-9" fill="#00A1D4" transform="translate(15.714045, 9.714045) rotate(-45.000000) translate(-15.714045, -9.714045) "></path>
                        </g>
                        <g id="rs2" transform="translate(7.500000, 34.000000) rotate(-90.000000) translate(-7.500000, -34.000000) translate(-2.500000, 26.500000)">
                            <path d="M11.8181818,8.0067944 C11.7682785,8.00229737 11.7177409,8 11.6666667,8 C10.7461921,8 10,8.74619208 10,9.66666667 C10,10.5871412 10.7461921,11.3333333 11.6666667,11.3333333 C11.7177409,11.3333333 11.7682785,11.331036 11.8181818,11.3265389 L11.8181818,11.3333333 L18.4848485,11.3333333 L18.4848485,11.3265389 C19.3343182,11.2499891 20,10.5360671 20,9.66666667 C20,8.79726628 19.3343182,8.08334421 18.4848485,8.0067944 L18.4848485,8 L11.8181818,8 L11.8181818,8.0067944 Z" id="Combined-Shape-Copy-10" fill="#A39E26" transform="translate(15.000000, 9.666667) rotate(-45.000000) translate(-15.000000, -9.666667) "></path>
                            <path d="M6.81818182,3.34012773 C6.76827848,3.3356307 6.71774086,3.33333333 6.66666667,3.33333333 C5.74619208,3.33333333 5,4.07952542 5,5 C5,5.92047458 5.74619208,6.66666667 6.66666667,6.66666667 C6.71774086,6.66666667 6.76827848,6.6643693 6.81818182,6.65987227 L6.81818182,6.66666667 L13.4848485,6.66666667 L13.4848485,6.65987227 C14.3343182,6.58332246 15,5.86940039 15,5 C15,4.13059961 14.3343182,3.41667754 13.4848485,3.34012773 L13.4848485,3.33333333 L6.81818182,3.33333333 L6.81818182,3.34012773 Z" id="Combined-Shape-Copy-4" fill="#4D1DE1" transform="translate(10.000000, 5.000000) rotate(90.000000) translate(-10.000000, -5.000000) "></path>
                            <path d="M1.81818182,8.0067944 C1.76827848,8.00229737 1.71774086,8 1.66666667,8 C0.746192084,8 0,8.74619208 0,9.66666667 C0,10.5871412 0.746192084,11.3333333 1.66666667,11.3333333 C1.71774086,11.3333333 1.76827848,11.331036 1.81818182,11.3265389 L1.81818182,11.3333333 L8.48484848,11.3333333 L8.48484848,11.3265389 C9.33431818,11.2499891 10,10.5360671 10,9.66666667 C10,8.79726628 9.33431818,8.08334421 8.48484848,8.0067944 L8.48484848,8 L1.81818182,8 L1.81818182,8.0067944 Z" id="Combined-Shape-Copy-22" fill="#AF0810" transform="translate(5.000000, 9.666667) rotate(45.000000) translate(-5.000000, -9.666667) "></path>
                        </g>
                        <g id="rs1" transform="translate(14.629165, 52.910254) rotate(-120.000000) translate(-14.629165, -52.910254) translate(3.629165, 46.410254)">
                            <path d="M13.8181818,6.27474359 C13.7682785,6.27024656 13.7177409,6.26794919 13.6666667,6.26794919 C12.7461921,6.26794919 12,7.01414128 12,7.93461586 C12,8.85509044 12.7461921,9.60128253 13.6666667,9.60128253 C13.7177409,9.60128253 13.7682785,9.59898516 13.8181818,9.59448813 L13.8181818,9.60128253 L20.4848485,9.60128253 L20.4848485,9.59448813 C21.3343182,9.51793831 22,8.80401625 22,7.93461586 C22,7.06521547 21.3343182,6.3512934 20.4848485,6.27474359 L20.4848485,6.26794919 L13.8181818,6.26794919 L13.8181818,6.27474359 Z" id="Combined-Shape-Copy-10" fill="#FFFB87" transform="translate(17.000000, 7.934616) rotate(-45.000000) translate(-17.000000, -7.934616) "></path>
                            <path d="M7.81818182,3.34012773 C7.76827848,3.3356307 7.71774086,3.33333333 7.66666667,3.33333333 C6.74619208,3.33333333 6,4.07952542 6,5 C6,5.92047458 6.74619208,6.66666667 7.66666667,6.66666667 C7.71774086,6.66666667 7.76827848,6.6643693 7.81818182,6.65987227 L7.81818182,6.66666667 L14.4848485,6.66666667 L14.4848485,6.65987227 C15.3343182,6.58332246 16,5.86940039 16,5 C16,4.13059961 15.3343182,3.41667754 14.4848485,3.34012773 L14.4848485,3.33333333 L7.81818182,3.33333333 L7.81818182,3.34012773 Z" id="Combined-Shape-Copy-4" fill="#645986" transform="translate(11.000000, 5.000000) rotate(90.000000) translate(-11.000000, -5.000000) "></path>
                            <path d="M1.58613101,6.14076899 C1.53622767,6.13627196 1.48569005,6.1339746 1.43461586,6.1339746 C0.514141276,6.1339746 -0.232050808,6.88016668 -0.232050808,7.80064126 C-0.232050808,8.72111585 0.514141276,9.46730793 1.43461586,9.46730793 C1.48569005,9.46730793 1.53622767,9.46501056 1.58613101,9.46051353 L1.58613101,9.46730793 L8.25279768,9.46730793 L8.25279768,9.46051353 C9.10226738,9.38396372 9.76794919,8.67004165 9.76794919,7.80064126 C9.76794919,6.93124088 9.10226738,6.21731881 8.25279768,6.14076899 L8.25279768,6.1339746 L1.58613101,6.1339746 L1.58613101,6.14076899 Z" id="Combined-Shape-Copy-22" fill="#DD1B6E" transform="translate(4.767949, 7.800641) rotate(45.000000) translate(-4.767949, -7.800641) "></path>
                        </g>
                    </g>
                    <path d="M6.66989273,64.8752454 C6.66836128,64.7052708 6.66759393,64.5351137 6.66759393,64.3647773 C6.66759393,33.7129737 31.5157903,8.8647773 62.1675939,8.8647773 C68.577519,8.8647773 74.733644,9.95142487 80.4618033,11.9505544 L78.3838248,17.3847272 C73.4416698,15.7497112 68.1579756,14.8647773 62.6675939,14.8647773 C35.0533564,14.8647773 12.6675939,37.2505398 12.6675939,64.8647773 C12.6675939,64.8682668 12.6675943,64.8717561 12.667595,64.8752454 L6.66989273,64.8752454 Z" id="Combined-Shape" stroke="#050808" fill="#079391" opacity="0.643831623" transform="translate(43.564699, 36.870011) rotate(14.000000) translate(-43.564699, -36.870011) "></path>
                </g>
                <g id="Rectangle-3" transform="translate(197.789963, 68.462097) rotate(79.000000) translate(-197.789963, -68.462097) ">
                    <use fill="#B8F1EB" fill-rule="evenodd" xlink:href="#path-1"></use>
                    <rect stroke="#050808" stroke-width="1" x="142.789963" y="65.4620972" width="110" height="6" rx="3"></rect>
                </g>
                <g id="Rectangle-3-Copy-3" transform="translate(154.691036, 68.685124) rotate(-41.000000) translate(-154.691036, -68.685124) ">
                    <use fill="#B8F1EB" fill-rule="evenodd" xlink:href="#path-2"></use>
                    <rect stroke="#050808" stroke-width="1" x="104.191036" y="65.6851243" width="101" height="6" rx="3"></rect>
                </g>
                <g id="Rectangle-3-Copy-5" transform="translate(158.389653, 83.221734) rotate(-50.000000) translate(-158.389653, -83.221734) ">
                    <use fill="#B8F1EB" fill-rule="evenodd" xlink:href="#path-3"></use>
                    <rect stroke="#050808" stroke-width="1" x="104.389653" y="80.2217337" width="108" height="6" rx="3"></rect>
                </g>
                <g id="Rectangle-3-Copy-2" transform="translate(80.411260, 100.182690) rotate(-44.000000) translate(-80.411260, -100.182690) ">
                    <use fill="#B8F1EB" fill-rule="evenodd" xlink:href="#path-4"></use>
                    <rect stroke="#050808" stroke-width="1" x="47.8217108" y="97.1826899" width="65.1790982" height="6" rx="3"></rect>
                </g>
                <g id="Rectangle-3-Copy" transform="translate(106.211001, 86.608333) rotate(59.000000) translate(-106.211001, -86.608333) ">
                    <use fill="#B8F1EB" fill-rule="evenodd" xlink:href="#path-5"></use>
                    <rect stroke="#050808" stroke-width="1" x="61.8318717" y="83.6083328" width="88.7582588" height="6" rx="3"></rect>
                </g>
                <path d="M134.171369,134.614477 C134.713353,133.182891 135.01,131.630709 135.01,130.009242 C135.01,122.824436 129.185564,117 122.000758,117 C115.966283,117 110.891442,121.108685 109.421105,126.681188 C109.86923,126.814267 110.196076,127.229253 110.196076,127.720579 C110.196076,128.319313 109.710707,128.804682 109.111973,128.804682 C109.090064,128.804682 109.068307,128.804032 109.04672,128.802751 C109.024445,129.044975 109.008811,129.289121 109,129.535006 C109.537955,129.598758 109.955164,130.056417 109.955164,130.611521 C109.955164,131.132848 109.587184,131.568228 109.096794,131.672091 C109.129198,131.926071 109.168926,132.177764 109.215758,132.42695 C109.260669,132.421282 109.306436,132.418361 109.352885,132.418361 C109.951618,132.418361 110.436988,132.90373 110.436988,133.502464 C110.436988,133.947162 110.169235,134.329322 109.786149,134.496525 C109.861861,134.702553 109.942636,134.906135 110.028325,135.107119 C110.120097,135.081875 110.21674,135.068391 110.316532,135.068391 C110.915266,135.068391 111.400636,135.553761 111.400636,136.152495 C111.400636,136.484879 111.251052,136.782325 111.015529,136.981189 C111.155278,137.200923 111.301439,137.41618 111.453748,137.626696 C111.614802,137.531889 111.802508,137.47751 112.002915,137.47751 C112.601649,137.47751 113.087019,137.96288 113.087019,138.561614 C113.087019,138.822134 112.995125,139.061191 112.841983,139.248139 C113.015777,139.420435 113.194407,139.587863 113.377651,139.750199 C113.575569,139.537702 113.857826,139.404805 114.171122,139.404805 C114.769856,139.404805 115.255226,139.890175 115.255226,140.488909 C115.255226,140.690871 115.2,140.879934 115.103825,141.041821 C115.321288,141.178054 115.543068,141.308035 115.768911,141.431514 C115.886073,140.959337 116.312743,140.609365 116.821153,140.609365 C117.419887,140.609365 117.905256,141.094734 117.905256,141.693468 C117.905256,141.917363 117.837384,142.125405 117.721092,142.298142 C117.943576,142.375614 118.168809,142.447216 118.396607,142.51276 C118.467191,141.982272 118.921394,141.573012 119.471184,141.573012 C120.069918,141.573012 120.555287,142.058382 120.555287,142.657116 C120.555287,142.753195 120.542788,142.846356 120.519328,142.93506 C120.771655,142.963662 121.02617,142.985046 121.282663,142.999 C121.279592,142.965755 121.278023,142.932074 121.278023,142.898028 C121.278023,142.299294 121.763392,141.813924 122.362126,141.813924 C122.96086,141.813924 123.44623,142.299294 123.44623,142.898028 C123.44623,142.911803 123.445973,142.925519 123.445463,142.93917 C123.693706,142.911743 123.939845,142.877331 124.183677,142.836136 C124.174,142.7779 124.168965,142.718096 124.168965,142.657116 C124.168965,142.058382 124.654335,141.573012 125.253069,141.573012 C125.726463,141.573012 126.128988,141.876436 126.276773,142.299413 C126.482303,142.227912 126.685489,142.151402 126.886182,142.070028 C126.842732,141.952734 126.818996,141.825873 126.818996,141.693468 C126.818996,141.094734 127.304366,140.609365 127.9031,140.609365 C128.281531,140.609365 128.614675,140.803265 128.808599,141.097136 C128.991778,140.984426 129.171952,140.867304 129.348972,140.745918 C129.271742,140.596817 129.228115,140.427502 129.228115,140.247997 C129.228115,139.649263 129.713485,139.163893 130.312218,139.163893 C130.571667,139.163893 130.809829,139.255033 130.996435,139.407044 C131.173374,139.23763 131.345537,139.063268 131.512703,138.884181 C131.29328,138.685797 131.15541,138.398894 131.15541,138.07979 C131.15541,137.481056 131.64078,136.995686 132.239514,136.995686 C132.467264,136.995686 132.678612,137.065917 132.853081,137.185902 C132.995588,136.970841 133.131873,136.751297 133.261679,136.527529 C133.006201,136.3292 132.841793,136.019135 132.841793,135.670671 C132.841793,135.071937 133.327163,134.586568 133.925897,134.586568 C134.010323,134.586568 134.092495,134.596218 134.171369,134.614477 Z" id="Combined-Shape" stroke="#546678" fill="#CFDEED" transform="translate(122.005000, 129.999500) rotate(8.000000) translate(-122.005000, -129.999500) "></path>
                <circle id="Oval-5" fill="#40352F" cx="122.5" cy="129.5" r="4.5"></circle>
                <g id="Rectangle-3-Copy-6" transform="translate(95.829493, 121.598749) rotate(7.000000) translate(-95.829493, -121.598749) ">
                    <use fill="#B8F1EB" fill-rule="evenodd" xlink:href="#path-6"></use>
                    <path stroke="#050808" stroke-width="1" d="M57.5701954,122.136887 L57.5701914,122.136865 C55.8109598,122.46451 54.5352725,123.999721 54.5352725,125.789203 C54.5352725,125.896758 54.5419832,126.004209 54.5553655,126.110928 C54.7330488,127.527892 56.0257673,128.532532 57.4427343,128.354859 C94.817782,123.668134 116.23501,122.097981 121.918443,123.65614 C126.135345,124.812237 130.224378,126.984342 134.184319,130.168135 C134.564617,130.473898 135.052415,130.612848 135.536751,130.553379 C136.527256,130.431761 137.231628,129.530206 137.110009,128.539701 L136.403396,122.784801 C136.368478,122.500413 136.306479,122.220021 136.218241,121.947433 C134.156289,115.577122 128.901911,112.479572 120.321713,112.63627 C111.655606,112.794537 90.7237687,115.96226 57.5701954,122.136887 Z"></path>
                </g>
                <g id="Rectangle-4">
                    <use fill="#FF7814" fill-rule="evenodd" xlink:href="#path-7"></use>
                    <path stroke="#BF3100" stroke-width="1" d="M68.0385356,36.3235913 C67.9846266,36.3148493 67.9305631,36.3070894 67.8763717,36.3003155 C65.4102819,35.9920543 63.1612261,37.7413199 62.8529649,40.2074096 L62.1986606,45.4418437 C62.1755167,45.6269954 62.1639111,45.8134074 62.1639111,46 C62.1639111,48.4852814 64.1786297,50.5 66.6639111,50.5 L95,50.5 C97.4852814,50.5 99.5,48.4852814 99.5,46 L99.5,45.254504 C99.5,43.0472616 97.8991013,41.1658452 95.7203202,40.8125294 L68.0385356,36.3235913 Z"></path>
                </g>
                <g id="Rectangle-5" transform="translate(165.227028, 9.864577) rotate(-350.000000) translate(-165.227028, -9.864577) ">
                    <use fill="#CFDEED" fill-rule="evenodd" xlink:href="#path-8"></use>
                    <path stroke="#546678" stroke-width="1" d="M163.746297,5.60584763 L142.322353,9.12009035 C141.11398,9.31830384 140.227028,10.362599 140.227028,11.5871205 L140.227028,12.0391282 C140.227028,12.1492247 140.235887,12.2591427 140.253518,12.3678182 C140.435048,13.4867661 141.489294,14.2466931 142.608242,14.0651626 L163.928249,10.60635 L164.081247,10.6052444 L187.83204,14.1069052 C187.932978,14.1217868 188.03487,14.1292576 188.136899,14.1292576 C189.291246,14.1292576 190.227028,13.1934748 190.227028,12.0391282 L190.227028,11.6329914 C190.227028,10.3917666 189.316352,9.33850054 188.088145,9.15920987 L163.746297,5.60584763 Z"></path>
                </g>
                <g id="Rectangle-4-Copy">
                    <use fill="#FF7814" fill-rule="evenodd" xlink:href="#path-9"></use>
                    <path stroke="#BF3100" stroke-width="1" d="M133.253321,2.5533522 C133.204204,2.54538723 133.154946,2.53831707 133.105571,2.53214523 C130.858675,2.25128321 128.809522,3.84506878 128.52866,6.09196494 C128.509572,6.24467088 128.5,6.39841622 128.5,6.55231055 C128.5,8.60207396 130.161662,10.2637355 132.211425,10.2637355 L147.559396,10.2637355 C148.917253,10.2637355 150.018014,9.16297499 150.018014,7.80511805 C150.018014,6.34488418 148.958916,5.10020533 147.517511,4.866464 L133.253321,2.5533522 Z"></path>
                </g>
                <path d="M123.913998,129.975319 L143.336173,148.731095" id="Line-2" stroke="#546678" stroke-width="4" stroke-linecap="round"></path>
                <rect id="Rectangle-6" fill="#40352F" x="135" y="148" width="17" height="5" rx="2.5"></rect>
            </g>
        </g>
    </g>
</svg>