
  <svg viewBox="0 0 500 860" version="1.1" xmlns="http://www.w3.org/2000/svg" xmlns:xlink="http://www.w3.org/1999/xlink">
    <!-- Generator: Sketch 45.1 (43504) - http://www.bohemiancoding.com/sketch -->
    <title>toad</title>
    <desc>Created with Sketch.</desc>
    <defs>
        <radialGradient cx="50%" cy="42.915613%" fx="50%" fy="42.915613%" r="89.6137086%" gradientTransform="translate(0.500000,0.429156),scale(1.000000,0.463575),rotate(145.503315),translate(-0.500000,-0.429156)" id="radialGradient-1">
            <stop stop-color="#F3D3BC" offset="0%"></stop>
            <stop stop-color="#F2D2BA" offset="20.2102462%"></stop>
            <stop stop-color="#EBC3A6" offset="40.2049021%"></stop>
            <stop stop-color="#D69769" offset="100%"></stop>
        </radialGradient>
        <radialGradient cx="24.5734681%" cy="32.6491539%" fx="24.5734681%" fy="32.6491539%" r="76.0900477%" gradientTransform="translate(0.245735,0.326492),scale(1.000000,0.928744),rotate(40.790345),translate(-0.245735,-0.326492)" id="radialGradient-2">
            <stop stop-color="#FCD5AC" offset="0%"></stop>
            <stop stop-color="#F9BD98" offset="34.6319486%"></stop>
            <stop stop-color="#C9926E" offset="100%"></stop>
        </radialGradient>
        <filter x="0.0%" y="0.0%" width="100.0%" height="100.0%" filterUnits="objectBoundingBox" id="filter-3">
            <feGaussianBlur stdDeviation="0" in="SourceGraphic"></feGaussianBlur>
        </filter>
        <radialGradient cx="62.8266002%" cy="58.0689311%" fx="62.8266002%" fy="58.0689311%" r="59.282708%" gradientTransform="translate(0.628266,0.580689),scale(0.651841,1.000000),rotate(180.000000),translate(-0.628266,-0.580689)" id="radialGradient-4">
            <stop stop-color="#E48E5F" offset="0%"></stop>
            <stop stop-color="#B36433" offset="19.4434799%"></stop>
            <stop stop-color="#6E3F0C" offset="49.7059369%"></stop>
            <stop stop-color="#582B06" offset="79.3956153%"></stop>
            <stop stop-color="#5A2D07" offset="86.0461754%"></stop>
            <stop stop-color="#350E01" offset="100%"></stop>
        </radialGradient>
        <radialGradient cx="60.2931239%" cy="54.1714549%" fx="60.2931239%" fy="54.1714549%" r="59.9755096%" gradientTransform="translate(0.602931,0.541715),scale(0.651841,1.000000),rotate(180.000000),translate(-0.602931,-0.541715)" id="radialGradient-5">
            <stop stop-color="#E48D5E" offset="0%"></stop>
            <stop stop-color="#AC612F" offset="20.1683%"></stop>
            <stop stop-color="#6E3F0C" offset="57.5115937%"></stop>
            <stop stop-color="#582B06" offset="92.5862453%"></stop>
            <stop stop-color="#350E01" offset="100%"></stop>
        </radialGradient>
        <radialGradient cx="40.6351235%" cy="40.3900179%" fx="40.6351235%" fy="40.3900179%" r="81.1649195%" gradientTransform="translate(0.406351,0.403900),scale(0.711411,1.000000),rotate(33.555942),translate(-0.406351,-0.403900)" id="radialGradient-6">
            <stop stop-color="#F3EFEF" offset="0%"></stop>
            <stop stop-color="#CDCAC9" offset="42.7455357%"></stop>
            <stop stop-color="#747372" offset="100%"></stop>
        </radialGradient>
        <linearGradient x1="0%" y1="47.8375511%" x2="100%" y2="47.8375524%" id="linearGradient-7">
            <stop stop-color="#E11801" offset="0%"></stop>
            <stop stop-color="#A21100" offset="100%"></stop>
        </linearGradient>
        <linearGradient x1="24.1834718%" y1="7.65722079%" x2="80.974065%" y2="83.2732232%" id="linearGradient-8">
            <stop stop-color="#FDFDFD" offset="0%"></stop>
            <stop stop-color="#A8A892" offset="100%"></stop>
        </linearGradient>
        <linearGradient x1="27.4115955%" y1="6.85997596%" x2="76.9471631%" y2="89.2217548%" id="linearGradient-9">
            <stop stop-color="#FA2212" offset="0%"></stop>
            <stop stop-color="#D11805" offset="73.8270704%"></stop>
            <stop stop-color="#C21400" offset="100%"></stop>
        </linearGradient>
        <path d="M116.210726,67.0574164 C181.816231,67.0574164 226.171453,50.7029567 226.171453,30.5287082 C226.171453,26.1905002 225.043757,20.161339 221.171453,16.7942576 C207.03613,4.50318324 167.708626,0.794257645 116.210726,0.794257645 C66.6435999,0.794257645 27.4494483,6.25150955 10.8171517,17.6205165 C5.43545871,21.2991729 2.4159197,25.5967711 2.17145275,30.5287082 C2.17145275,50.7029567 50.6052221,67.0574164 116.210726,67.0574164 Z" id="path-10"></path>
        <filter x="-10.3%" y="-40.7%" width="120.5%" height="169.4%" filterUnits="objectBoundingBox" id="filter-11">
            <feMorphology radius="2" operator="dilate" in="SourceAlpha" result="shadowSpreadOuter1"></feMorphology>
            <feOffset dx="0" dy="-4" in="shadowSpreadOuter1" result="shadowOffsetOuter1"></feOffset>
            <feGaussianBlur stdDeviation="5" in="shadowOffsetOuter1" result="shadowBlurOuter1"></feGaussianBlur>
            <feColorMatrix values="0 0 0 0 0.0606133078   0 0 0 0 0.0573338604   0 0 0 0 0.0563968755  0 0 0 0.716343976 0" type="matrix" in="shadowBlurOuter1"></feColorMatrix>
        </filter>
        <filter x="-12.1%" y="-46.8%" width="124.1%" height="181.5%" filterUnits="objectBoundingBox" id="filter-12">
            <feGaussianBlur stdDeviation="12.5" in="SourceAlpha" result="shadowBlurInner1"></feGaussianBlur>
            <feOffset dx="0" dy="1" in="shadowBlurInner1" result="shadowOffsetInner1"></feOffset>
            <feComposite in="shadowOffsetInner1" in2="SourceAlpha" operator="arithmetic" k2="-1" k3="1" result="shadowInnerInner1"></feComposite>
            <feColorMatrix values="0 0 0 0 0.494117647   0 0 0 0 0.466666667   0 0 0 0 0.458823529  0 0 0 1 0" type="matrix" in="shadowInnerInner1"></feColorMatrix>
        </filter>
        <radialGradient cx="24.5734681%" cy="32.6491539%" fx="24.5734681%" fy="32.6491539%" r="76.0900477%" gradientTransform="translate(0.245735,0.326492),scale(0.750277,1.000000),rotate(31.017235),translate(-0.245735,-0.326492)" id="radialGradient-13">
            <stop stop-color="#FCD5AC" offset="0%"></stop>
            <stop stop-color="#F9BD98" offset="34.6319486%"></stop>
            <stop stop-color="#C9926E" offset="100%"></stop>
        </radialGradient>
        <path d="M115.217933,173.175533 C178.557308,173.175533 229.904016,124.290653 229.904016,63.9880981 C229.904016,42.8367346 229.904016,33.3527745 220.477763,17.0567173 C195.341087,-4.3522391 42.5395372,-4.3522391 11.5291459,17.0567173 C-1.4652793,26.1841213 0.53185024,42.5553885 0.53185024,63.9880981 C0.53185024,124.290653 51.8785586,173.175533 115.217933,173.175533 Z" id="path-14"></path>
        <filter x="-2.6%" y="-3.5%" width="105.2%" height="107.0%" filterUnits="objectBoundingBox" id="filter-15">
            <feMorphology radius="3" operator="erode" in="SourceAlpha" result="shadowSpreadInner1"></feMorphology>
            <feGaussianBlur stdDeviation="2" in="shadowSpreadInner1" result="shadowBlurInner1"></feGaussianBlur>
            <feOffset dx="0" dy="5" in="shadowBlurInner1" result="shadowOffsetInner1"></feOffset>
            <feComposite in="shadowOffsetInner1" in2="SourceAlpha" operator="arithmetic" k2="-1" k3="1" result="shadowInnerInner1"></feComposite>
            <feColorMatrix values="0 0 0 0 0.549019608   0 0 0 0 0.411764706   0 0 0 0 0.333333333  0 0 0 0.5 0" type="matrix" in="shadowInnerInner1"></feColorMatrix>
        </filter>
        <linearGradient x1="0%" y1="43.4384297%" x2="100%" y2="43.4384286%" id="linearGradient-16">
            <stop stop-color="#000000" offset="0%"></stop>
            <stop stop-color="#525355" offset="26.3736264%"></stop>
            <stop stop-color="#535255" offset="42.6764025%"></stop>
            <stop stop-color="#000000" offset="71.3779641%"></stop>
            <stop stop-color="#000000" offset="100%"></stop>
        </linearGradient>
        <ellipse id="path-17" cx="13.4781308" cy="13.405276" rx="6.74365718" ry="6.70720497"></ellipse>
        <filter x="-163.1%" y="-171.5%" width="426.2%" height="428.0%" filterUnits="objectBoundingBox" id="filter-18">
            <feGaussianBlur stdDeviation="2" in="SourceGraphic"></feGaussianBlur>
        </filter>
        <filter x="-226.1%" y="-234.8%" width="552.3%" height="554.7%" filterUnits="objectBoundingBox" id="filter-19">
            <feMorphology radius="3" operator="dilate" in="SourceAlpha" result="shadowSpreadOuter1"></feMorphology>
            <feOffset dx="0" dy="-1" in="shadowSpreadOuter1" result="shadowOffsetOuter1"></feOffset>
            <feGaussianBlur stdDeviation="5" in="shadowOffsetOuter1" result="shadowBlurOuter1"></feGaussianBlur>
            <feColorMatrix values="0 0 0 0 1   0 0 0 0 1   0 0 0 0 1  0 0 0 0.5 0" type="matrix" in="shadowBlurOuter1"></feColorMatrix>
        </filter>
        <filter x="-177.9%" y="-186.4%" width="455.9%" height="457.8%" filterUnits="objectBoundingBox" id="filter-20">
            <feGaussianBlur stdDeviation="1.5" in="SourceAlpha" result="shadowBlurInner1"></feGaussianBlur>
            <feOffset dx="0" dy="1" in="shadowBlurInner1" result="shadowOffsetInner1"></feOffset>
            <feComposite in="shadowOffsetInner1" in2="SourceAlpha" operator="arithmetic" k2="-1" k3="1" result="shadowInnerInner1"></feComposite>
            <feColorMatrix values="0 0 0 0 0   0 0 0 0 0   0 0 0 0 0  0 0 0 0.5 0" type="matrix" in="shadowInnerInner1"></feColorMatrix>
        </filter>
        <ellipse id="path-21" cx="13.4781308" cy="13.405276" rx="6.74365718" ry="6.70720497"></ellipse>
        <filter x="-163.1%" y="-171.5%" width="426.2%" height="428.0%" filterUnits="objectBoundingBox" id="filter-22">
            <feGaussianBlur stdDeviation="2" in="SourceGraphic"></feGaussianBlur>
        </filter>
        <filter x="-226.1%" y="-234.8%" width="552.3%" height="554.7%" filterUnits="objectBoundingBox" id="filter-23">
            <feMorphology radius="3" operator="dilate" in="SourceAlpha" result="shadowSpreadOuter1"></feMorphology>
            <feOffset dx="0" dy="-1" in="shadowSpreadOuter1" result="shadowOffsetOuter1"></feOffset>
            <feGaussianBlur stdDeviation="5" in="shadowOffsetOuter1" result="shadowBlurOuter1"></feGaussianBlur>
            <feColorMatrix values="0 0 0 0 1   0 0 0 0 1   0 0 0 0 1  0 0 0 0.5 0" type="matrix" in="shadowBlurOuter1"></feColorMatrix>
        </filter>
        <filter x="-177.9%" y="-186.4%" width="455.9%" height="457.8%" filterUnits="objectBoundingBox" id="filter-24">
            <feGaussianBlur stdDeviation="1.5" in="SourceAlpha" result="shadowBlurInner1"></feGaussianBlur>
            <feOffset dx="0" dy="1" in="shadowBlurInner1" result="shadowOffsetInner1"></feOffset>
            <feComposite in="shadowOffsetInner1" in2="SourceAlpha" operator="arithmetic" k2="-1" k3="1" result="shadowInnerInner1"></feComposite>
            <feColorMatrix values="0 0 0 0 0   0 0 0 0 0   0 0 0 0 0  0 0 0 0.5 0" type="matrix" in="shadowInnerInner1"></feColorMatrix>
        </filter>
        <radialGradient cx="20.6408947%" cy="33.4208256%" fx="20.6408947%" fy="33.4208256%" r="75.7206009%" gradientTransform="translate(0.206409,0.334208),scale(1.000000,0.774233),rotate(66.423466),translate(-0.206409,-0.334208)" id="radialGradient-25">
            <stop stop-color="#F3D3BC" offset="0%"></stop>
            <stop stop-color="#F2D2BA" offset="1.82159401%"></stop>
            <stop stop-color="#D69769" offset="100%"></stop>
        </radialGradient>
    </defs>
    <g id="Page-1" stroke="none" stroke-width="1" fill="none" fill-rule="evenodd">
        <g id="toad">
            <path d="M337.231386,529.337757 C337.807508,527.15696 338.624626,525.113739 339.710651,523.269919 L348.197863,512.403106 C348.969746,511.092627 368.192994,497.864474 405.867608,472.718647 L401.50834,548.566693 L391.478039,550.155337 C389.067493,550.53713 377.462579,549.737693 374.999307,549.128617 L370.82148,547.467942 C392.53641,562.641311 404.289531,572.674301 406.080844,577.56691 L409.093269,585.79474 C411.650524,592.779365 412.526087,600.411383 411.600533,607.649807 L409.900277,620.946903 C408.257867,633.791598 399.274563,642.205639 388.917232,640.600272 L384.672745,639.942385 C384.205566,639.869973 383.739574,639.764021 383.277006,639.625038 C376.507357,637.591028 371.814676,629.042493 372.795608,620.53135 C373.994675,610.127551 380.15729,602.322345 388.307186,600.885298 L394.863927,599.729168 L359.175524,586.93665 C353.576575,584.929705 346.205312,576.029038 337.061736,560.234648 C332.943937,550.011301 333.075084,538.366494 337.231386,529.337757 Z" id="armright" fill="url(#radialGradient-1)" transform="translate(373.001025, 556.757405) scale(-1, 1) rotate(17.000000) translate(-373.001025, -556.757405) "></path>
            <path d="M250,750.947961 C317.217296,750.947961 380,730.118648 380,635.274492 C380,602.007524 343.85861,524.061224 326.938776,496.254084 C300.26312,462.581972 214.460007,462.581972 181.55102,496.254084 C167.761018,510.60971 120,592.014001 120,625.723472 C120,720.567627 182.782704,750.947961 250,750.947961 Z" id="bodybase" fill="url(#radialGradient-2)"></path>
            <path d="M183,493.979076 L341,522 C335,508.666667 329.333333,498.993025 324,492.979076 C307,478.958153 320,481 266.5,475 C230.833333,471 203,477.326359 183,493.979076 Z" id="neckshade" fill="#95674E" opacity="0.176888993" style="mix-blend-mode: darken;" filter="url(#filter-3)"></path>
            <path d="M388.957178,825.168808 C443.081084,825.168808 487.858236,809.948596 487.858236,769.907952 C487.858236,729.867308 443.982141,697.407952 389.858236,697.407952 C335.73433,697.407952 291.858236,729.867308 291.858236,769.907952 C291.858236,809.948596 334.833273,825.168808 388.957178,825.168808 Z" id="footright" fill="url(#radialGradient-4)" transform="translate(389.858236, 761.288380) rotate(13.000000) translate(-389.858236, -761.288380) "></path>
            <path d="M141.484522,848.012558 C195.608427,848.012558 240.38558,832.792346 240.38558,792.751702 C240.38558,752.711058 196.509485,720.251702 142.38558,720.251702 C88.2616742,720.251702 44.3855797,752.711058 44.3855797,792.751702 C44.3855797,832.792346 87.3606165,848.012558 141.484522,848.012558 Z" id="footleft" fill="url(#radialGradient-5)" transform="translate(142.385580, 784.132130) scale(-1, 1) rotate(25.000000) translate(-142.385580, -784.132130) "></path>
            <path d="M133,574 C108,623 124.179447,684.673164 145,712 C169.529139,744.19433 211.853722,750.947961 248.210803,750.947961 C295.995678,750.947961 341.14811,757.599897 370,702 C383,676.947961 387,616 365,574 C313.967673,568.666667 275.63434,566 250,566 C224.36566,566 185.36566,568.666667 133,574 Z" id="pants" fill="url(#radialGradient-6)"></path>
            <g id="vestleft" transform="translate(116.000000, 474.000000)">
                <path d="M9,74 L90.7446809,0 C95.3039677,0 99,3.581722 99,8 C100.333333,32.3333333 101.666667,57.6666667 103,84 C105.269011,128.812974 107.255319,169 99,177 C90.7446809,185 74.5592869,187 70,187 L2,177 L9,74 Z" id="Rectangle" fill="#DDDB0B"></path>
                <path d="M9.41499196,74.2442007 C-0.19500268,68.0814002 -2,61.6666667 4,55 C10,48.3333333 35.0121057,33.6666667 79.0363172,11 C82.563246,11 80.5834577,51.4238775 82.1305983,81.9799035 C83.885838,116.645888 85.4223867,147.733377 79.0363172,153.92194 C72.6502476,160.110502 60.1297079,161.657642 56.602779,161.657642 L4,153.92194 L9.41499196,74.2442007 Z" id="Rectangle-Copy" fill="#2706E0"></path>
            </g>
            <g id="vestright" transform="translate(304.000000, 472.000000)">
                <path d="M46.4345764,27.2400296 L66.1274349,3.27856284 C68.3949217,3.27856284 70.2330831,6.61128813 70.2330831,10.7224131 C70.8961946,33.3641243 71.5593062,56.9363169 72.2224178,81.4389907 C73.3508735,123.136624 74.3387313,160.5299 70.2330831,167.97375 C66.1274349,175.4176 58.0778934,177.278563 55.8104065,177.278563 L10.6396673,162.491943 C14.2748205,131.737549 18.6443338,108.288562 23.7482071,92.1449807 C28.8520803,76.0013993 36.4142034,54.3664156 46.4345764,27.2400296 Z" id="Rectangle-Copy-2" fill="#DDDB0B" transform="translate(41.924377, 90.278563) scale(-1, 1) rotate(7.000000) translate(-41.924377, -90.278563) "></path>
                <path d="M41.9005618,26.0505925 L54.807078,5.303592 C56.2931678,5.303592 57.4978817,8.18922726 57.4978817,11.7488387 L60.3120547,74.5651715 C62.8777589,96.862935 63.6593504,116.548222 62.656829,133.621031 C61.7793431,148.564503 51.1778446,153.03512 49.6917548,153.03512 L19.7845462,143.518878 C21.2712353,116.649821 23.6870953,96.2263443 27.0321264,82.2484483 C30.3771575,68.2705523 35.3333026,49.5379337 41.9005618,26.0505925 Z" id="Rectangle-Copy-3" fill="#2706E0" transform="translate(41.431937, 79.169356) scale(-1, 1) rotate(13.000000) translate(-41.431937, -79.169356) "></path>
            </g>
            <g id="hat">
                <ellipse id="redhat" fill="url(#linearGradient-7)" cx="249.995164" cy="205.628563" rx="249.995164" ry="202.486479"></ellipse>
                <path d="M45.5602248,322.023229 C90.2210138,377.184406 162.470688,404.972957 249.995164,404.972957 C335.813413,404.972957 407.733353,378.447672 452.752384,325.084456 L452.752384,85.0096606 C407.343178,34.1168618 333.444001,0 249.995164,0 C163.793201,0 90.5043752,33.2434498 45.5602248,87.0096606 L45.5602248,322.023229 Z" id="whitehat" fill="url(#linearGradient-8)"></path>
                <ellipse id="redcircle" fill="url(#linearGradient-9)" cx="248.604718" cy="140.927398" rx="118.208213" ry="118.932807"></ellipse>
            </g>
            <g id="face" transform="translate(136.000000, 324.000000)">
                <g id="headshadow" fill-opacity="1" fill="black">
                    <use filter="url(#filter-11)" xlink:href="#path-10"></use>
                    <use filter="url(#filter-12)" xlink:href="#path-10"></use>
                </g>
                <g id="head">
                    <use fill="url(#radialGradient-13)" fill-rule="evenodd" xlink:href="#path-14"></use>
                    <use fill="black" fill-opacity="1" filter="url(#filter-15)" xlink:href="#path-14"></use>
                </g>
                <g id="eye-r" transform="translate(151.246308, 29.278760)">
                    <path d="M13.7842426,60.6438432 C21.3970696,60.6438432 27.5684852,48.7497303 27.5684852,30.3219216 C27.5684852,11.8941129 21.3970696,0 13.7842426,0 C6.17141563,0 0,11.8941129 0,30.3219216 C0,48.7497303 6.17141563,60.6438432 13.7842426,60.6438432 Z" id="eye" fill="url(#linearGradient-16)"></path>
                    <g id="shine" filter="url(#filter-18)">
                        <use fill="black" fill-opacity="1" filter="url(#filter-19)" xlink:href="#path-17"></use>
                        <use fill="#FFFFFF" fill-rule="evenodd" xlink:href="#path-17"></use>
                        <use fill="black" fill-opacity="1" filter="url(#filter-20)" xlink:href="#path-17"></use>
                    </g>
                </g>
                <g id="eye-l" transform="translate(53.841689, 29.278760)">
                    <path d="M13.7842426,60.6438432 C21.3970696,60.6438432 27.5684852,48.7497303 27.5684852,30.3219216 C27.5684852,11.8941129 21.3970696,0 13.7842426,0 C6.17141563,0 0,11.8941129 0,30.3219216 C0,48.7497303 6.17141563,60.6438432 13.7842426,60.6438432 Z" id="eye" fill="url(#linearGradient-16)"></path>
                    <g id="shine" filter="url(#filter-22)">
                        <use fill="black" fill-opacity="1" filter="url(#filter-23)" xlink:href="#path-21"></use>
                        <use fill="#FFFFFF" fill-rule="evenodd" xlink:href="#path-21"></use>
                        <use fill="black" fill-opacity="1" filter="url(#filter-24)" xlink:href="#path-21"></use>
                    </g>
                </g>
                <g id="mouth" transform="translate(67.410027, 114.000000)" stroke="#976749" stroke-linecap="square" opacity="0.5">
                    <path d="M1.57104223,7.51798654 C16.0828704,15.1979992 32.1495373,19.0380055 49.771043,19.0380055 C67.3925487,19.0380055 83.4592156,15.1979992 97.9710438,7.51798654" id="Line"></path>
                    <path d="M0.0614133282,0.354764728 C0.585094073,2.54352695 0.846934445,4.93126755 0.846934445,7.51798654 C0.846934445,11.398065 0.0614133282,14.6812083 0.0614133282,14.6812083" id="Line-2-Copy-2"></path>
                    <path d="M98.3227067,0.354764728 C98.8463874,2.54352695 99.1082278,4.93126755 99.1082278,7.51798654 C99.1082278,11.398065 98.3227067,14.6812083 98.3227067,14.6812083" id="Line-2-Copy-3" transform="translate(98.822707, 7.517987) scale(-1, 1) translate(-98.822707, -7.517987) "></path>
                </g>
            </g>
            <path d="M153.300878,498.20688 C149.554366,497.475785 145.645741,497.535129 141.830731,498.446007 L130.621629,501.122311 L130.621629,501.122311 C119.86281,503.691104 109.783724,508.547735 101.070418,515.36163 C88.2330114,525.400614 81.3850185,530.927447 80.526439,531.942131 L70.6854884,543.57233 C67.6725808,547.133034 65.5850308,551.25887 64.4703982,555.608408 C62.1513454,562.848645 62.6311701,570.698991 66.12355,577.682077 L68.9884601,583.410525 C73.7595071,592.950332 82.967258,599.867681 94.0527363,602.240133 L141.159556,612.321671 L132.269717,613.88919 C121.219827,615.837583 112.41353,623.863365 110.103873,634.090441 C108.214389,642.45701 113.947733,650.479338 122.909656,652.008813 C123.522022,652.113321 124.141205,652.185385 124.764235,652.224659 L130.424681,652.581471 C144.237212,653.45216 156.875369,644.643321 159.944667,632.00594 L163.122068,618.923458 C164.851722,611.801863 164.187086,604.417261 161.218815,597.776892 L157.722216,589.954593 C155.82287,585.705537 143.03904,577.830871 119.370724,566.330595 C125.30197,566.492408 134.134087,566.428176 136.502703,566.053024 L150.102105,563.89909 C152.02508,563.594521 153.890989,563.105316 155.679292,562.448246 C171.22898,559.635214 183,546.401208 183,530.5 C183,513.797529 170.012805,500.037832 153.300878,498.20688 Z" id="armleft" fill="url(#radialGradient-25)"></path>
        </g>
    </g>
</svg>
