<?xml version="1.0" encoding="UTF-8" standalone="no"?>
<svg  viewBox="0 0 874 619" version="1.1" xmlns="http://www.w3.org/2000/svg" xmlns:xlink="http://www.w3.org/1999/xlink">
    <!-- Generator: Sketch 45.2 (43514) - http://www.bohemiancoding.com/sketch -->
    <title>w3d2lego_trex</title>
    <desc>Created with Sketch.</desc>
    <defs>
        <path d="M1.12703631,43.494536 C22.6504622,43.494536 87.073829,43.6411821 128.703125,44.494536 C154.370142,45.0206811 160.330078,50.9121094 167.746094,60.0585938 C168.167554,60.5783983 172.398674,59.8703905 180.439453,57.9345703 L189.515625,51.265625 L197.546875,44.494536 C191.796745,39.1332356 187.513542,35.6497054 184.697266,34.0439453 C172.209641,26.923859 163.389676,25.1058214 161.535156,24.3126127 C155.079128,21.5512632 139.286281,27.5626898 128.703125,24.3126127 C118.119969,21.0625356 91.1744808,7.14352943 62.3912296,0.987938558 C51.7783273,-1.28173848 35.2444983,0.770125146 12.7897424,7.14352943 C3.97914646,13.676905 0.0915777575,25.7939072 1.12703631,43.494536 Z" id="path-1"></path>
        <filter x="-1.0%" y="-3.3%" width="102.0%" height="106.7%" filterUnits="objectBoundingBox" id="filter-2">
            <feGaussianBlur stdDeviation="1.5" in="SourceAlpha" result="shadowBlurInner1"></feGaussianBlur>
            <feOffset dx="0" dy="1" in="shadowBlurInner1" result="shadowOffsetInner1"></feOffset>
            <feComposite in="shadowOffsetInner1" in2="SourceAlpha" operator="arithmetic" k2="-1" k3="1" result="shadowInnerInner1"></feComposite>
            <feColorMatrix values="0 0 0 0 0.650980392   0 0 0 0 0.333333333   0 0 0 0 0.219607843  0 0 0 1 0" type="matrix" in="shadowInnerInner1"></feColorMatrix>
        </filter>
        <linearGradient x1="50%" y1="68.1148352%" x2="50%" y2="93.6808361%" id="linearGradient-3">
            <stop stop-color="#D8A589" offset="0%"></stop>
            <stop stop-color="#BD8065" offset="51.9497069%"></stop>
            <stop stop-color="#AF6C51" offset="100%"></stop>
        </linearGradient>
        <linearGradient x1="53.3770632%" y1="22.1107631%" x2="50%" y2="69.3571895%" id="linearGradient-4">
            <stop stop-color="#E38762" offset="0%"></stop>
            <stop stop-color="#E9794F" offset="82.987925%"></stop>
            <stop stop-color="#BD6343" offset="94.5695432%"></stop>
            <stop stop-color="#BD6140" offset="100%"></stop>
        </linearGradient>
        <path d="M48.5560164,0.598342658 C167.48433,67.3713743 255.220524,104.870445 311.764597,113.095554 L473.878086,113.095554 L473.878086,113.095554 C478.296364,113.095554 481.878086,116.677276 481.878086,121.095554 C481.878086,121.482799 481.849969,121.869533 481.793956,122.252705 L462.014913,257.557702 C368.325661,266.519318 304.89946,271.000125 271.736309,271.000125 C191.331739,271.000125 249.704847,201.62177 144.096344,198.801506 C63.69695,196.654448 15.6648354,208.213015 2.84217094e-14,233.477208 L48.5560164,0.598342658 Z" id="path-5"></path>
        <path d="M107,131.358533 C160.857936,131.358533 214,81.8077232 214,52.7014925 C214,23.5952619 151.376355,0 97.5184193,0 C43.6604835,0 0,23.5952619 0,52.7014925 C0,81.8077232 53.1420642,131.358533 107,131.358533 Z" id="path-7"></path>
        <path d="M12,197.263497 C35.4721019,197.263497 102,69.0766714 102,44.5 C102,19.9233286 82.9721019,0 59.5,0 C36.0278981,0 18,7.39947308 13,44.5 C8,81.6005269 -11.4721019,197.263497 12,197.263497 Z" id="path-9"></path>
        <filter x="-3.9%" y="-2.0%" width="107.9%" height="104.1%" filterUnits="objectBoundingBox" id="filter-10">
            <feGaussianBlur stdDeviation="1.5" in="SourceAlpha" result="shadowBlurInner1"></feGaussianBlur>
            <feOffset dx="5" dy="1" in="shadowBlurInner1" result="shadowOffsetInner1"></feOffset>
            <feComposite in="shadowOffsetInner1" in2="SourceAlpha" operator="arithmetic" k2="-1" k3="1" result="shadowInnerInner1"></feComposite>
            <feColorMatrix values="0 0 0 0 0.631372549   0 0 0 0 0.31372549   0 0 0 0 0.164705882  0 0 0 1 0" type="matrix" in="shadowInnerInner1"></feColorMatrix>
        </filter>
        <path d="M11.1270363,197.494536 C32.6504622,197.494536 97.073829,197.641182 138.703125,198.494536 C164.370142,199.020681 170.330078,204.912109 177.746094,214.058594 C178.167554,214.578398 182.398674,213.87039 190.439453,211.93457 L199.515625,205.265625 L207.546875,198.494536 C201.796745,193.133236 197.513542,189.649705 194.697266,188.043945 C182.209641,180.923859 173.389676,179.105821 171.535156,178.312613 C165.079128,175.551263 149.286281,181.56269 138.703125,178.312613 C128.119969,175.062536 101.174481,161.143529 72.3912296,154.987939 C61.7783273,152.718262 45.2444983,154.770125 22.7897424,161.143529 C13.9791465,167.676905 10.0915778,179.793907 11.1270363,197.494536 Z" id="path-11"></path>
        <filter x="-1.0%" y="-3.3%" width="102.0%" height="106.7%" filterUnits="objectBoundingBox" id="filter-12">
            <feGaussianBlur stdDeviation="1.5" in="SourceAlpha" result="shadowBlurInner1"></feGaussianBlur>
            <feOffset dx="0" dy="1" in="shadowBlurInner1" result="shadowOffsetInner1"></feOffset>
            <feComposite in="shadowOffsetInner1" in2="SourceAlpha" operator="arithmetic" k2="-1" k3="1" result="shadowInnerInner1"></feComposite>
            <feColorMatrix values="0 0 0 0 0.650980392   0 0 0 0 0.333333333   0 0 0 0 0.219607843  0 0 0 1 0" type="matrix" in="shadowInnerInner1"></feColorMatrix>
        </filter>
        <ellipse id="path-13" cx="18" cy="98.8724696" rx="9" ry="72.3097166"></ellipse>
        <filter x="-44.1%" y="-8.3%" width="232.7%" height="116.5%" filterUnits="objectBoundingBox" id="filter-14">
            <feGaussianBlur stdDeviation="1.98184743" in="SourceGraphic"></feGaussianBlur>
        </filter>
        <filter x="-71.9%" y="-11.7%" width="288.3%" height="123.4%" filterUnits="objectBoundingBox" id="filter-15">
            <feMorphology radius="1" operator="dilate" in="SourceAlpha" result="shadowSpreadOuter1"></feMorphology>
            <feOffset dx="4" dy="0" in="shadowSpreadOuter1" result="shadowOffsetOuter1"></feOffset>
            <feGaussianBlur stdDeviation="2" in="shadowOffsetOuter1" result="shadowBlurOuter1"></feGaussianBlur>
            <feColorMatrix values="0 0 0 0 0   0 0 0 0 0   0 0 0 0 0  0 0 0 0.5 0" type="matrix" in="shadowBlurOuter1"></feColorMatrix>
        </filter>
        <linearGradient x1="79.4403246%" y1="81.6410745%" x2="61.4493697%" y2="50%" id="linearGradient-16">
            <stop stop-color="#6E4031" offset="0%"></stop>
            <stop stop-color="#331912" offset="100%"></stop>
        </linearGradient>
        <linearGradient x1="0%" y1="39.5602387%" x2="100%" y2="39.5602375%" id="linearGradient-17">
            <stop stop-color="#CB9778" stop-opacity="0.7" offset="0%"></stop>
            <stop stop-color="#9B5E43" stop-opacity="0.7" offset="100%"></stop>
        </linearGradient>
        <filter x="-2.3%" y="-4.2%" width="104.7%" height="108.3%" filterUnits="objectBoundingBox" id="filter-18">
            <feGaussianBlur stdDeviation="1" in="SourceGraphic"></feGaussianBlur>
        </filter>
        <filter x="-2.7%" y="-4.7%" width="105.5%" height="109.4%" filterUnits="objectBoundingBox" id="filter-19">
            <feGaussianBlur stdDeviation="1" in="SourceGraphic"></feGaussianBlur>
        </filter>
        <linearGradient x1="100%" y1="0%" x2="0%" y2="0%" id="linearGradient-20">
            <stop stop-color="#DDD5D8" offset="0%"></stop>
            <stop stop-color="#ABA7A9" offset="100%"></stop>
        </linearGradient>
        <radialGradient cx="81.399881%" cy="79.7814695%" fx="81.399881%" fy="79.7814695%" r="83.2341311%" gradientTransform="translate(0.813999,0.797815),scale(0.632301,1.000000),rotate(-154.553923),translate(-0.813999,-0.797815)" id="radialGradient-21">
            <stop stop-color="#F0BB9D" offset="0%"></stop>
            <stop stop-color="#B8795A" offset="67.9230229%"></stop>
            <stop stop-color="#EFCABA" offset="100%"></stop>
        </radialGradient>
        <radialGradient cx="63.3400559%" cy="0%" fx="63.3400559%" fy="0%" r="104.270774%" gradientTransform="translate(0.633401,0.000000),scale(0.435897,1.000000),rotate(124.121487),translate(-0.633401,-0.000000)" id="radialGradient-22">
            <stop stop-color="#CA8B69" offset="0%"></stop>
            <stop stop-color="#E0BDAA" offset="100%"></stop>
        </radialGradient>
        <ellipse id="path-23" cx="359.045736" cy="176.401561" rx="19.5" ry="8.5"></ellipse>
        <filter x="-7.7%" y="-17.6%" width="115.4%" height="135.3%" filterUnits="objectBoundingBox" id="filter-24">
            <feGaussianBlur stdDeviation="1.5" in="SourceAlpha" result="shadowBlurInner1"></feGaussianBlur>
            <feOffset dx="0" dy="3" in="shadowBlurInner1" result="shadowOffsetInner1"></feOffset>
            <feComposite in="shadowOffsetInner1" in2="SourceAlpha" operator="arithmetic" k2="-1" k3="1" result="shadowInnerInner1"></feComposite>
            <feColorMatrix values="0 0 0 0 0.792156863   0 0 0 0 0.494117647   0 0 0 0 0.364705882  0 0 0 1 0" type="matrix" in="shadowInnerInner1"></feColorMatrix>
        </filter>
        <radialGradient cx="32.2141735%" cy="50%" fx="32.2141735%" fy="50%" r="70.0328825%" gradientTransform="translate(0.322142,0.500000),scale(0.492761,1.000000),rotate(7.290026),translate(-0.322142,-0.500000)" id="radialGradient-25">
            <stop stop-color="#FDF3E9" offset="0%"></stop>
            <stop stop-color="#ECA780" offset="100%"></stop>
        </radialGradient>
        <path d="M286.233613,196.998506 C305.563579,196.998506 334.136769,200.101072 335.457478,180.146662 C336.778188,160.192253 305.563579,152.998506 286.233613,152.998506 C266.903647,152.998506 245.851109,162.678957 245.851109,174.829222 C245.851109,186.979486 266.903647,196.998506 286.233613,196.998506 Z" id="path-26"></path>
        <filter x="-6.1%" y="-12.5%" width="112.3%" height="124.9%" filterUnits="objectBoundingBox" id="filter-27">
            <feMorphology radius="3" operator="erode" in="SourceAlpha" result="shadowSpreadInner1"></feMorphology>
            <feGaussianBlur stdDeviation="2" in="shadowSpreadInner1" result="shadowBlurInner1"></feGaussianBlur>
            <feOffset dx="0" dy="4" in="shadowBlurInner1" result="shadowOffsetInner1"></feOffset>
            <feComposite in="shadowOffsetInner1" in2="SourceAlpha" operator="arithmetic" k2="-1" k3="1" result="shadowInnerInner1"></feComposite>
            <feColorMatrix values="0 0 0 0 0.905882353   0 0 0 0 0.623529412   0 0 0 0 0.482352941  0 0 0 1 0" type="matrix" in="shadowInnerInner1"></feColorMatrix>
        </filter>
        <path d="M87.0389923,107.466767 C122.385216,107.466767 172.949803,105.285027 172.949803,85.6789186 C172.949803,76.9223107 143.793293,53.0462271 132.945726,44.2815687 C119.505512,33.4220933 4.73817939,83.1918189 4.73817939,102.797928 C4.73817939,122.404036 51.6927683,107.466767 87.0389923,107.466767 Z" id="path-28"></path>
        <filter x="-1.4%" y="-3.7%" width="102.8%" height="107.4%" filterUnits="objectBoundingBox" id="filter-30">
            <feGaussianBlur stdDeviation="1" in="SourceGraphic"></feGaussianBlur>
        </filter>
        <linearGradient x1="41.9942123%" y1="4.92835736%" x2="91.1515874%" y2="82.4024753%" id="linearGradient-31">
            <stop stop-color="#CF6E49" offset="0%"></stop>
            <stop stop-color="#AE663B" offset="22.9686954%"></stop>
            <stop stop-color="#CF6D48" offset="100%"></stop>
        </linearGradient>
    </defs>
    <g id="Page-1" stroke="none" stroke-width="1" fill="none" fill-rule="evenodd">
        <g id="trex" transform="translate(-60.000000, 44.000000)">
            <g id="body">
                <g id="armback" transform="translate(98.046226, 392.568097) rotate(81.000000) translate(-98.046226, -392.568097) translate(-5.453774, 350.568097)">
                    <path d="M161.080241,76.3589681 C162.018863,77.7865071 163.835583,78.7924488 166.530401,79.3767932 C173.573046,79.3767932 181.456554,74.0202473 181.456554,66.2882608 C181.456554,61.1336031 178.272837,55.4275752 170.662546,53.1997283 C165.218607,54.2902586 161.173641,55.6690217 158.527646,57.3360177 C165.441465,58.4949385 171.095298,61.324951 171.095298,67.6554807 C171.095298,71.3203186 167.976808,73.7102187 161.739828,74.8251812 L161.739828,74.8251812 C161.196162,74.9223704 160.834222,75.4418862 160.931411,75.9855522 C160.955234,76.118815 161.005866,76.2458532 161.080241,76.3589681 Z" id="claw1" fill="#090808" transform="translate(169.992100, 66.288261) rotate(32.000000) translate(-169.992100, -66.288261) "></path>
                    <path d="M198.863073,77.1354031 C200.692163,74.229824 201.78447,71.9455016 202.139993,70.2824359 C203.143656,65.5875125 204.436334,63.7936928 204.436334,55.7321971 C204.436334,50.3578666 199.676168,42.4059652 191.741554,40.0831756 C183.303183,43.4483708 177.704619,45.9999871 174.945862,47.7380244 C182.154323,48.9463343 193.908314,54.4948456 196.338833,61.3478333 C197.227648,63.8538977 196.85561,68.6099364 195.222719,75.6159494 L195.222719,75.6159494 C194.971997,76.6916874 195.640805,77.7669957 196.716543,78.0177179 C197.54698,78.2112679 198.408807,77.8570204 198.863073,77.1354031 Z" id="claw2" fill="#090808" transform="translate(189.691098, 58.503176) rotate(-10.000000) translate(-189.691098, -58.503176) "></path>
                    <g id="Oval-11">
                        <use fill="#913514" fill-rule="evenodd" xlink:href="#path-1"></use>
                        <use fill="black" fill-opacity="1" filter="url(#filter-2)" xlink:href="#path-1"></use>
                    </g>
                </g>
                <path d="M59.2996333,6.58875474 C177.723578,73.6054806 265.247053,111.241407 321.87006,119.496535 L484.951952,119.496535 L484.951952,119.496535 C489.37023,119.496535 492.951952,123.078257 492.951952,127.496535 C492.951952,127.666024 492.946566,127.835471 492.935801,128.004618 L480.04469,330.571374 L480.04469,330.571374 C479.795179,334.49211 476.735688,337.651455 472.824984,338.026713 C394.221669,345.569235 339.519872,352.120033 308.719592,357.679109 C185.064339,379.997375 148.67981,400.585872 91.0674279,398.903553 C10.6110337,396.554173 -16.5340544,343.742237 9.63216367,240.467743 L9.63216366,240.467743 C9.65765107,240.367148 9.68117872,240.266066 9.70273326,240.164555 L59.2996333,6.58875474 Z" id="Rectangle-5" fill="url(#linearGradient-3)"></path>
                <g id="splotches" transform="translate(10.000000, 3.000000)">
                    <mask id="mask-6" fill="white">
                        <use xlink:href="#path-5"></use>
                    </mask>
                    <use id="Mask" fill="url(#linearGradient-4)" xlink:href="#path-5"></use>
                    <g mask="url(#mask-6)" fill="#462922">
                        <g transform="translate(24.000000, -228.000000)">
                            <path d="M199.406144,314.521339 L180.68929,316.33305 L180.68929,316.33305 C179.779029,316.42116 179.044483,317.115466 178.905284,318.019325 C175.770204,338.376343 175.851052,357.818891 179.147831,376.346971 C182.371143,394.462164 190.840832,412.357737 204.556899,430.033691 L204.556899,430.033691 C205.234058,430.906348 206.490431,431.064831 207.363088,430.387673 C207.617576,430.190197 207.8206,429.934174 207.954891,429.641383 C213.863475,416.759026 218.148657,406.638282 220.810436,399.279152 C225.104334,387.407639 215.705254,385.991316 220.810436,374.54327 C225.915618,363.095224 227.292873,352.896733 241.274395,353.390026 C255.255917,353.883318 257.296875,369.336622 249.097656,383.046875 C254.799202,393.393601 255.557014,402.310342 251.371092,409.797097 L251.371092,409.797097 C250.293006,411.725315 250.982173,414.162406 252.910391,415.240493 C252.917469,415.24445 252.924559,415.248386 252.93166,415.2523 L281.449242,430.969895 L281.449242,430.969895 C282.416611,431.503065 283.633039,431.151077 284.166209,430.183708 C284.32917,429.888037 284.414632,429.555924 284.414632,429.218318 L284.414632,414.978735 L284.414632,414.978735 C284.414632,413.811137 284.924794,412.701824 285.811245,411.941897 L368.565335,340.999383 L330.490097,340.999383 L330.490097,340.999383 C329.944008,340.999383 329.421669,341.22268 329.044336,341.617437 L308.682742,362.919256 L308.682742,362.919256 C304.454502,367.34274 297.440895,367.501018 293.01741,363.272778 C291.688701,362.002716 290.696834,360.422047 290.131167,358.673177 L284.732819,341.983121 L284.732819,341.983121 C284.53324,341.366083 284.046868,340.884118 283.428039,340.690162 L200.196991,314.603578 L200.196991,314.603578 C199.941536,314.523512 199.672607,314.495547 199.406144,314.521339 Z" id="Path-4"></path>
                            <path d="M396.464844,368.730469 C387.745698,368.730469 377.228947,376.223213 364.914589,391.208701 L364.914589,391.208701 C363.444343,392.997861 362.640625,395.241834 362.640625,397.557588 L362.640625,422.351562 L329.20601,432.598562 L329.20601,432.598562 C328.149926,432.922229 327.556185,434.040739 327.879853,435.096823 C328.125493,435.898314 328.844902,436.46157 329.681918,436.507736 C371.833164,438.832607 397.38841,438.616487 406.347656,435.859375 C416.068918,432.867761 417.714751,423.356693 411.285156,407.326172 L404.001156,407.658106 L404.001156,407.658106 C401.794307,407.758673 399.923778,406.051194 399.823211,403.844345 C399.758642,402.427444 400.449248,401.082307 401.638282,400.309017 L411.285156,394.035156 C410.656047,377.165365 405.715943,368.730469 396.464844,368.730469 Z" id="Path-5"></path>
                            <ellipse id="Oval-12" cx="336.5" cy="458.5" rx="11.5" ry="7.5"></ellipse>
                            <path d="M75.2805938,394.486896 C83.2887227,394.486896 90.6055993,380.946916 90.6055993,374.871784 C90.6055993,368.796652 84.1137282,363.871784 76.1055993,363.871784 C68.0974705,363.871784 61.6055993,368.796652 61.6055993,374.871784 C61.6055993,380.946916 67.2724649,394.486896 75.2805938,394.486896 Z" id="Oval-12-Copy-13" transform="translate(76.105599, 379.179340) rotate(52.000000) translate(-76.105599, -379.179340) "></path>
                            <path d="M135.97426,308.58559 C142.325535,308.58559 155.488707,315.304258 153.569909,301.476487 C151.651111,287.648716 142.325535,293.58559 135.97426,293.58559 C129.622986,293.58559 122.064869,294.559047 116.187415,301.579994 C110.309962,308.600941 129.622986,308.58559 135.97426,308.58559 Z" id="Oval-12-Copy-10" transform="translate(134.423791, 301.267986) rotate(22.000000) translate(-134.423791, -301.267986) "></path>
                            <ellipse id="Oval-12-Copy" cx="364" cy="448.565217" rx="7" ry="4.56521739"></ellipse>
                            <ellipse id="Oval-12-Copy-11" cx="107.5" cy="410.565" rx="11.5" ry="3.56500006"></ellipse>
                            <path d="M36.8654028,394.981487 C39.2418872,397.442409 57.6447083,401.553154 62.8406843,398.554364 C67.5377794,395.843496 55.9215479,387.187293 55.9215479,385.220664 C55.9215479,381.078528 48.1389952,383.869542 41.7877206,383.869542 C35.4364459,383.869542 18.1589799,379.858199 18.1589799,384.000334 C18.1589799,388.14247 30.6979396,388.594892 36.8654028,394.981487 Z" id="Oval-12-Copy-14" transform="translate(41.059075, 390.866074) rotate(44.000000) translate(-41.059075, -390.866074) "></path>
                            <path d="M18.4065605,405.174635 C20.7830449,407.635556 39.1858661,411.746302 44.381842,408.747512 C49.0789371,406.036644 29.6801529,394.06269 23.3288783,394.06269 C16.9776036,394.06269 -0.299862385,390.051347 -0.299862385,394.193482 C-0.299862385,398.335618 12.2390973,398.78804 18.4065605,405.174635 Z" id="Oval-12-Copy-15" transform="translate(22.403836, 401.059222) rotate(44.000000) translate(-22.403836, -401.059222) "></path>
                            <ellipse id="Oval-12-Copy-12" transform="translate(100.500000, 417.565000) rotate(5.000000) translate(-100.500000, -417.565000) " cx="100.5" cy="417.565" rx="11.5" ry="2.56500006"></ellipse>
                            <ellipse id="Oval-12-Copy-8" transform="translate(425.000000, 440.565217) rotate(9.000000) translate(-425.000000, -440.565217) " cx="425" cy="440.565217" rx="7" ry="4.56521739"></ellipse>
                            <ellipse id="Oval-12-Copy-9" transform="translate(409.627976, 390.604053) rotate(9.000000) translate(-409.627976, -390.604053) " cx="409.627976" cy="390.604053" rx="7" ry="4.56521739"></ellipse>
                            <ellipse id="Oval-12-Copy-2" cx="403.5" cy="458.5" rx="11.5" ry="7.5"></ellipse>
                            <path d="M397.957031,471.394531 C404.308306,471.394531 415,462.642136 415,458.5 C415,454.357864 409.851275,451 403.5,451 C397.148725,451 392,454.357864 392,458.5 C392,462.642136 391.605757,471.394531 397.957031,471.394531 Z" id="Oval-12-Copy-3"></path>
                            <ellipse id="Oval-12-Copy-4" transform="translate(213.535544, 440.418679) rotate(42.000000) translate(-213.535544, -440.418679) " cx="213.535544" cy="440.418679" rx="7.5" ry="5.92105263"></ellipse>
                            <path d="M170.983332,454.274799 C177.334606,454.274799 217.133273,459.526224 217.133273,455.384088 C217.133273,452.793149 203.132463,448.88517 191.091691,446.321521 C183.882873,444.786662 177.376617,443.733668 174.998115,443.733668 C168.646841,443.733668 150.017493,450.830699 150.017493,454.972835 C150.017493,459.11497 164.632057,454.274799 170.983332,454.274799 Z" id="Oval-12-Copy-5" transform="translate(183.575383, 450.354699) rotate(42.000000) translate(-183.575383, -450.354699) "></path>
                            <path d="M171.255376,427.421901 C177.60665,427.421901 201.033399,439.133129 201.033399,434.990994 C201.033399,432.400055 184.538725,423.243985 172.497953,420.680335 C165.289135,419.145477 158.782879,418.092483 156.404377,418.092483 C150.053103,418.092483 131.423755,425.189514 131.423755,429.331649 C131.423755,431.301299 140.75437,433.782851 149.001318,432.285799 C158.097546,430.634579 167.92423,427.421901 171.255376,427.421901 Z" id="Oval-12-Copy-6" transform="translate(166.228577, 426.985184) rotate(22.000000) translate(-166.228577, -426.985184) "></path>
                            <path d="M204.275426,445.751435 C210.170527,445.751435 231.914672,454.173319 231.914672,451.194589 C231.914672,449.33137 216.604712,442.746974 205.428756,440.903379 C198.737705,439.799618 192.698754,439.042379 190.491086,439.042379 C184.595985,439.042379 163.804672,438.083882 167.304672,447.12479 C170.804672,456.165698 180.486833,456.142963 188.141452,455.066389 C196.584352,453.878949 201.183537,445.751435 204.275426,445.751435 Z" id="Oval-12-Copy-7" transform="translate(199.412510, 447.282351) scale(-1, 1) rotate(-60.000000) translate(-199.412510, -447.282351) "></path>
                            <path d="M168.760613,300.769531 L159.476562,300.769531 L159.476562,300.769531 C158.371993,300.769531 157.476562,301.664962 157.476562,302.769531 L157.476562,314.972656 L157.476562,314.972656 C157.476562,316.077226 156.581132,316.972656 155.476562,316.972656 L144.359375,316.972656 L129.552365,316.972656 L129.552365,316.972656 C129.457908,316.972656 129.363571,316.965965 129.27006,316.952632 C116.413374,315.119524 107.700959,315.126199 103.132812,316.972656 C99.1675744,318.575417 96.0994383,322.463899 93.9284043,328.638103 L93.9284043,328.638103 C93.5619968,329.68013 94.1096942,330.821891 95.1517207,331.188299 C95.443143,331.290772 95.7543415,331.324345 96.0609142,331.286387 C106.039663,330.050866 113.222484,330.188476 117.609375,331.699219 C124.849171,334.192435 141.862021,353.911535 129.410156,363.351562 C121.465806,369.374346 110.001529,372.232997 95.0173278,371.927515 L95.0173278,371.927515 C93.9129878,371.905001 92.9994921,372.781994 92.976978,373.886334 C92.976701,373.899921 92.9765625,373.91351 92.9765625,373.9271 L92.9765625,383.499826 L92.9765625,383.499826 C92.9765625,384.339735 93.501339,385.09016 94.2902474,385.378382 L105.86117,389.605725 L105.86117,389.605725 C106.898668,389.984766 107.432452,391.133098 107.053411,392.170595 C106.953844,392.443127 106.796171,392.690731 106.591333,392.896226 L100.888672,398.617188 L100.888672,398.617188 C99.0745654,400.437116 99.0792848,403.383083 100.899213,405.197189 C101.771344,406.06653 102.952535,406.554687 104.183943,406.554687 L117.38714,406.554688 L117.38714,406.554688 C117.536525,406.554688 117.68544,406.537951 117.831097,406.504791 C123.232822,405.275044 127.092508,403.355479 129.410156,400.746094 C131.731003,398.133108 136.622413,390.193322 144.084389,376.926736 L144.084389,376.926736 C144.263117,376.608977 144.351589,376.248409 144.340242,375.884011 C143.940233,363.038511 146.694007,352.492539 152.601562,344.246094 C157.999658,336.710812 164.28432,333.674932 171.455547,335.138455 L171.455547,335.138455 C172.537809,335.359325 173.594206,334.66103 173.815077,333.578768 C173.841936,333.447156 173.855469,333.313172 173.855469,333.178847 L173.855469,324.308594 L173.855469,317.674769 L173.855469,317.674769 C173.855469,317.22029 174.010259,316.779363 174.294344,316.424613 L180.75224,308.360349 L180.75224,308.360349 C181.442681,307.498163 181.303455,306.23951 180.44127,305.549069 C180.294867,305.431828 180.132699,305.335765 179.959534,305.263702 L169.529033,300.923039 L169.529033,300.923039 C169.285521,300.821702 169.024369,300.769531 168.760613,300.769531 Z" id="Path-6"></path>
                            <path d="M108.571387,243.410699 C67.0973862,264.782495 44.1051393,276.379971 39.5946459,278.203125 C36.1470302,279.596661 32.3615033,281.676994 28.2380652,284.444123 L28.2380652,284.444123 C27.3208775,285.059623 27.0763115,286.302112 27.6918117,287.2193 C28.0090197,287.691988 28.5126248,288.007105 29.0764322,288.08569 C41.6707586,289.84111 50.1078923,291.455776 54.3878334,292.929687 C59.1090811,294.555574 61.02727,299.265646 60.1424001,307.059904 L60.1424001,307.059904 C60.1027818,307.408876 60.1557583,307.762128 60.2960007,308.084127 L68.0366731,325.856837 L68.0366731,325.856837 C69.580394,329.401245 67.9585164,333.525988 64.4141082,335.069709 C63.3931148,335.51439 62.2807601,335.709057 61.1694304,335.637542 C51.9628464,335.045093 44.7712516,338.542215 39.5946459,346.128906 C32.3776844,356.705887 40.961466,363.881918 65.3459909,367.656999 L65.3459909,367.656999 C65.8828273,367.740109 66.4303763,367.601271 66.862751,367.272405 L80.4248334,356.957031 L80.4248334,356.957031 C85.8354243,352.841714 93.5576984,353.891741 97.6730155,359.302332 C98.5829607,360.498677 99.2660851,361.851573 99.6885747,363.294052 L105.586838,383.432111 L105.586838,383.432111 C105.897314,384.492149 107.008334,385.099788 108.068371,384.789312 C108.82306,384.568271 109.378172,383.92548 109.486971,383.146649 C110.479105,376.044514 113.714289,370.924017 119.192521,367.785156 C133.075835,359.830439 120.801677,337.128906 129.789958,324.582031 C135.776825,316.224876 132.255933,297.229089 119.227284,267.59467 L119.227284,267.59467 C119.204093,267.541921 119.183193,267.488195 119.164642,267.433642 L111.381028,244.544631 L111.381028,244.544631 C111.025409,243.498873 109.889369,242.939406 108.843611,243.295025 C108.750139,243.326811 108.659149,243.365475 108.571387,243.410699 Z" id="Path-6-Copy" transform="translate(79.984823, 314.029230) scale(-1, 1) translate(-79.984823, -314.029230) "></path>
                        </g>
                    </g>
                </g>
                <path d="M201.519555,113.608597 L210.301054,158.785494 L228.173206,180.282208 L176.645548,180.282208 L185.80045,158.785494 L183.416154,146.037216 L183.416154,146.037216 C182.226282,139.675249 183.656401,133.102384 187.382035,127.809929 L197.920879,112.838957 L197.920879,112.838957 C198.556701,111.935738 199.80434,111.718971 200.707559,112.354793 C201.129998,112.65217 201.420981,113.101476 201.519555,113.608597 Z" id="splotch" fill="#462922" transform="translate(202.409377, 145.787209) rotate(11.000000) translate(-202.409377, -145.787209) "></path>
                <g id="shoulderplace" transform="translate(32.000000, 234.000000)">
                    <mask id="mask-8" fill="white">
                        <use xlink:href="#path-7"></use>
                    </mask>
                    <use id="Mask" fill="#D39F83" xlink:href="#path-7"></use>
                    <path d="M90.0137583,29.4341357 C151.296911,29.4341357 217.713263,52.3047054 214.084493,47.8165815 C196.087074,25.5570699 123.32421,-66.9850746 72.3240741,-66.9850746 C11.0409218,-66.9850746 -60.9822238,18.7103509 -60.9822238,47.8165815 C-60.9822238,76.9228121 28.7306061,29.4341357 90.0137583,29.4341357 Z" id="Oval-10-Copy" fill-opacity="0.8" fill="#97624D" mask="url(#mask-8)" transform="translate(76.622299, -4.864047) rotate(-6.000000) translate(-76.622299, 4.864047) "></path>
                </g>
                <g id="armfore" transform="translate(101.000000, 271.000000)">
                    <path d="M171.080241,230.358968 C172.018863,231.786507 173.835583,232.792449 176.530401,233.376793 C183.573046,233.376793 191.456554,228.020247 191.456554,220.288261 C191.456554,215.133603 188.272837,209.427575 180.662546,207.199728 C175.218607,208.290259 171.173641,209.669022 168.527646,211.336018 C175.441465,212.494939 181.095298,215.324951 181.095298,221.655481 C181.095298,225.320319 177.976808,227.710219 171.739828,228.825181 L171.739828,228.825181 C171.196162,228.92237 170.834222,229.441886 170.931411,229.985552 C170.955234,230.118815 171.005866,230.245853 171.080241,230.358968 Z" id="claw1" fill="#090808" transform="translate(179.992100, 220.288261) rotate(19.000000) translate(-179.992100, -220.288261) "></path>
                    <path d="M206.983573,225.940843 C208.186254,223.901272 208.921308,222.256005 209.188734,221.005043 C210.083473,216.819639 211.235863,215.220495 211.235863,208.033878 C211.235863,203.2428 206.992297,196.153883 199.918791,194.083176 C192.3962,197.083161 187.405223,199.357862 184.945862,200.907277 C191.37202,201.984455 201.850403,206.930811 204.017148,213.040074 C204.754989,215.120458 204.518158,218.940128 203.306657,224.499085 L203.306657,224.499085 C203.071452,225.578322 203.755675,226.643888 204.834911,226.879094 C205.678576,227.062959 206.544983,226.684627 206.983573,225.940843 Z" id="claw2" fill="#090808" transform="translate(198.090862, 210.504134) rotate(5.000000) translate(-198.090862, -210.504134) "></path>
                    <g id="Oval-10">
                        <use fill="#BD6140" fill-rule="evenodd" xlink:href="#path-9"></use>
                        <use fill="black" fill-opacity="1" filter="url(#filter-10)" xlink:href="#path-9"></use>
                    </g>
                    <g id="Oval-11">
                        <use fill="#BD6140" fill-rule="evenodd" xlink:href="#path-11"></use>
                        <use fill="black" fill-opacity="1" filter="url(#filter-12)" xlink:href="#path-11"></use>
                    </g>
                    <path d="M186.756533,178.659771 C189.360783,181.606058 191.095885,184.139889 191.961838,186.261263 C193.110193,189.074452 194.700391,197.575379 196.732434,211.764046 L178.524424,209.199168 L183.283487,179.666141 L183.283487,179.666141 C183.459215,178.57564 184.485696,177.834069 185.576198,178.009797 C186.032981,178.083404 186.450114,178.313107 186.756533,178.659771 Z" id="Triangle" fill="#BF5635" transform="translate(187.628429, 193.704860) rotate(-44.000000) translate(-187.628429, -193.704860) "></path>
                </g>
                <g id="neck" transform="translate(480.523174, 229.018270) rotate(4.000000) translate(-480.523174, -229.018270) translate(465.523174, 115.018270)">
                    <path d="M0.270420917,226.875225 C15.9731732,226.794682 24.9876134,222.686283 27.3137417,214.550028 C32.9291214,194.908739 27,149.763983 27,112.711531 C27,52.6360349 21.8512746,3.93522267 15.5,3.93522267 C9.14872538,3.93522267 4,52.6360349 4,112.711531 C4,152.761862 2.75680697,190.816427 0.270420917,226.875225 Z" id="Oval-9" fill="#F8E0DB"></path>
                    <path d="M27.5346854,146.496705 C27.5346854,61.269154 33.4728704,0.942487554 26.9027234,0.942487554 C24.1618948,0.942487554 7.53486653,-3.88220463 3.11011666,17.1555302 C-3.07187367,46.5481687 3.11011666,109.702831 3.11011666,159.376518 L27.5346854,146.496705 Z" id="Oval-9-Copy" fill="#934527"></path>
                    <g id="Oval-8" filter="url(#filter-14)">
                        <use fill="black" fill-opacity="1" filter="url(#filter-15)" xlink:href="#path-13"></use>
                        <use fill="#2F2C2C" fill-rule="evenodd" xlink:href="#path-13"></use>
                    </g>
                </g>
                <g id="head" transform="translate(662.500000, 203.000000) rotate(-5.000000) translate(-662.500000, -203.000000) translate(455.000000, 18.000000)">
                    <path d="M147,296 C209.408177,296 174.359786,185 260,185 C345.640214,185 209.408177,74 147,74 C84.5918233,74 25.4423013,142.917248 25.4423013,204.220855 C25.4423013,265.524462 84.5918233,296 147,296 Z" id="Oval-7" fill="#B57E71"></path>
                    <g id="jawconnector" transform="translate(156.414921, 174.434139) rotate(-13.000000) translate(-156.414921, -174.434139) translate(64.914921, 77.434139)">
                        <circle id="Oval" stroke="#E4AA8E" stroke-width="2" fill="url(#linearGradient-16)" cx="119.68883" cy="130.564075" r="62.5640748"></circle>
                        <circle id="Oval-Copy" stroke="#E7B59C" stroke-width="3" fill="#CE8C6B" cx="82.3970477" cy="81.6267131" r="81.5"></circle>
                        <path d="M162.42743,122.956858 C174.972654,77.3161448 154.884506,50.7464011 120.331321,50.7464011 C85.7781369,50.7464011 38.3824087,91.7757833 38.3824087,122.979872 L162.42743,122.956858 Z" id="Oval-Copy-2" fill="url(#linearGradient-17)" filter="url(#filter-18)" transform="translate(102.283776, 86.863136) rotate(50.000000) translate(-102.283776, -86.863136) "></path>
                        <path d="M121.11521,132.618305 C121.11521,108.68943 95.8192988,89.2912443 64.6152104,89.2912443 C33.4111221,89.2912443 11.1841013,96.0288463 11.1841013,119.957721 C23.830294,120.359345 32.6716689,122.014086 37.7082259,124.921943 C42.744783,127.829801 48.9297186,131.400675 56.2630328,135.634566 C59.6191748,141.833253 73.1382279,148.081926 77.8224937,148.081926 C83.6734393,148.081926 98.5908566,155.250074 109.718875,152.357337 C112.165429,151.721354 115.964208,145.141676 121.11521,132.618305 Z" id="Oval-Copy-3" fill="url(#linearGradient-17)" filter="url(#filter-19)" transform="translate(66.149656, 121.168170) rotate(-107.000000) translate(-66.149656, -121.168170) "></path>
                    </g>
                    <path d="M263.145845,246.37287 L267.986565,232.697589 C268.608786,230.714908 270.113465,229.918136 271.347361,230.91795 C271.825552,231.305424 272.213757,231.929209 272.454896,232.697589 L276.188081,244.593231 C276.810302,246.575912 278.314981,247.372684 279.548877,246.37287 C280.027068,245.985397 280.415273,245.361611 280.656412,244.593231 L283.456564,230.26471 C284.078785,228.282029 285.583465,227.485257 286.817361,228.485071 C287.295552,228.872544 287.683757,229.49633 287.924896,230.26471 L292.591113,244.593231 C293.213334,246.575912 294.718014,247.372684 295.951909,246.37287 C296.4301,245.985397 296.818305,245.361611 297.059444,244.593231 L301.605163,226.114874 C302.227384,224.132192 303.732064,223.335421 304.965959,224.335234 C305.44415,224.722708 305.832355,225.346494 306.073494,226.114874 L308.994145,244.593231 C309.616366,246.575912 311.121046,247.372684 312.354942,246.37287 C312.833133,245.985397 313.221338,245.361611 313.462477,244.593231 L318.008195,226.114874 C318.630416,224.132192 320.135096,223.335421 321.368992,224.335234 C321.847183,224.722708 322.235388,225.346494 322.476527,226.114874 L325.397178,244.593231 C326.019399,246.575912 327.524078,247.372684 328.757974,246.37287 C329.236165,245.985397 329.62437,245.361611 329.865509,244.593231 L332.665661,230.26471 C333.287882,228.282029 334.792562,227.485257 336.026457,228.485071 C336.504648,228.872544 336.892853,229.49633 337.133992,230.26471 L341.80021,244.593231 C342.422431,246.575912 343.927111,247.372684 345.161006,246.37287 C345.639197,245.985397 346.027402,245.361611 346.268541,244.593231 L350.001726,232.697589 C350.623947,230.714908 352.128627,229.918136 353.362522,230.91795 C353.840713,231.305424 354.228918,231.929209 354.470057,232.697589 L358.203242,244.593231 C358.825463,246.575912 360.330143,247.372684 361.564038,246.37287 C362.042229,245.985397 362.430434,245.361611 362.671573,244.593231 L366.404759,232.697589 C367.026979,230.714908 368.531659,229.918136 369.765555,230.91795 C370.243746,231.305424 370.631951,231.929209 370.87309,232.697589 L374.606275,244.593231 C375.021089,245.915019 375.813571,255.628997 376.983722,273.735166 L260.745112,267.166489 C261.797327,252.059176 262.597571,245.12797 263.145845,246.37287 Z" id="upperteethback" fill="url(#linearGradient-20)" transform="translate(318.864417, 248.819454) rotate(197.000000) translate(-318.864417, -248.819454) "></path>
                    <path d="M279.118701,247.217023 C337.660885,247.217023 388.319207,227.982483 388.319207,217.765215 C388.319207,207.547947 337.660885,210.217023 279.118701,210.217023 C220.576518,210.217023 173.118701,218.499755 173.118701,228.717023 C173.118701,238.934291 220.576518,247.217023 279.118701,247.217023 Z" id="Oval-3" fill="#663D32" transform="translate(280.718954, 228.559861) rotate(21.000000) translate(-280.718954, -228.559861) "></path>
                    <path d="M262,240 C286.288971,240 315.741982,230.955844 315.741982,223.5 C315.741982,216.044156 279.120827,210 262,210 C244.879173,210 231,216.044156 231,223.5 C231,230.955844 242.215369,230.925064 262,240 Z" id="Oval-4" fill="#906351"></path>
                    <path d="M262.869219,225.669316 L266.01102,232.665009 C266.554169,233.87441 267.867633,234.360428 268.944724,233.750558 C269.362146,233.514206 269.701018,233.133707 269.911513,232.665009 L273.170282,225.40887 C273.713431,224.199468 275.026895,223.71345 276.103986,224.32332 C276.521408,224.559672 276.86028,224.940171 277.070775,225.40887 L280.329544,232.665009 C280.872692,233.87441 282.186156,234.360428 283.263247,233.750558 C283.68067,233.514206 284.019541,233.133707 284.230036,232.665009 L287.488805,225.40887 C288.031954,224.199468 289.345418,223.71345 290.422509,224.32332 C290.839931,224.559672 291.178803,224.940171 291.389298,225.40887 L294.648067,232.665009 C295.191216,233.87441 296.50468,234.360428 297.581771,233.750558 C297.999193,233.514206 298.338065,233.133707 298.54856,232.665009 L301.807329,225.40887 C302.350477,224.199468 303.663941,223.71345 304.741033,224.32332 C305.158455,224.559672 305.497326,224.940171 305.707821,225.40887 L308.966591,232.665009 C309.509739,233.87441 310.823203,234.360428 311.900294,233.750558 C312.317716,233.514206 312.656588,233.133707 312.867083,232.665009 L316.125852,225.40887 C316.669001,224.199468 317.982465,223.71345 319.059556,224.32332 C319.476978,224.559672 319.81585,224.940171 320.026345,225.40887 L323.285114,232.665009 C323.828262,233.87441 325.141726,234.360428 326.218818,233.750558 C326.63624,233.514206 326.975111,233.133707 327.185606,232.665009 L330.444376,225.40887 C330.987524,224.199468 332.300988,223.71345 333.378079,224.32332 C333.795501,224.559672 334.134373,224.940171 334.344868,225.40887 L337.603637,232.665009 C338.146786,233.87441 339.46025,234.360428 340.537341,233.750558 C340.954763,233.514206 341.293635,233.133707 341.50413,232.665009 L344.762899,225.40887 C345.306048,224.199468 346.619511,223.71345 347.696603,224.32332 C348.114025,224.559672 348.452896,224.940171 348.663391,225.40887 L351.922161,232.665009 C352.465309,233.87441 353.778773,234.360428 354.855864,233.750558 C355.273287,233.514206 355.612158,233.133707 355.822653,232.665009 L359.081422,225.40887 C359.624571,224.199468 360.938035,223.71345 362.015126,224.32332 C362.432548,224.559672 362.77142,224.940171 362.981915,225.40887 L366.240684,232.665009 C366.783833,233.87441 368.097296,234.360428 369.174388,233.750558 C369.59181,233.514206 369.930682,233.133707 370.141176,232.665009 L373.399946,225.40887 C373.943094,224.199468 375.256558,223.71345 376.333649,224.32332 C376.751072,224.559672 377.089943,224.940171 377.300438,225.40887 L380.559207,232.665009 C381.102356,233.87441 382.41582,234.360428 383.492911,233.750558 C383.910333,233.514206 384.249205,233.133707 384.4597,232.665009 L387.601501,225.669316 C387.873076,225.064615 389.314893,222.745791 389.853439,223.050726 C390.22159,223.25918 393.194535,225.943903 393.194535,226.406862 L396.919737,238.591449 L403.104375,248.165441 L256.88615,249.090376 L256.46847,240.409674 L256.46847,240.409674 C256.313725,237.193568 256.757703,233.976696 257.777814,230.922738 C259.307506,226.343226 260.227072,224.05347 260.536511,224.05347 C260.948822,224.05347 262.68357,225.255941 262.869219,225.669316 Z" id="upperteethfore" fill="#FFFFFF" transform="translate(329.771400, 236.056802) scale(1, -1) rotate(-18.000000) translate(-329.771400, -236.056802) "></path>
                    <g id="Group" transform="translate(27.000000, 18.000000)">
                        <path d="M142.665946,19.405929 L214.121365,37.3365547 L214.121365,37.3365546 C221.159878,39.10276 226.78775,44.3776806 229.005489,51.2872236 C237.421993,77.5095139 247.248826,95.4531721 258.485988,105.118198 C271.160417,116.01941 295.335558,130.497971 331.011411,148.55388 L331.011411,148.55388 C331.446127,148.773895 331.859836,149.033162 332.247379,149.32845 C351.759781,164.195912 363.947027,175.878451 368.809118,184.376069 C378.320744,200.999815 382.146138,242.217377 359.911714,249.89567 C340.17657,247.008514 312.442223,236.224172 280.546586,224.904367 C261.395754,218.107711 242.506716,201.443102 221.073607,199.190391 C163.943736,193.1858 154.460369,195.486293 147.896378,191.499155 C135.077162,183.712432 122.089669,165.76774 108.528745,151.640922 C94.9678214,137.514103 75.7187339,143.252588 71.5467078,143.73192 C61.2785088,144.911652 51.9392852,155.018339 43.5290371,174.05198 L43.5290371,174.05198 C41.7433228,178.093317 37.0195643,179.921861 32.9782273,178.136147 C31.374855,177.427677 30.0485565,176.212197 29.2032302,174.676568 C14.2121704,147.443651 8.63237766,131.048097 12.463852,125.489906 C16.8601077,119.112405 57.0299479,84.4832731 132.973372,21.6025105 L132.973372,21.6025099 C135.670454,19.3693396 139.269629,18.5536761 142.665946,19.405929 Z" id="Rectangle-3" fill="url(#radialGradient-21)" transform="translate(193.818234, 134.485346) rotate(-6.000000) translate(-193.818234, -134.485346) "></path>
                        <g id="nostril" transform="translate(359.045736, 176.401561) rotate(50.000000) translate(-359.045736, -176.401561) ">
                            <use fill="url(#radialGradient-22)" fill-rule="evenodd" xlink:href="#path-23"></use>
                            <use fill="black" fill-opacity="1" filter="url(#filter-24)" xlink:href="#path-23"></use>
                        </g>
                        <g id="cheek" transform="translate(290.674588, 175.085790) rotate(20.000000) translate(-290.674588, -175.085790) ">
                            <use fill="url(#radialGradient-25)" fill-rule="evenodd" xlink:href="#path-26"></use>
                            <use fill="black" fill-opacity="1" filter="url(#filter-27)" xlink:href="#path-26"></use>
                        </g>
                    </g>
                    <g id="backofhead" transform="translate(0.000000, 25.000000)">
                        <mask id="mask-29" fill="white">
                            <use xlink:href="#path-28"></use>
                        </mask>
                        <use id="Mask" fill="#E28B6E" transform="translate(88.843991, 77.830887) rotate(-36.000000) translate(-88.843991, -77.830887) " xlink:href="#path-28"></use>
                        <path d="M75.8115268,49.5572345 L67.9435101,62.5916457 L67.9435101,62.5916457 C67.3726889,63.5372867 67.6765403,64.7666222 68.6221813,65.3374435 C69.3025718,65.7481505 70.1615791,65.7170367 70.8104735,65.2581821 L78.9400453,59.5094948 L78.9400453,59.5094948 C79.8419114,58.8717556 81.0900081,59.0858728 81.7277473,59.9877389 C81.9665457,60.3254385 82.0947742,60.728867 82.0947742,61.1424678 L82.0947742,69.6516745 L82.0947742,69.6516745 C82.0947742,70.756244 82.9902047,71.6516745 84.0947742,71.6516745 C84.8878002,71.6516745 85.6059203,71.1831207 85.9253507,70.4572734 L92.7321367,54.9900927 L92.7321367,54.9900927 C93.0115737,54.355123 93.7528468,54.0669068 94.3878166,54.3463438 C94.8436933,54.5469657 95.1379738,54.9979892 95.1379738,55.4960582 L95.1379738,55.4960582 L95.1379738,55.4960582 C95.1379738,56.130861 95.6525831,56.6454703 96.2873859,56.6454703 C96.7574998,56.6454703 97.1802271,56.3591861 97.3547043,55.9226488 L105.915021,34.5049612 L105.915021,34.5049612 C106.324969,33.4792826 105.825821,32.3154775 104.800142,31.9055297 C104.42453,31.7554034 104.012224,31.7227 103.617642,31.8117359 C94.6921021,33.8257485 89.0246863,35.541498 86.6153945,36.9589844 C83.893096,38.5606255 80.3059722,42.7375977 75.854023,49.4899009 L75.854023,49.4899009 C75.8394122,49.5120612 75.825244,49.5345102 75.8115268,49.5572345 Z" id="Path-2" fill="#55332A" mask="url(#mask-29)"></path>
                        <path d="M113.473132,26.2951017 L98.3351916,57.8328311 L98.3351916,57.8328311 C97.8572144,58.8286281 98.2769903,60.0233581 99.2727872,60.5013353 C99.9271534,60.8154275 100.700329,60.7503348 101.29297,60.3312585 L110.940045,53.5094948 L110.940045,53.5094948 C111.841911,52.8717556 113.090008,53.0858728 113.727747,53.9877389 C113.966546,54.3254385 114.094774,54.728867 114.094774,55.1424678 L114.094774,63.6516745 L114.094774,63.6516745 C114.094774,64.756244 114.990205,65.6516745 116.094774,65.6516745 C116.8878,65.6516745 117.60592,65.1831207 117.925351,64.4572734 L124.732137,48.9900927 L124.732137,48.9900927 C125.011574,48.355123 125.752847,48.0669068 126.387817,48.3463438 C126.843693,48.5469657 127.137974,48.9979892 127.137974,49.4960582 L127.137974,49.4960582 L127.137974,49.4960582 C127.137974,50.5082908 127.95855,51.3288675 128.970783,51.3288675 C129.578738,51.3288675 130.147128,51.0274012 130.488132,50.5240867 L143.35331,31.5353511 L143.35331,31.5353511 C143.972867,30.6208985 143.733806,29.3773384 142.819354,28.7577819 C142.557086,28.5800916 142.25636,28.4672442 141.941941,28.428533 L115.520576,25.1755442 L115.520576,25.1755442 C114.668549,25.070643 113.844611,25.5211784 113.473132,26.2951017 Z" id="Path-2-Copy" fill="#55332A" mask="url(#mask-29)"></path>
                        <path d="M56.8642595,78.482633 C54.8099255,80.4497003 51.2786984,84.8268972 46.2705781,91.6142237 C42.5032811,96.7199068 38.8923945,101.844795 35.4379183,106.988887 L35.4379184,106.988887 C34.8221216,107.905876 35.0662859,109.148444 35.9832746,109.764241 C36.615513,110.188816 37.4340119,110.217477 38.0944003,109.838167 L48.1249376,104.07688 L48.1249376,104.07688 C48.9585169,103.598093 50.0148065,103.780074 50.640111,104.510201 L57.4813159,112.498227 L57.4813159,112.498227 C58.1998166,113.337173 59.4623766,113.434813 60.3013228,112.716313 C60.6243781,112.439638 60.8508144,112.067175 60.9477407,111.653026 L64.4126585,96.8480588 L64.4126585,96.8480588 C64.6469512,95.8469687 65.6020934,95.1866043 66.6214167,95.3209719 L77.7917283,96.7934467 L77.7917283,96.7934467 C78.8868243,96.9378027 79.8915986,96.1670756 80.0359545,95.0719797 C80.0367292,95.0661027 80.0374778,95.0602224 80.0382002,95.0543388 L82.0936672,78.3139034 L82.0936672,78.3139034 C82.2282804,77.2175672 81.4486498,76.2196856 80.3523136,76.0850724 C80.2152753,76.0682462 80.076863,76.0656555 79.9392911,76.0773418 L58.0781744,77.9343728 L58.0781744,77.9343728 C57.6227783,77.9730572 57.1943683,78.166547 56.8642595,78.482633 Z" id="Path-2-Copy-2" fill="#55332A" mask="url(#mask-29)" transform="translate(58.603423, 94.633734) rotate(-7.000000) translate(-58.603423, -94.633734) "></path>
                    </g>
                    <path d="M55.1826172,202.415039 L58.9831659,206.325003 L58.9831659,206.325003 C60.9520095,208.350529 63.3092589,209.95803 65.9138415,211.051303 L65.9521484,211.067383 L65.9521484,211.067383 C68.2274135,212.022425 70.8576227,211.129949 72.0818433,208.987469 L84.0111035,188.110344 L84.0111035,188.110344 C87.2332604,182.471322 92.0949967,177.946228 97.9503499,175.136298 L103.979443,172.242991 L103.979443,172.242991 C106.814987,170.88224 109.919969,170.175781 113.065116,170.175781 L121.651109,170.175781 L121.651109,170.175781 C126.829244,170.175781 131.824816,172.088907 135.678351,175.547715 L144.259572,183.249939 L144.259572,183.249939 C144.451091,183.42184 144.639434,183.597247 144.824506,183.776072 L161.041974,199.44613 L161.041974,199.44613 C162.001392,200.373163 163.046967,201.20666 164.164521,201.93532 L180.404262,212.523832 L180.404262,212.523832 C183.139991,214.307561 186.254043,215.428641 189.498961,215.797985 L248.59991,222.524983 L248.59991,222.524983 C251.446191,222.848953 254.129583,221.132462 255.028809,218.412598 L255.028809,218.412598 L255.028809,218.412598 C255.923361,215.706866 258.620446,214.024006 261.443983,214.409816 L267.221191,215.199219 L267.221191,215.199219 C267.671189,215.260707 268.085831,214.945757 268.147319,214.495759 C268.202267,214.093626 267.955617,213.711543 267.566524,213.596055 L200.293087,193.628414 L200.293087,193.628414 C198.233589,193.017127 196.280084,192.093441 194.500767,190.8896 L151.785858,161.989768 L151.785858,161.989768 C151.19203,161.587999 150.578016,161.216905 149.946229,160.877943 L115.633382,142.468704 L115.633382,142.468704 C111.246362,140.115017 105.845384,140.832959 102.225586,144.250977 L96.1941929,149.946159 L96.1941929,149.946159 C96.174106,149.965126 96.1540565,149.984133 96.1340446,150.003179 L55.4489577,188.725214 L55.4489577,188.725214 C51.5958391,192.39242 51.4451271,198.488847 55.112333,202.341966 C55.1356327,202.366447 55.1590611,202.390805 55.1826172,202.415039 Z" id="Path-3" fill="#986347" filter="url(#filter-30)"></path>
                    <path d="M76.4424949,60.0405798 C140.804148,62.4510729 182.078872,62.6537879 200.266668,60.6487249 C216.486229,58.8606445 230.130431,56.7632341 241.199274,54.3564936 L241.199274,54.3564935 C244.319725,53.6780021 247.54478,54.9202466 249.403754,57.51674 L297.336875,124.466584 L297.336875,124.466584 C299.562765,127.575561 300.014488,131.617392 298.529877,135.141063 C288.485482,158.981075 282.695798,177.850759 281.160826,191.750114 C279.506805,206.727479 285.857212,230.212853 300.212048,262.206236 C289.788675,249.63651 282.779041,242.377823 279.183148,240.430172 C273.077497,237.123157 268.898324,246.053899 267.148067,243.900826 C263.291835,239.157093 264.061148,231.727186 269.456006,221.611102 L273.147534,176.232069 L273.147534,176.232069 C273.237093,175.131136 272.417213,174.166052 271.31628,174.076492 C270.400538,174.001998 269.551832,174.560996 269.258667,175.431736 C261.749431,197.735148 257.149586,208.296874 255.459132,207.116914 C234.561215,192.529895 210.695236,164.129724 207.651823,157.610997 C193.738664,127.810214 201.97026,126.559983 185.848034,106.674014 C183.99194,104.384614 174.658804,101.763949 157.848626,98.8120187 C157.418143,99.8525442 159.417346,104.331532 163.846234,112.248982 L161.604486,118.673904 L164.124695,127.26437 L162.328433,137.517365 C162.8351,155.555088 162.967481,164.527058 162.725576,164.433277 C160.335604,163.506733 154.695245,141.9416 145.8045,99.737878 L145.8045,99.737878 C145.426249,97.9423484 143.874841,96.6344507 142.041207,96.5652743 L62.2371468,93.5545531 L68.3360094,66.288679 L68.3360093,66.288679 C69.1781459,62.5237818 72.5872651,59.8961926 76.4424949,60.0405798 Z" id="Rectangle-4" fill="url(#linearGradient-31)" transform="translate(181.224597, 158.189862) rotate(314.000000) translate(-181.224597, -158.189862) "></path>
                    <g id="eyegroup" transform="translate(143.000000, 58.000000)">
                        <path d="M45.269649,69.4667714 C73.654421,70.3514289 93.9349126,59.7305687 106.269449,48.4139106 C106.269449,34.9880701 89.1385975,16.4668404 62.0966683,16.4668404 C35.054739,16.4668404 6.92027335,14.3725681 6.92027335,27.7984085 C6.92027335,41.224249 16.8848769,68.5821138 45.269649,69.4667714 Z" id="Oval-5-Copy" fill="#A85D40" transform="translate(56.594861, 42.933420) rotate(20.000000) translate(-56.594861, -42.933420) "></path>
                        <path d="M52.1359493,68.4653182 C77.3533342,69.231012 95.3707755,60.0383845 106.328931,50.2435259 C106.328931,38.6231158 91.1096694,22.5925153 67.0852828,22.5925153 C43.0608961,22.5925153 18.0658865,20.7798688 18.0658865,32.4002789 C18.0658865,44.020689 26.9185644,67.6996244 52.1359493,68.4653182 Z" id="Oval-5" fill="#473638" transform="translate(62.197409, 45.500020) rotate(20.000000) translate(-62.197409, -45.500020) "></path>
                        <path d="M66,61 C73.7319865,63 88.1613287,68.9153639 88.1613287,53.0118045 C88.1613287,37.1082451 73.7319865,33 66,33 C58.2680135,33 52,38.5964406 52,45.5 C52,52.4035594 58.2680135,59 66,61 Z" id="Oval-6" fill="#2E2324"></path>
                        <g id="eyeball" transform="translate(61.000000, 38.000000)">
                            <ellipse id="eyewhite" fill="#EEA160" cx="12" cy="11.5" rx="12" ry="11.5"></ellipse>
                            <ellipse id="iris" fill="#912709" cx="15" cy="12.7083333" rx="7" ry="6.70833333"></ellipse>
                            <ellipse id="pupil" fill="#0E0301" cx="15.5" cy="13.3125" rx="4.5" ry="4.3125"></ellipse>
                        </g>
                    </g>
                    <g id="jaw" transform="translate(58.000000, 173.000000)">
                        <g id="lowerteeth" transform="translate(168.790993, 142.592878) rotate(49.000000) translate(-168.790993, -142.592878) translate(119.790993, 131.092878)">
                            <path d="M9.31392934,1.01172454 L11.5318681,5.41000992 C11.9153011,6.17037698 12.8425342,6.47594244 13.6029013,6.09250948 C13.8975783,5.94391164 14.136803,5.70468698 14.2854008,5.41000992 L16.5859123,0.847978642 C16.9693453,0.0876115813 17.8965784,-0.21795388 18.6569455,0.165479083 C18.9516225,0.314076917 19.1908472,0.553301581 19.339445,0.847978642 L21.6399565,5.41000992 C22.0233895,6.17037698 22.9506226,6.47594244 23.7109897,6.09250948 C24.0056667,5.94391164 24.2448914,5.70468698 24.3934892,5.41000992 L26.6940007,0.847978642 C27.0774337,0.0876115813 28.0046668,-0.21795388 28.7650339,0.165479083 C29.0597109,0.314076917 29.2989356,0.553301581 29.4475334,0.847978642 L31.7480449,5.41000992 C32.1314779,6.17037698 33.058711,6.47594244 33.8190781,6.09250948 C34.1137551,5.94391164 34.3529798,5.70468698 34.5015776,5.41000992 L36.8020891,0.847978642 C37.1855221,0.0876115813 38.1127552,-0.21795388 38.8731223,0.165479083 C39.1677993,0.314076917 39.407024,0.553301581 39.5556218,0.847978642 L41.8561333,5.41000992 C42.2395663,6.17037698 43.1667994,6.47594244 43.9271665,6.09250948 C44.2218436,5.94391164 44.4610682,5.70468698 44.6096661,5.41000992 L46.9101776,0.847978642 C47.2936105,0.0876115813 48.2208436,-0.21795388 48.9812107,0.165479083 C49.2758878,0.314076917 49.5151124,0.553301581 49.6637103,0.847978642 L51.9642218,5.41000992 C52.3476547,6.17037698 53.2748878,6.47594244 54.0352549,6.09250948 C54.329932,5.94391164 54.5691566,5.70468698 54.7177545,5.41000992 L57.018266,0.847978642 C57.4016989,0.0876115813 58.328932,-0.21795388 59.0892991,0.165479083 C59.3839762,0.314076917 59.6232008,0.553301581 59.7717987,0.847978642 L62.0723102,5.41000992 C62.4557431,6.17037698 63.3829763,6.47594244 64.1433433,6.09250948 C64.4380204,5.94391164 64.677245,5.70468698 64.8258429,5.41000992 L67.1263544,0.847978642 C67.5097873,0.0876115813 68.4370205,-0.21795388 69.1973875,0.165479083 C69.4920646,0.314076917 69.7312892,0.553301581 69.8798871,0.847978642 L72.1803986,5.41000992 C72.5638315,6.17037698 73.4910647,6.47594244 74.2514317,6.09250948 C74.5461088,5.94391164 74.7853334,5.70468698 74.9339313,5.41000992 L77.2344428,0.847978642 C77.6178757,0.0876115813 78.5451089,-0.21795388 79.3054759,0.165479083 C79.600153,0.314076917 79.8393777,0.553301581 79.9879755,0.847978642 L82.288487,5.41000992 C82.6719199,6.17037698 83.5991531,6.47594244 84.3595201,6.09250948 C84.6541972,5.94391164 84.8934219,5.70468698 85.0420197,5.41000992 L87.3425312,0.847978642 C87.7259642,0.0876115813 88.6531973,-0.21795388 89.4135643,0.165479083 C89.7082414,0.314076917 89.9474661,0.553301581 90.0960639,0.847978642 L92.3965754,5.41000992 C92.7800084,6.17037698 93.7072415,6.47594244 94.4676085,6.09250948 C94.7622856,5.94391164 95.0015103,5.70468698 95.1501081,5.41000992 L93.861637,16.586071 L7.85459026,15.0788107 L7.85459026,1.35885794 C7.85459026,0.933070756 8.19975898,0.587902044 8.62554616,0.587902044 C8.91661508,0.587902044 9.18287159,0.751830366 9.31392934,1.01172454 Z" id="lowerteethback" fill="url(#linearGradient-20)"></path>
                            <path d="M7.00106165,2.96753231 L9.21900043,9.16515389 C9.60243339,10.2365867 10.5296665,10.6671588 11.2900336,10.1268637 C11.5847106,9.91747452 11.8239353,9.58038318 11.9725331,9.16515389 L14.2730446,2.73679804 C14.6564776,1.66536522 15.5837107,1.2347931 16.3440778,1.77508828 C16.6387548,1.98447741 16.8779795,2.32156875 17.0265773,2.73679804 L19.3270888,9.16515389 C19.7105218,10.2365867 20.6377549,10.6671588 21.398122,10.1268637 C21.692799,9.91747452 21.9320237,9.58038318 22.0806215,9.16515389 L24.381133,2.73679804 C24.764566,1.66536522 25.6917991,1.2347931 26.4521662,1.77508828 C26.7468433,1.98447741 26.9860679,2.32156875 27.1346658,2.73679804 L29.4351772,9.16515389 C29.8186102,10.2365867 30.7458433,10.6671588 31.5062104,10.1268637 C31.8008875,9.91747452 32.0401121,9.58038318 32.18871,9.16515389 L34.4892215,2.73679804 C34.8726544,1.66536522 35.7998875,1.2347931 36.5602546,1.77508828 C36.8549317,1.98447741 37.0941563,2.32156875 37.2427542,2.73679804 L39.5432657,9.16515389 C39.9266986,10.2365867 40.8539317,10.6671588 41.6142988,10.1268637 C41.9089759,9.91747452 42.1482005,9.58038318 42.2967984,9.16515389 L44.5973099,2.73679804 C44.9807428,1.66536522 45.907976,1.2347931 46.668343,1.77508828 C46.9630201,1.98447741 47.2022447,2.32156875 47.3508426,2.73679804 L49.6513541,9.16515389 C50.034787,10.2365867 50.9620202,10.6671588 51.7223872,10.1268637 C52.0170643,9.91747452 52.2562889,9.58038318 52.4048868,9.16515389 L54.7053983,2.73679804 C55.0888312,1.66536522 56.0160644,1.2347931 56.7764314,1.77508828 C57.0711085,1.98447741 57.3103331,2.32156875 57.458931,2.73679804 L59.7594425,9.16515389 C60.1428754,10.2365867 61.0701086,10.6671588 61.8304756,10.1268637 C62.1251527,9.91747452 62.3643774,9.58038318 62.5129752,9.16515389 L64.8134867,2.73679804 C65.1969196,1.66536522 66.1241528,1.2347931 66.8845198,1.77508828 C67.1791969,1.98447741 67.4184216,2.32156875 67.5670194,2.73679804 L69.8675309,9.16515389 C70.2509639,10.2365867 71.178197,10.6671588 71.938564,10.1268637 C72.2332411,9.91747452 72.4724658,9.58038318 72.6210636,9.16515389 L74.9215751,2.73679804 C75.3050081,1.66536522 76.2322412,1.2347931 76.9926082,1.77508828 C77.2872853,1.98447741 77.52651,2.32156875 77.6751078,2.73679804 L79.9756193,9.16515389 C80.3590523,10.2365867 81.2862854,10.6671588 82.0466524,10.1268637 C82.3413295,9.91747452 82.5805542,9.58038318 82.729152,9.16515389 L85.0296635,2.73679804 C85.4130965,1.66536522 86.3403296,1.2347931 87.1006967,1.77508828 C87.3953737,1.98447741 87.6345984,2.32156875 87.7831962,2.73679804 L90.0837077,9.16515389 C90.4671407,10.2365867 91.3943738,10.6671588 92.1547409,10.1268637 C92.4494179,9.91747452 92.6886426,9.58038318 92.8372404,9.16515389 L95.0551792,2.96753231 C95.2468957,2.4318159 95.7105122,2.21652983 96.0906958,2.48667742 C96.3505899,2.67135082 96.5145183,3.04653273 96.5145183,3.45667779 C97.2287339,5.51038069 97.5858417,7.02404002 97.5858417,7.99765579 C97.5858417,11.3202129 97.2287339,16.250813 96.5145183,22.7894559 L0.814407018,22.1776935 L3.18403195,5.96942036 C3.18403195,5.36944387 4.92851149,1.53602309 5.35429867,1.53602309 C5.6453676,1.53602309 6.8700039,2.60131556 7.00106165,2.96753231 Z" fill="#FFFFFF"></path>
                        </g>
                        <path d="M46.7265625,72.6992188 C66.8849559,72.6992188 92,55.882251 92,36 C92,16.117749 75.6583934,0 55.5,0 C35.3416066,0 23,16.117749 19,36 C15,55.882251 26.5681691,72.6992188 46.7265625,72.6992188 Z" id="jawhenge" fill="#E6A585"></path>
                        <path d="M31.1687405,21.012278 C63.971287,27.5707265 84.0960297,33.0093422 91.5429687,37.328125 C90.4392973,56.7405482 92.8989327,68.9736211 98.921875,74.0273438 C103.5522,77.9125513 107.476917,87.7127712 118.407227,89.6914062 C121.550754,90.2604564 127.487543,93.7295744 136.217593,100.09876 C142.491523,104.676034 144.234207,113.285194 140.234326,119.942115 L117.276999,158.149523 C115.001418,161.936726 110.086559,163.162138 106.299356,160.886557 L8.76948754,102.2847 C0.721680358,97.4490892 -1.88231965,87.0050156 2.95329079,78.9572083 C3.07637964,78.7523541 3.20377464,78.5501182 3.33539083,78.3506356 C8.36799554,70.7230246 11.7900528,63.1334898 13.6015625,55.5820313 C15.9736557,45.6937249 18.7790442,35.9352352 22.0177281,26.3065622 C23.3012812,22.4905329 27.220764,20.2229307 31.1687405,21.012278 Z" id="Rectangle" fill="#E6A585"></path>
                        <path d="M118.5,164 C136.449254,164 153.242188,133.671875 147.546875,118.261719 C141.851562,102.851562 136.449254,90 118.5,90 C100.550746,90 86,108.117749 86,128 C86,147.882251 100.550746,164 118.5,164 Z" id="Oval-2" fill="#E6A585"></path>
                        <path d="M144.237305,110.084961 C149.763997,126.049154 150.882902,138.128932 163.287009,153.085106 C171.119549,162.529141 188.623523,172.164126 200.105941,175.22925 C203.307544,176.083887 205.210135,179.37212 204.355497,182.573722 C203.883515,184.341837 202.630413,185.797886 200.952351,186.528027 L182.613352,194.507496 C177.447216,196.75533 171.549911,196.594512 166.513957,194.06847 L118.98176,170.226243 C118.133525,169.800767 117.320265,169.308879 116.549585,168.755178 L94.6367187,153.011719 L144.237305,110.084961 Z" id="Rectangle-2" fill="#E6A585"></path>
                    </g>
                </g>
            </g>
        </g>
    </g>
</svg>